G04 #@! TF.GenerationSoftware,KiCad,Pcbnew,10.0.5*
G04 #@! TF.CreationDate,2026-08-18T19:09:46-07:00*
G04 #@! TF.ProjectId,PicoFox-PCB,5069636f-466f-4782-9d50-43422e6b6963,REV2*
G04 #@! TF.SameCoordinates,Original*
G04 #@! TF.FileFunction,Legend,Top*
G04 #@! TF.FilePolarity,Positive*
%FSLAX46Y46*%
G04 Gerber Fmt 4.6, Leading zero omitted, Abs format (unit mm)*
G04 Created by KiCad (PCBNEW 10.0.5) date 2026-08-18 19:09:46*
%MOMM*%
%LPD*%
G01*
G04 APERTURE LIST*
%ADD10C,0.120000*%
%ADD11C,0.150000*%
%ADD12C,0.300000*%
%ADD13C,0.400000*%
%ADD14C,0.254000*%
%ADD15C,0.100000*%
%ADD16C,0.000000*%
%ADD17C,0.200000*%
G04 APERTURE END LIST*
D10*
X33230000Y-67330000D02*
X58230000Y-67330000D01*
X58230000Y-112330000D01*
X33230000Y-112330000D01*
X33230000Y-67330000D01*
D11*
X40610588Y-97009875D02*
X40039160Y-97009875D01*
X40324874Y-97009875D02*
X40324874Y-96009875D01*
X40324874Y-96009875D02*
X40229636Y-96152732D01*
X40229636Y-96152732D02*
X40134398Y-96247970D01*
X40134398Y-96247970D02*
X40039160Y-96295589D01*
X41229636Y-96009875D02*
X41324874Y-96009875D01*
X41324874Y-96009875D02*
X41420112Y-96057494D01*
X41420112Y-96057494D02*
X41467731Y-96105113D01*
X41467731Y-96105113D02*
X41515350Y-96200351D01*
X41515350Y-96200351D02*
X41562969Y-96390827D01*
X41562969Y-96390827D02*
X41562969Y-96628922D01*
X41562969Y-96628922D02*
X41515350Y-96819398D01*
X41515350Y-96819398D02*
X41467731Y-96914636D01*
X41467731Y-96914636D02*
X41420112Y-96962256D01*
X41420112Y-96962256D02*
X41324874Y-97009875D01*
X41324874Y-97009875D02*
X41229636Y-97009875D01*
X41229636Y-97009875D02*
X41134398Y-96962256D01*
X41134398Y-96962256D02*
X41086779Y-96914636D01*
X41086779Y-96914636D02*
X41039160Y-96819398D01*
X41039160Y-96819398D02*
X40991541Y-96628922D01*
X40991541Y-96628922D02*
X40991541Y-96390827D01*
X40991541Y-96390827D02*
X41039160Y-96200351D01*
X41039160Y-96200351D02*
X41086779Y-96105113D01*
X41086779Y-96105113D02*
X41134398Y-96057494D01*
X41134398Y-96057494D02*
X41229636Y-96009875D01*
X42182017Y-96009875D02*
X42277255Y-96009875D01*
X42277255Y-96009875D02*
X42372493Y-96057494D01*
X42372493Y-96057494D02*
X42420112Y-96105113D01*
X42420112Y-96105113D02*
X42467731Y-96200351D01*
X42467731Y-96200351D02*
X42515350Y-96390827D01*
X42515350Y-96390827D02*
X42515350Y-96628922D01*
X42515350Y-96628922D02*
X42467731Y-96819398D01*
X42467731Y-96819398D02*
X42420112Y-96914636D01*
X42420112Y-96914636D02*
X42372493Y-96962256D01*
X42372493Y-96962256D02*
X42277255Y-97009875D01*
X42277255Y-97009875D02*
X42182017Y-97009875D01*
X42182017Y-97009875D02*
X42086779Y-96962256D01*
X42086779Y-96962256D02*
X42039160Y-96914636D01*
X42039160Y-96914636D02*
X41991541Y-96819398D01*
X41991541Y-96819398D02*
X41943922Y-96628922D01*
X41943922Y-96628922D02*
X41943922Y-96390827D01*
X41943922Y-96390827D02*
X41991541Y-96200351D01*
X41991541Y-96200351D02*
X42039160Y-96105113D01*
X42039160Y-96105113D02*
X42086779Y-96057494D01*
X42086779Y-96057494D02*
X42182017Y-96009875D01*
X43134398Y-96009875D02*
X43229636Y-96009875D01*
X43229636Y-96009875D02*
X43324874Y-96057494D01*
X43324874Y-96057494D02*
X43372493Y-96105113D01*
X43372493Y-96105113D02*
X43420112Y-96200351D01*
X43420112Y-96200351D02*
X43467731Y-96390827D01*
X43467731Y-96390827D02*
X43467731Y-96628922D01*
X43467731Y-96628922D02*
X43420112Y-96819398D01*
X43420112Y-96819398D02*
X43372493Y-96914636D01*
X43372493Y-96914636D02*
X43324874Y-96962256D01*
X43324874Y-96962256D02*
X43229636Y-97009875D01*
X43229636Y-97009875D02*
X43134398Y-97009875D01*
X43134398Y-97009875D02*
X43039160Y-96962256D01*
X43039160Y-96962256D02*
X42991541Y-96914636D01*
X42991541Y-96914636D02*
X42943922Y-96819398D01*
X42943922Y-96819398D02*
X42896303Y-96628922D01*
X42896303Y-96628922D02*
X42896303Y-96390827D01*
X42896303Y-96390827D02*
X42943922Y-96200351D01*
X42943922Y-96200351D02*
X42991541Y-96105113D01*
X42991541Y-96105113D02*
X43039160Y-96057494D01*
X43039160Y-96057494D02*
X43134398Y-96009875D01*
X43896303Y-97009875D02*
X43896303Y-96343208D01*
X43896303Y-96438446D02*
X43943922Y-96390827D01*
X43943922Y-96390827D02*
X44039160Y-96343208D01*
X44039160Y-96343208D02*
X44182017Y-96343208D01*
X44182017Y-96343208D02*
X44277255Y-96390827D01*
X44277255Y-96390827D02*
X44324874Y-96486065D01*
X44324874Y-96486065D02*
X44324874Y-97009875D01*
X44324874Y-96486065D02*
X44372493Y-96390827D01*
X44372493Y-96390827D02*
X44467731Y-96343208D01*
X44467731Y-96343208D02*
X44610588Y-96343208D01*
X44610588Y-96343208D02*
X44705827Y-96390827D01*
X44705827Y-96390827D02*
X44753446Y-96486065D01*
X44753446Y-96486065D02*
X44753446Y-97009875D01*
X45658207Y-97009875D02*
X45658207Y-96486065D01*
X45658207Y-96486065D02*
X45610588Y-96390827D01*
X45610588Y-96390827D02*
X45515350Y-96343208D01*
X45515350Y-96343208D02*
X45324874Y-96343208D01*
X45324874Y-96343208D02*
X45229636Y-96390827D01*
X45658207Y-96962256D02*
X45562969Y-97009875D01*
X45562969Y-97009875D02*
X45324874Y-97009875D01*
X45324874Y-97009875D02*
X45229636Y-96962256D01*
X45229636Y-96962256D02*
X45182017Y-96867017D01*
X45182017Y-96867017D02*
X45182017Y-96771779D01*
X45182017Y-96771779D02*
X45229636Y-96676541D01*
X45229636Y-96676541D02*
X45324874Y-96628922D01*
X45324874Y-96628922D02*
X45562969Y-96628922D01*
X45562969Y-96628922D02*
X45658207Y-96581303D01*
X46134398Y-97009875D02*
X46134398Y-96009875D01*
X46562969Y-97009875D02*
X46562969Y-96486065D01*
X46562969Y-96486065D02*
X46515350Y-96390827D01*
X46515350Y-96390827D02*
X46420112Y-96343208D01*
X46420112Y-96343208D02*
X46277255Y-96343208D01*
X46277255Y-96343208D02*
X46182017Y-96390827D01*
X46182017Y-96390827D02*
X46134398Y-96438446D01*
X40562969Y-98619819D02*
X40086779Y-98619819D01*
X40086779Y-98619819D02*
X40086779Y-97619819D01*
X40896303Y-98619819D02*
X40896303Y-97953152D01*
X40896303Y-97619819D02*
X40848684Y-97667438D01*
X40848684Y-97667438D02*
X40896303Y-97715057D01*
X40896303Y-97715057D02*
X40943922Y-97667438D01*
X40943922Y-97667438D02*
X40896303Y-97619819D01*
X40896303Y-97619819D02*
X40896303Y-97715057D01*
X41372493Y-98619819D02*
X41372493Y-97619819D01*
X41372493Y-97619819D02*
X41753445Y-97619819D01*
X41753445Y-97619819D02*
X41848683Y-97667438D01*
X41848683Y-97667438D02*
X41896302Y-97715057D01*
X41896302Y-97715057D02*
X41943921Y-97810295D01*
X41943921Y-97810295D02*
X41943921Y-97953152D01*
X41943921Y-97953152D02*
X41896302Y-98048390D01*
X41896302Y-98048390D02*
X41848683Y-98096009D01*
X41848683Y-98096009D02*
X41753445Y-98143628D01*
X41753445Y-98143628D02*
X41372493Y-98143628D01*
X42515350Y-98619819D02*
X42420112Y-98572200D01*
X42420112Y-98572200D02*
X42372493Y-98524580D01*
X42372493Y-98524580D02*
X42324874Y-98429342D01*
X42324874Y-98429342D02*
X42324874Y-98143628D01*
X42324874Y-98143628D02*
X42372493Y-98048390D01*
X42372493Y-98048390D02*
X42420112Y-98000771D01*
X42420112Y-98000771D02*
X42515350Y-97953152D01*
X42515350Y-97953152D02*
X42658207Y-97953152D01*
X42658207Y-97953152D02*
X42753445Y-98000771D01*
X42753445Y-98000771D02*
X42801064Y-98048390D01*
X42801064Y-98048390D02*
X42848683Y-98143628D01*
X42848683Y-98143628D02*
X42848683Y-98429342D01*
X42848683Y-98429342D02*
X42801064Y-98524580D01*
X42801064Y-98524580D02*
X42753445Y-98572200D01*
X42753445Y-98572200D02*
X42658207Y-98619819D01*
X42658207Y-98619819D02*
X42515350Y-98619819D01*
X78090112Y-110946009D02*
X78232969Y-110993628D01*
X78232969Y-110993628D02*
X78280588Y-111041247D01*
X78280588Y-111041247D02*
X78328207Y-111136485D01*
X78328207Y-111136485D02*
X78328207Y-111279342D01*
X78328207Y-111279342D02*
X78280588Y-111374580D01*
X78280588Y-111374580D02*
X78232969Y-111422200D01*
X78232969Y-111422200D02*
X78137731Y-111469819D01*
X78137731Y-111469819D02*
X77756779Y-111469819D01*
X77756779Y-111469819D02*
X77756779Y-110469819D01*
X77756779Y-110469819D02*
X78090112Y-110469819D01*
X78090112Y-110469819D02*
X78185350Y-110517438D01*
X78185350Y-110517438D02*
X78232969Y-110565057D01*
X78232969Y-110565057D02*
X78280588Y-110660295D01*
X78280588Y-110660295D02*
X78280588Y-110755533D01*
X78280588Y-110755533D02*
X78232969Y-110850771D01*
X78232969Y-110850771D02*
X78185350Y-110898390D01*
X78185350Y-110898390D02*
X78090112Y-110946009D01*
X78090112Y-110946009D02*
X77756779Y-110946009D01*
X78947255Y-110469819D02*
X79137731Y-110469819D01*
X79137731Y-110469819D02*
X79232969Y-110517438D01*
X79232969Y-110517438D02*
X79328207Y-110612676D01*
X79328207Y-110612676D02*
X79375826Y-110803152D01*
X79375826Y-110803152D02*
X79375826Y-111136485D01*
X79375826Y-111136485D02*
X79328207Y-111326961D01*
X79328207Y-111326961D02*
X79232969Y-111422200D01*
X79232969Y-111422200D02*
X79137731Y-111469819D01*
X79137731Y-111469819D02*
X78947255Y-111469819D01*
X78947255Y-111469819D02*
X78852017Y-111422200D01*
X78852017Y-111422200D02*
X78756779Y-111326961D01*
X78756779Y-111326961D02*
X78709160Y-111136485D01*
X78709160Y-111136485D02*
X78709160Y-110803152D01*
X78709160Y-110803152D02*
X78756779Y-110612676D01*
X78756779Y-110612676D02*
X78852017Y-110517438D01*
X78852017Y-110517438D02*
X78947255Y-110469819D01*
X79994874Y-110469819D02*
X80185350Y-110469819D01*
X80185350Y-110469819D02*
X80280588Y-110517438D01*
X80280588Y-110517438D02*
X80375826Y-110612676D01*
X80375826Y-110612676D02*
X80423445Y-110803152D01*
X80423445Y-110803152D02*
X80423445Y-111136485D01*
X80423445Y-111136485D02*
X80375826Y-111326961D01*
X80375826Y-111326961D02*
X80280588Y-111422200D01*
X80280588Y-111422200D02*
X80185350Y-111469819D01*
X80185350Y-111469819D02*
X79994874Y-111469819D01*
X79994874Y-111469819D02*
X79899636Y-111422200D01*
X79899636Y-111422200D02*
X79804398Y-111326961D01*
X79804398Y-111326961D02*
X79756779Y-111136485D01*
X79756779Y-111136485D02*
X79756779Y-110803152D01*
X79756779Y-110803152D02*
X79804398Y-110612676D01*
X79804398Y-110612676D02*
X79899636Y-110517438D01*
X79899636Y-110517438D02*
X79994874Y-110469819D01*
X80709160Y-110469819D02*
X81280588Y-110469819D01*
X80994874Y-111469819D02*
X80994874Y-110469819D01*
X81566303Y-111422200D02*
X81709160Y-111469819D01*
X81709160Y-111469819D02*
X81947255Y-111469819D01*
X81947255Y-111469819D02*
X82042493Y-111422200D01*
X82042493Y-111422200D02*
X82090112Y-111374580D01*
X82090112Y-111374580D02*
X82137731Y-111279342D01*
X82137731Y-111279342D02*
X82137731Y-111184104D01*
X82137731Y-111184104D02*
X82090112Y-111088866D01*
X82090112Y-111088866D02*
X82042493Y-111041247D01*
X82042493Y-111041247D02*
X81947255Y-110993628D01*
X81947255Y-110993628D02*
X81756779Y-110946009D01*
X81756779Y-110946009D02*
X81661541Y-110898390D01*
X81661541Y-110898390D02*
X81613922Y-110850771D01*
X81613922Y-110850771D02*
X81566303Y-110755533D01*
X81566303Y-110755533D02*
X81566303Y-110660295D01*
X81566303Y-110660295D02*
X81613922Y-110565057D01*
X81613922Y-110565057D02*
X81661541Y-110517438D01*
X81661541Y-110517438D02*
X81756779Y-110469819D01*
X81756779Y-110469819D02*
X81994874Y-110469819D01*
X81994874Y-110469819D02*
X82137731Y-110517438D01*
X82566303Y-110946009D02*
X82899636Y-110946009D01*
X83042493Y-111469819D02*
X82566303Y-111469819D01*
X82566303Y-111469819D02*
X82566303Y-110469819D01*
X82566303Y-110469819D02*
X83042493Y-110469819D01*
X83947255Y-111469819D02*
X83471065Y-111469819D01*
X83471065Y-111469819D02*
X83471065Y-110469819D01*
X26733333Y-78788152D02*
X26733333Y-79788152D01*
X26733333Y-78835771D02*
X26828571Y-78788152D01*
X26828571Y-78788152D02*
X27019047Y-78788152D01*
X27019047Y-78788152D02*
X27114285Y-78835771D01*
X27114285Y-78835771D02*
X27161904Y-78883390D01*
X27161904Y-78883390D02*
X27209523Y-78978628D01*
X27209523Y-78978628D02*
X27209523Y-79264342D01*
X27209523Y-79264342D02*
X27161904Y-79359580D01*
X27161904Y-79359580D02*
X27114285Y-79407200D01*
X27114285Y-79407200D02*
X27019047Y-79454819D01*
X27019047Y-79454819D02*
X26828571Y-79454819D01*
X26828571Y-79454819D02*
X26733333Y-79407200D01*
X27971428Y-78931009D02*
X27638095Y-78931009D01*
X27638095Y-79454819D02*
X27638095Y-78454819D01*
X27638095Y-78454819D02*
X28114285Y-78454819D01*
X28638095Y-79454819D02*
X28542857Y-79407200D01*
X28542857Y-79407200D02*
X28495238Y-79359580D01*
X28495238Y-79359580D02*
X28447619Y-79264342D01*
X28447619Y-79264342D02*
X28447619Y-78978628D01*
X28447619Y-78978628D02*
X28495238Y-78883390D01*
X28495238Y-78883390D02*
X28542857Y-78835771D01*
X28542857Y-78835771D02*
X28638095Y-78788152D01*
X28638095Y-78788152D02*
X28780952Y-78788152D01*
X28780952Y-78788152D02*
X28876190Y-78835771D01*
X28876190Y-78835771D02*
X28923809Y-78883390D01*
X28923809Y-78883390D02*
X28971428Y-78978628D01*
X28971428Y-78978628D02*
X28971428Y-79264342D01*
X28971428Y-79264342D02*
X28923809Y-79359580D01*
X28923809Y-79359580D02*
X28876190Y-79407200D01*
X28876190Y-79407200D02*
X28780952Y-79454819D01*
X28780952Y-79454819D02*
X28638095Y-79454819D01*
X29304762Y-79454819D02*
X29828571Y-78788152D01*
X29304762Y-78788152D02*
X29828571Y-79454819D01*
X30971429Y-79454819D02*
X30971429Y-78788152D01*
X30971429Y-78978628D02*
X31019048Y-78883390D01*
X31019048Y-78883390D02*
X31066667Y-78835771D01*
X31066667Y-78835771D02*
X31161905Y-78788152D01*
X31161905Y-78788152D02*
X31257143Y-78788152D01*
X32019048Y-78788152D02*
X32019048Y-79454819D01*
X31780953Y-78407200D02*
X31542858Y-79121485D01*
X31542858Y-79121485D02*
X32161905Y-79121485D01*
X25861905Y-84400211D02*
X25861905Y-83400211D01*
X25861905Y-83400211D02*
X26242857Y-83400211D01*
X26242857Y-83400211D02*
X26338095Y-83447830D01*
X26338095Y-83447830D02*
X26385714Y-83495449D01*
X26385714Y-83495449D02*
X26433333Y-83590687D01*
X26433333Y-83590687D02*
X26433333Y-83733544D01*
X26433333Y-83733544D02*
X26385714Y-83828782D01*
X26385714Y-83828782D02*
X26338095Y-83876401D01*
X26338095Y-83876401D02*
X26242857Y-83924020D01*
X26242857Y-83924020D02*
X25861905Y-83924020D01*
X27290476Y-84400211D02*
X27290476Y-83876401D01*
X27290476Y-83876401D02*
X27242857Y-83781163D01*
X27242857Y-83781163D02*
X27147619Y-83733544D01*
X27147619Y-83733544D02*
X26957143Y-83733544D01*
X26957143Y-83733544D02*
X26861905Y-83781163D01*
X27290476Y-84352592D02*
X27195238Y-84400211D01*
X27195238Y-84400211D02*
X26957143Y-84400211D01*
X26957143Y-84400211D02*
X26861905Y-84352592D01*
X26861905Y-84352592D02*
X26814286Y-84257353D01*
X26814286Y-84257353D02*
X26814286Y-84162115D01*
X26814286Y-84162115D02*
X26861905Y-84066877D01*
X26861905Y-84066877D02*
X26957143Y-84019258D01*
X26957143Y-84019258D02*
X27195238Y-84019258D01*
X27195238Y-84019258D02*
X27290476Y-83971639D01*
X28195238Y-84352592D02*
X28100000Y-84400211D01*
X28100000Y-84400211D02*
X27909524Y-84400211D01*
X27909524Y-84400211D02*
X27814286Y-84352592D01*
X27814286Y-84352592D02*
X27766667Y-84304972D01*
X27766667Y-84304972D02*
X27719048Y-84209734D01*
X27719048Y-84209734D02*
X27719048Y-83924020D01*
X27719048Y-83924020D02*
X27766667Y-83828782D01*
X27766667Y-83828782D02*
X27814286Y-83781163D01*
X27814286Y-83781163D02*
X27909524Y-83733544D01*
X27909524Y-83733544D02*
X28100000Y-83733544D01*
X28100000Y-83733544D02*
X28195238Y-83781163D01*
X28623810Y-84400211D02*
X28623810Y-83733544D01*
X28623810Y-83400211D02*
X28576191Y-83447830D01*
X28576191Y-83447830D02*
X28623810Y-83495449D01*
X28623810Y-83495449D02*
X28671429Y-83447830D01*
X28671429Y-83447830D02*
X28623810Y-83400211D01*
X28623810Y-83400211D02*
X28623810Y-83495449D01*
X28957143Y-83733544D02*
X29338095Y-83733544D01*
X29100000Y-84400211D02*
X29100000Y-83543068D01*
X29100000Y-83543068D02*
X29147619Y-83447830D01*
X29147619Y-83447830D02*
X29242857Y-83400211D01*
X29242857Y-83400211D02*
X29338095Y-83400211D01*
X29671429Y-84400211D02*
X29671429Y-83733544D01*
X29671429Y-83400211D02*
X29623810Y-83447830D01*
X29623810Y-83447830D02*
X29671429Y-83495449D01*
X29671429Y-83495449D02*
X29719048Y-83447830D01*
X29719048Y-83447830D02*
X29671429Y-83400211D01*
X29671429Y-83400211D02*
X29671429Y-83495449D01*
X30576190Y-84352592D02*
X30480952Y-84400211D01*
X30480952Y-84400211D02*
X30290476Y-84400211D01*
X30290476Y-84400211D02*
X30195238Y-84352592D01*
X30195238Y-84352592D02*
X30147619Y-84304972D01*
X30147619Y-84304972D02*
X30100000Y-84209734D01*
X30100000Y-84209734D02*
X30100000Y-83924020D01*
X30100000Y-83924020D02*
X30147619Y-83828782D01*
X30147619Y-83828782D02*
X30195238Y-83781163D01*
X30195238Y-83781163D02*
X30290476Y-83733544D01*
X30290476Y-83733544D02*
X30480952Y-83733544D01*
X30480952Y-83733544D02*
X30576190Y-83781163D01*
X31147619Y-84400211D02*
X31052381Y-84352592D01*
X31052381Y-84352592D02*
X31004762Y-84304972D01*
X31004762Y-84304972D02*
X30957143Y-84209734D01*
X30957143Y-84209734D02*
X30957143Y-83924020D01*
X30957143Y-83924020D02*
X31004762Y-83828782D01*
X31004762Y-83828782D02*
X31052381Y-83781163D01*
X31052381Y-83781163D02*
X31147619Y-83733544D01*
X31147619Y-83733544D02*
X31290476Y-83733544D01*
X31290476Y-83733544D02*
X31385714Y-83781163D01*
X31385714Y-83781163D02*
X31433333Y-83828782D01*
X31433333Y-83828782D02*
X31480952Y-83924020D01*
X31480952Y-83924020D02*
X31480952Y-84209734D01*
X31480952Y-84209734D02*
X31433333Y-84304972D01*
X31433333Y-84304972D02*
X31385714Y-84352592D01*
X31385714Y-84352592D02*
X31290476Y-84400211D01*
X31290476Y-84400211D02*
X31147619Y-84400211D01*
X31909524Y-83733544D02*
X31909524Y-84400211D01*
X31909524Y-83828782D02*
X31957143Y-83781163D01*
X31957143Y-83781163D02*
X32052381Y-83733544D01*
X32052381Y-83733544D02*
X32195238Y-83733544D01*
X32195238Y-83733544D02*
X32290476Y-83781163D01*
X32290476Y-83781163D02*
X32338095Y-83876401D01*
X32338095Y-83876401D02*
X32338095Y-84400211D01*
X26766667Y-85486345D02*
X27100000Y-85486345D01*
X27242857Y-86010155D02*
X26766667Y-86010155D01*
X26766667Y-86010155D02*
X26766667Y-85010155D01*
X26766667Y-85010155D02*
X27242857Y-85010155D01*
X28100000Y-86010155D02*
X28100000Y-85010155D01*
X28100000Y-85962536D02*
X28004762Y-86010155D01*
X28004762Y-86010155D02*
X27814286Y-86010155D01*
X27814286Y-86010155D02*
X27719048Y-85962536D01*
X27719048Y-85962536D02*
X27671429Y-85914916D01*
X27671429Y-85914916D02*
X27623810Y-85819678D01*
X27623810Y-85819678D02*
X27623810Y-85533964D01*
X27623810Y-85533964D02*
X27671429Y-85438726D01*
X27671429Y-85438726D02*
X27719048Y-85391107D01*
X27719048Y-85391107D02*
X27814286Y-85343488D01*
X27814286Y-85343488D02*
X28004762Y-85343488D01*
X28004762Y-85343488D02*
X28100000Y-85391107D01*
X28576191Y-86010155D02*
X28576191Y-85343488D01*
X28576191Y-85010155D02*
X28528572Y-85057774D01*
X28528572Y-85057774D02*
X28576191Y-85105393D01*
X28576191Y-85105393D02*
X28623810Y-85057774D01*
X28623810Y-85057774D02*
X28576191Y-85010155D01*
X28576191Y-85010155D02*
X28576191Y-85105393D01*
X28909524Y-85343488D02*
X29290476Y-85343488D01*
X29052381Y-85010155D02*
X29052381Y-85867297D01*
X29052381Y-85867297D02*
X29100000Y-85962536D01*
X29100000Y-85962536D02*
X29195238Y-86010155D01*
X29195238Y-86010155D02*
X29290476Y-86010155D01*
X29623810Y-86010155D02*
X29623810Y-85343488D01*
X29623810Y-85010155D02*
X29576191Y-85057774D01*
X29576191Y-85057774D02*
X29623810Y-85105393D01*
X29623810Y-85105393D02*
X29671429Y-85057774D01*
X29671429Y-85057774D02*
X29623810Y-85010155D01*
X29623810Y-85010155D02*
X29623810Y-85105393D01*
X30242857Y-86010155D02*
X30147619Y-85962536D01*
X30147619Y-85962536D02*
X30100000Y-85914916D01*
X30100000Y-85914916D02*
X30052381Y-85819678D01*
X30052381Y-85819678D02*
X30052381Y-85533964D01*
X30052381Y-85533964D02*
X30100000Y-85438726D01*
X30100000Y-85438726D02*
X30147619Y-85391107D01*
X30147619Y-85391107D02*
X30242857Y-85343488D01*
X30242857Y-85343488D02*
X30385714Y-85343488D01*
X30385714Y-85343488D02*
X30480952Y-85391107D01*
X30480952Y-85391107D02*
X30528571Y-85438726D01*
X30528571Y-85438726D02*
X30576190Y-85533964D01*
X30576190Y-85533964D02*
X30576190Y-85819678D01*
X30576190Y-85819678D02*
X30528571Y-85914916D01*
X30528571Y-85914916D02*
X30480952Y-85962536D01*
X30480952Y-85962536D02*
X30385714Y-86010155D01*
X30385714Y-86010155D02*
X30242857Y-86010155D01*
X31004762Y-85343488D02*
X31004762Y-86010155D01*
X31004762Y-85438726D02*
X31052381Y-85391107D01*
X31052381Y-85391107D02*
X31147619Y-85343488D01*
X31147619Y-85343488D02*
X31290476Y-85343488D01*
X31290476Y-85343488D02*
X31385714Y-85391107D01*
X31385714Y-85391107D02*
X31433333Y-85486345D01*
X31433333Y-85486345D02*
X31433333Y-86010155D01*
X26623809Y-89230043D02*
X26623809Y-88230043D01*
X26623809Y-88230043D02*
X27004761Y-88230043D01*
X27004761Y-88230043D02*
X27099999Y-88277662D01*
X27099999Y-88277662D02*
X27147618Y-88325281D01*
X27147618Y-88325281D02*
X27195237Y-88420519D01*
X27195237Y-88420519D02*
X27195237Y-88563376D01*
X27195237Y-88563376D02*
X27147618Y-88658614D01*
X27147618Y-88658614D02*
X27099999Y-88706233D01*
X27099999Y-88706233D02*
X27004761Y-88753852D01*
X27004761Y-88753852D02*
X26623809Y-88753852D01*
X28195237Y-89134804D02*
X28147618Y-89182424D01*
X28147618Y-89182424D02*
X28004761Y-89230043D01*
X28004761Y-89230043D02*
X27909523Y-89230043D01*
X27909523Y-89230043D02*
X27766666Y-89182424D01*
X27766666Y-89182424D02*
X27671428Y-89087185D01*
X27671428Y-89087185D02*
X27623809Y-88991947D01*
X27623809Y-88991947D02*
X27576190Y-88801471D01*
X27576190Y-88801471D02*
X27576190Y-88658614D01*
X27576190Y-88658614D02*
X27623809Y-88468138D01*
X27623809Y-88468138D02*
X27671428Y-88372900D01*
X27671428Y-88372900D02*
X27766666Y-88277662D01*
X27766666Y-88277662D02*
X27909523Y-88230043D01*
X27909523Y-88230043D02*
X28004761Y-88230043D01*
X28004761Y-88230043D02*
X28147618Y-88277662D01*
X28147618Y-88277662D02*
X28195237Y-88325281D01*
X28957142Y-88706233D02*
X29099999Y-88753852D01*
X29099999Y-88753852D02*
X29147618Y-88801471D01*
X29147618Y-88801471D02*
X29195237Y-88896709D01*
X29195237Y-88896709D02*
X29195237Y-89039566D01*
X29195237Y-89039566D02*
X29147618Y-89134804D01*
X29147618Y-89134804D02*
X29099999Y-89182424D01*
X29099999Y-89182424D02*
X29004761Y-89230043D01*
X29004761Y-89230043D02*
X28623809Y-89230043D01*
X28623809Y-89230043D02*
X28623809Y-88230043D01*
X28623809Y-88230043D02*
X28957142Y-88230043D01*
X28957142Y-88230043D02*
X29052380Y-88277662D01*
X29052380Y-88277662D02*
X29099999Y-88325281D01*
X29099999Y-88325281D02*
X29147618Y-88420519D01*
X29147618Y-88420519D02*
X29147618Y-88515757D01*
X29147618Y-88515757D02*
X29099999Y-88610995D01*
X29099999Y-88610995D02*
X29052380Y-88658614D01*
X29052380Y-88658614D02*
X28957142Y-88706233D01*
X28957142Y-88706233D02*
X28623809Y-88706233D01*
X30385714Y-89230043D02*
X30385714Y-88230043D01*
X30385714Y-88610995D02*
X30480952Y-88563376D01*
X30480952Y-88563376D02*
X30671428Y-88563376D01*
X30671428Y-88563376D02*
X30766666Y-88610995D01*
X30766666Y-88610995D02*
X30814285Y-88658614D01*
X30814285Y-88658614D02*
X30861904Y-88753852D01*
X30861904Y-88753852D02*
X30861904Y-89039566D01*
X30861904Y-89039566D02*
X30814285Y-89134804D01*
X30814285Y-89134804D02*
X30766666Y-89182424D01*
X30766666Y-89182424D02*
X30671428Y-89230043D01*
X30671428Y-89230043D02*
X30480952Y-89230043D01*
X30480952Y-89230043D02*
X30385714Y-89182424D01*
X31195238Y-88563376D02*
X31433333Y-89230043D01*
X31671428Y-88563376D02*
X31433333Y-89230043D01*
X31433333Y-89230043D02*
X31338095Y-89468138D01*
X31338095Y-89468138D02*
X31290476Y-89515757D01*
X31290476Y-89515757D02*
X31195238Y-89563376D01*
X26219048Y-90839987D02*
X26219048Y-89839987D01*
X26790476Y-90839987D02*
X26361905Y-90268558D01*
X26790476Y-89839987D02*
X26219048Y-90411415D01*
X27742857Y-89887606D02*
X27647619Y-89839987D01*
X27647619Y-89839987D02*
X27504762Y-89839987D01*
X27504762Y-89839987D02*
X27361905Y-89887606D01*
X27361905Y-89887606D02*
X27266667Y-89982844D01*
X27266667Y-89982844D02*
X27219048Y-90078082D01*
X27219048Y-90078082D02*
X27171429Y-90268558D01*
X27171429Y-90268558D02*
X27171429Y-90411415D01*
X27171429Y-90411415D02*
X27219048Y-90601891D01*
X27219048Y-90601891D02*
X27266667Y-90697129D01*
X27266667Y-90697129D02*
X27361905Y-90792368D01*
X27361905Y-90792368D02*
X27504762Y-90839987D01*
X27504762Y-90839987D02*
X27600000Y-90839987D01*
X27600000Y-90839987D02*
X27742857Y-90792368D01*
X27742857Y-90792368D02*
X27790476Y-90744748D01*
X27790476Y-90744748D02*
X27790476Y-90411415D01*
X27790476Y-90411415D02*
X27600000Y-90411415D01*
X28647619Y-89839987D02*
X28457143Y-89839987D01*
X28457143Y-89839987D02*
X28361905Y-89887606D01*
X28361905Y-89887606D02*
X28314286Y-89935225D01*
X28314286Y-89935225D02*
X28219048Y-90078082D01*
X28219048Y-90078082D02*
X28171429Y-90268558D01*
X28171429Y-90268558D02*
X28171429Y-90649510D01*
X28171429Y-90649510D02*
X28219048Y-90744748D01*
X28219048Y-90744748D02*
X28266667Y-90792368D01*
X28266667Y-90792368D02*
X28361905Y-90839987D01*
X28361905Y-90839987D02*
X28552381Y-90839987D01*
X28552381Y-90839987D02*
X28647619Y-90792368D01*
X28647619Y-90792368D02*
X28695238Y-90744748D01*
X28695238Y-90744748D02*
X28742857Y-90649510D01*
X28742857Y-90649510D02*
X28742857Y-90411415D01*
X28742857Y-90411415D02*
X28695238Y-90316177D01*
X28695238Y-90316177D02*
X28647619Y-90268558D01*
X28647619Y-90268558D02*
X28552381Y-90220939D01*
X28552381Y-90220939D02*
X28361905Y-90220939D01*
X28361905Y-90220939D02*
X28266667Y-90268558D01*
X28266667Y-90268558D02*
X28219048Y-90316177D01*
X28219048Y-90316177D02*
X28171429Y-90411415D01*
X29171429Y-90839987D02*
X29171429Y-89839987D01*
X29171429Y-89839987D02*
X29504762Y-90554272D01*
X29504762Y-90554272D02*
X29838095Y-89839987D01*
X29838095Y-89839987D02*
X29838095Y-90839987D01*
X30314286Y-90839987D02*
X30314286Y-89839987D01*
X30314286Y-89839987D02*
X30552381Y-89839987D01*
X30552381Y-89839987D02*
X30695238Y-89887606D01*
X30695238Y-89887606D02*
X30790476Y-89982844D01*
X30790476Y-89982844D02*
X30838095Y-90078082D01*
X30838095Y-90078082D02*
X30885714Y-90268558D01*
X30885714Y-90268558D02*
X30885714Y-90411415D01*
X30885714Y-90411415D02*
X30838095Y-90601891D01*
X30838095Y-90601891D02*
X30790476Y-90697129D01*
X30790476Y-90697129D02*
X30695238Y-90792368D01*
X30695238Y-90792368D02*
X30552381Y-90839987D01*
X30552381Y-90839987D02*
X30314286Y-90839987D01*
X31219048Y-89839987D02*
X31457143Y-90839987D01*
X31457143Y-90839987D02*
X31647619Y-90125701D01*
X31647619Y-90125701D02*
X31838095Y-90839987D01*
X31838095Y-90839987D02*
X32076191Y-89839987D01*
X27052380Y-93774160D02*
X27528570Y-93774160D01*
X26957142Y-94059875D02*
X27290475Y-93059875D01*
X27290475Y-93059875D02*
X27623808Y-94059875D01*
X27957142Y-94059875D02*
X27957142Y-93393208D01*
X27957142Y-93583684D02*
X28004761Y-93488446D01*
X28004761Y-93488446D02*
X28052380Y-93440827D01*
X28052380Y-93440827D02*
X28147618Y-93393208D01*
X28147618Y-93393208D02*
X28242856Y-93393208D01*
X28433333Y-93393208D02*
X28814285Y-93393208D01*
X28576190Y-93059875D02*
X28576190Y-93917017D01*
X28576190Y-93917017D02*
X28623809Y-94012256D01*
X28623809Y-94012256D02*
X28719047Y-94059875D01*
X28719047Y-94059875D02*
X28814285Y-94059875D01*
X29909524Y-94059875D02*
X29909524Y-93059875D01*
X29909524Y-93440827D02*
X30004762Y-93393208D01*
X30004762Y-93393208D02*
X30195238Y-93393208D01*
X30195238Y-93393208D02*
X30290476Y-93440827D01*
X30290476Y-93440827D02*
X30338095Y-93488446D01*
X30338095Y-93488446D02*
X30385714Y-93583684D01*
X30385714Y-93583684D02*
X30385714Y-93869398D01*
X30385714Y-93869398D02*
X30338095Y-93964636D01*
X30338095Y-93964636D02*
X30290476Y-94012256D01*
X30290476Y-94012256D02*
X30195238Y-94059875D01*
X30195238Y-94059875D02*
X30004762Y-94059875D01*
X30004762Y-94059875D02*
X29909524Y-94012256D01*
X30719048Y-93393208D02*
X30957143Y-94059875D01*
X31195238Y-93393208D02*
X30957143Y-94059875D01*
X30957143Y-94059875D02*
X30861905Y-94297970D01*
X30861905Y-94297970D02*
X30814286Y-94345589D01*
X30814286Y-94345589D02*
X30719048Y-94393208D01*
X27028571Y-95669819D02*
X27028571Y-94669819D01*
X27599999Y-95669819D02*
X27171428Y-95098390D01*
X27599999Y-94669819D02*
X27028571Y-95241247D01*
X28457142Y-94669819D02*
X28266666Y-94669819D01*
X28266666Y-94669819D02*
X28171428Y-94717438D01*
X28171428Y-94717438D02*
X28123809Y-94765057D01*
X28123809Y-94765057D02*
X28028571Y-94907914D01*
X28028571Y-94907914D02*
X27980952Y-95098390D01*
X27980952Y-95098390D02*
X27980952Y-95479342D01*
X27980952Y-95479342D02*
X28028571Y-95574580D01*
X28028571Y-95574580D02*
X28076190Y-95622200D01*
X28076190Y-95622200D02*
X28171428Y-95669819D01*
X28171428Y-95669819D02*
X28361904Y-95669819D01*
X28361904Y-95669819D02*
X28457142Y-95622200D01*
X28457142Y-95622200D02*
X28504761Y-95574580D01*
X28504761Y-95574580D02*
X28552380Y-95479342D01*
X28552380Y-95479342D02*
X28552380Y-95241247D01*
X28552380Y-95241247D02*
X28504761Y-95146009D01*
X28504761Y-95146009D02*
X28457142Y-95098390D01*
X28457142Y-95098390D02*
X28361904Y-95050771D01*
X28361904Y-95050771D02*
X28171428Y-95050771D01*
X28171428Y-95050771D02*
X28076190Y-95098390D01*
X28076190Y-95098390D02*
X28028571Y-95146009D01*
X28028571Y-95146009D02*
X27980952Y-95241247D01*
X29457142Y-95669819D02*
X28980952Y-95669819D01*
X28980952Y-95669819D02*
X28980952Y-94669819D01*
X29790476Y-95669819D02*
X29790476Y-94669819D01*
X29790476Y-94669819D02*
X30028571Y-94669819D01*
X30028571Y-94669819D02*
X30171428Y-94717438D01*
X30171428Y-94717438D02*
X30266666Y-94812676D01*
X30266666Y-94812676D02*
X30314285Y-94907914D01*
X30314285Y-94907914D02*
X30361904Y-95098390D01*
X30361904Y-95098390D02*
X30361904Y-95241247D01*
X30361904Y-95241247D02*
X30314285Y-95431723D01*
X30314285Y-95431723D02*
X30266666Y-95526961D01*
X30266666Y-95526961D02*
X30171428Y-95622200D01*
X30171428Y-95622200D02*
X30028571Y-95669819D01*
X30028571Y-95669819D02*
X29790476Y-95669819D01*
X30980952Y-95193628D02*
X30980952Y-95669819D01*
X30647619Y-94669819D02*
X30980952Y-95193628D01*
X30980952Y-95193628D02*
X31314285Y-94669819D01*
X56759819Y-94031792D02*
X56283628Y-94365125D01*
X56759819Y-94603220D02*
X55759819Y-94603220D01*
X55759819Y-94603220D02*
X55759819Y-94222268D01*
X55759819Y-94222268D02*
X55807438Y-94127030D01*
X55807438Y-94127030D02*
X55855057Y-94079411D01*
X55855057Y-94079411D02*
X55950295Y-94031792D01*
X55950295Y-94031792D02*
X56093152Y-94031792D01*
X56093152Y-94031792D02*
X56188390Y-94079411D01*
X56188390Y-94079411D02*
X56236009Y-94127030D01*
X56236009Y-94127030D02*
X56283628Y-94222268D01*
X56283628Y-94222268D02*
X56283628Y-94603220D01*
X56236009Y-93603220D02*
X56236009Y-93269887D01*
X56759819Y-93127030D02*
X56759819Y-93603220D01*
X56759819Y-93603220D02*
X55759819Y-93603220D01*
X55759819Y-93603220D02*
X55759819Y-93127030D01*
X56712200Y-92746077D02*
X56759819Y-92603220D01*
X56759819Y-92603220D02*
X56759819Y-92365125D01*
X56759819Y-92365125D02*
X56712200Y-92269887D01*
X56712200Y-92269887D02*
X56664580Y-92222268D01*
X56664580Y-92222268D02*
X56569342Y-92174649D01*
X56569342Y-92174649D02*
X56474104Y-92174649D01*
X56474104Y-92174649D02*
X56378866Y-92222268D01*
X56378866Y-92222268D02*
X56331247Y-92269887D01*
X56331247Y-92269887D02*
X56283628Y-92365125D01*
X56283628Y-92365125D02*
X56236009Y-92555601D01*
X56236009Y-92555601D02*
X56188390Y-92650839D01*
X56188390Y-92650839D02*
X56140771Y-92698458D01*
X56140771Y-92698458D02*
X56045533Y-92746077D01*
X56045533Y-92746077D02*
X55950295Y-92746077D01*
X55950295Y-92746077D02*
X55855057Y-92698458D01*
X55855057Y-92698458D02*
X55807438Y-92650839D01*
X55807438Y-92650839D02*
X55759819Y-92555601D01*
X55759819Y-92555601D02*
X55759819Y-92317506D01*
X55759819Y-92317506D02*
X55807438Y-92174649D01*
X56236009Y-91746077D02*
X56236009Y-91412744D01*
X56759819Y-91269887D02*
X56759819Y-91746077D01*
X56759819Y-91746077D02*
X55759819Y-91746077D01*
X55759819Y-91746077D02*
X55759819Y-91269887D01*
X55759819Y-90984172D02*
X55759819Y-90412744D01*
X56759819Y-90698458D02*
X55759819Y-90698458D01*
D12*
X52325489Y-119910600D02*
X51182632Y-119910600D01*
D13*
X52227533Y-108585652D02*
X52227533Y-107061843D01*
X52989438Y-107823747D02*
X51465628Y-107823747D01*
D11*
X82963048Y-62209455D02*
X83670155Y-61502348D01*
X83333437Y-61839066D02*
X83737498Y-62243127D01*
X83367109Y-62613516D02*
X84074216Y-61906409D01*
X84309918Y-62276799D02*
X84377261Y-62276799D01*
X84377261Y-62276799D02*
X84478277Y-62310470D01*
X84478277Y-62310470D02*
X84646635Y-62478829D01*
X84646635Y-62478829D02*
X84680307Y-62579844D01*
X84680307Y-62579844D02*
X84680307Y-62647188D01*
X84680307Y-62647188D02*
X84646635Y-62748203D01*
X84646635Y-62748203D02*
X84579292Y-62815547D01*
X84579292Y-62815547D02*
X84444605Y-62882890D01*
X84444605Y-62882890D02*
X83636483Y-62882890D01*
X83636483Y-62882890D02*
X84074216Y-63320623D01*
X74600080Y-62986666D02*
X74647700Y-63034285D01*
X74647700Y-63034285D02*
X74695319Y-63177142D01*
X74695319Y-63177142D02*
X74695319Y-63272380D01*
X74695319Y-63272380D02*
X74647700Y-63415237D01*
X74647700Y-63415237D02*
X74552461Y-63510475D01*
X74552461Y-63510475D02*
X74457223Y-63558094D01*
X74457223Y-63558094D02*
X74266747Y-63605713D01*
X74266747Y-63605713D02*
X74123890Y-63605713D01*
X74123890Y-63605713D02*
X73933414Y-63558094D01*
X73933414Y-63558094D02*
X73838176Y-63510475D01*
X73838176Y-63510475D02*
X73742938Y-63415237D01*
X73742938Y-63415237D02*
X73695319Y-63272380D01*
X73695319Y-63272380D02*
X73695319Y-63177142D01*
X73695319Y-63177142D02*
X73742938Y-63034285D01*
X73742938Y-63034285D02*
X73790557Y-62986666D01*
X74028652Y-62129523D02*
X74695319Y-62129523D01*
X73647700Y-62367618D02*
X74361985Y-62605713D01*
X74361985Y-62605713D02*
X74361985Y-61986666D01*
X70574601Y-115708402D02*
X70876472Y-116355764D01*
X70876472Y-116355764D02*
X70893688Y-116505361D01*
X70893688Y-116505361D02*
X70847622Y-116631926D01*
X70847622Y-116631926D02*
X70738275Y-116735457D01*
X70738275Y-116735457D02*
X70651960Y-116775707D01*
X71437752Y-115305908D02*
X71006177Y-115507155D01*
X71006177Y-115507155D02*
X71164266Y-115958854D01*
X71164266Y-115958854D02*
X71187299Y-115895572D01*
X71187299Y-115895572D02*
X71253489Y-115812165D01*
X71253489Y-115812165D02*
X71469277Y-115711542D01*
X71469277Y-115711542D02*
X71575716Y-115714450D01*
X71575716Y-115714450D02*
X71638999Y-115737483D01*
X71638999Y-115737483D02*
X71722406Y-115803673D01*
X71722406Y-115803673D02*
X71823029Y-116019461D01*
X71823029Y-116019461D02*
X71820121Y-116125901D01*
X71820121Y-116125901D02*
X71797088Y-116189183D01*
X71797088Y-116189183D02*
X71730898Y-116272590D01*
X71730898Y-116272590D02*
X71515110Y-116373213D01*
X71515110Y-116373213D02*
X71408670Y-116370305D01*
X71408670Y-116370305D02*
X71345388Y-116347272D01*
X67100080Y-73182857D02*
X67147700Y-73230476D01*
X67147700Y-73230476D02*
X67195319Y-73373333D01*
X67195319Y-73373333D02*
X67195319Y-73468571D01*
X67195319Y-73468571D02*
X67147700Y-73611428D01*
X67147700Y-73611428D02*
X67052461Y-73706666D01*
X67052461Y-73706666D02*
X66957223Y-73754285D01*
X66957223Y-73754285D02*
X66766747Y-73801904D01*
X66766747Y-73801904D02*
X66623890Y-73801904D01*
X66623890Y-73801904D02*
X66433414Y-73754285D01*
X66433414Y-73754285D02*
X66338176Y-73706666D01*
X66338176Y-73706666D02*
X66242938Y-73611428D01*
X66242938Y-73611428D02*
X66195319Y-73468571D01*
X66195319Y-73468571D02*
X66195319Y-73373333D01*
X66195319Y-73373333D02*
X66242938Y-73230476D01*
X66242938Y-73230476D02*
X66290557Y-73182857D01*
X66290557Y-72801904D02*
X66242938Y-72754285D01*
X66242938Y-72754285D02*
X66195319Y-72659047D01*
X66195319Y-72659047D02*
X66195319Y-72420952D01*
X66195319Y-72420952D02*
X66242938Y-72325714D01*
X66242938Y-72325714D02*
X66290557Y-72278095D01*
X66290557Y-72278095D02*
X66385795Y-72230476D01*
X66385795Y-72230476D02*
X66481033Y-72230476D01*
X66481033Y-72230476D02*
X66623890Y-72278095D01*
X66623890Y-72278095D02*
X67195319Y-72849523D01*
X67195319Y-72849523D02*
X67195319Y-72230476D01*
X66195319Y-71897142D02*
X66195319Y-71278095D01*
X66195319Y-71278095D02*
X66576271Y-71611428D01*
X66576271Y-71611428D02*
X66576271Y-71468571D01*
X66576271Y-71468571D02*
X66623890Y-71373333D01*
X66623890Y-71373333D02*
X66671509Y-71325714D01*
X66671509Y-71325714D02*
X66766747Y-71278095D01*
X66766747Y-71278095D02*
X67004842Y-71278095D01*
X67004842Y-71278095D02*
X67100080Y-71325714D01*
X67100080Y-71325714D02*
X67147700Y-71373333D01*
X67147700Y-71373333D02*
X67195319Y-71468571D01*
X67195319Y-71468571D02*
X67195319Y-71754285D01*
X67195319Y-71754285D02*
X67147700Y-71849523D01*
X67147700Y-71849523D02*
X67100080Y-71897142D01*
X64760080Y-73192857D02*
X64807700Y-73240476D01*
X64807700Y-73240476D02*
X64855319Y-73383333D01*
X64855319Y-73383333D02*
X64855319Y-73478571D01*
X64855319Y-73478571D02*
X64807700Y-73621428D01*
X64807700Y-73621428D02*
X64712461Y-73716666D01*
X64712461Y-73716666D02*
X64617223Y-73764285D01*
X64617223Y-73764285D02*
X64426747Y-73811904D01*
X64426747Y-73811904D02*
X64283890Y-73811904D01*
X64283890Y-73811904D02*
X64093414Y-73764285D01*
X64093414Y-73764285D02*
X63998176Y-73716666D01*
X63998176Y-73716666D02*
X63902938Y-73621428D01*
X63902938Y-73621428D02*
X63855319Y-73478571D01*
X63855319Y-73478571D02*
X63855319Y-73383333D01*
X63855319Y-73383333D02*
X63902938Y-73240476D01*
X63902938Y-73240476D02*
X63950557Y-73192857D01*
X63855319Y-72859523D02*
X63855319Y-72240476D01*
X63855319Y-72240476D02*
X64236271Y-72573809D01*
X64236271Y-72573809D02*
X64236271Y-72430952D01*
X64236271Y-72430952D02*
X64283890Y-72335714D01*
X64283890Y-72335714D02*
X64331509Y-72288095D01*
X64331509Y-72288095D02*
X64426747Y-72240476D01*
X64426747Y-72240476D02*
X64664842Y-72240476D01*
X64664842Y-72240476D02*
X64760080Y-72288095D01*
X64760080Y-72288095D02*
X64807700Y-72335714D01*
X64807700Y-72335714D02*
X64855319Y-72430952D01*
X64855319Y-72430952D02*
X64855319Y-72716666D01*
X64855319Y-72716666D02*
X64807700Y-72811904D01*
X64807700Y-72811904D02*
X64760080Y-72859523D01*
X64855319Y-71288095D02*
X64855319Y-71859523D01*
X64855319Y-71573809D02*
X63855319Y-71573809D01*
X63855319Y-71573809D02*
X63998176Y-71669047D01*
X63998176Y-71669047D02*
X64093414Y-71764285D01*
X64093414Y-71764285D02*
X64141033Y-71859523D01*
X56644819Y-103262857D02*
X56168628Y-103596190D01*
X56644819Y-103834285D02*
X55644819Y-103834285D01*
X55644819Y-103834285D02*
X55644819Y-103453333D01*
X55644819Y-103453333D02*
X55692438Y-103358095D01*
X55692438Y-103358095D02*
X55740057Y-103310476D01*
X55740057Y-103310476D02*
X55835295Y-103262857D01*
X55835295Y-103262857D02*
X55978152Y-103262857D01*
X55978152Y-103262857D02*
X56073390Y-103310476D01*
X56073390Y-103310476D02*
X56121009Y-103358095D01*
X56121009Y-103358095D02*
X56168628Y-103453333D01*
X56168628Y-103453333D02*
X56168628Y-103834285D01*
X55644819Y-102929523D02*
X55644819Y-102310476D01*
X55644819Y-102310476D02*
X56025771Y-102643809D01*
X56025771Y-102643809D02*
X56025771Y-102500952D01*
X56025771Y-102500952D02*
X56073390Y-102405714D01*
X56073390Y-102405714D02*
X56121009Y-102358095D01*
X56121009Y-102358095D02*
X56216247Y-102310476D01*
X56216247Y-102310476D02*
X56454342Y-102310476D01*
X56454342Y-102310476D02*
X56549580Y-102358095D01*
X56549580Y-102358095D02*
X56597200Y-102405714D01*
X56597200Y-102405714D02*
X56644819Y-102500952D01*
X56644819Y-102500952D02*
X56644819Y-102786666D01*
X56644819Y-102786666D02*
X56597200Y-102881904D01*
X56597200Y-102881904D02*
X56549580Y-102929523D01*
X55644819Y-101977142D02*
X55644819Y-101310476D01*
X55644819Y-101310476D02*
X56644819Y-101739047D01*
X56727142Y-77144819D02*
X56393809Y-76668628D01*
X56155714Y-77144819D02*
X56155714Y-76144819D01*
X56155714Y-76144819D02*
X56536666Y-76144819D01*
X56536666Y-76144819D02*
X56631904Y-76192438D01*
X56631904Y-76192438D02*
X56679523Y-76240057D01*
X56679523Y-76240057D02*
X56727142Y-76335295D01*
X56727142Y-76335295D02*
X56727142Y-76478152D01*
X56727142Y-76478152D02*
X56679523Y-76573390D01*
X56679523Y-76573390D02*
X56631904Y-76621009D01*
X56631904Y-76621009D02*
X56536666Y-76668628D01*
X56536666Y-76668628D02*
X56155714Y-76668628D01*
X57679523Y-77144819D02*
X57108095Y-77144819D01*
X57393809Y-77144819D02*
X57393809Y-76144819D01*
X57393809Y-76144819D02*
X57298571Y-76287676D01*
X57298571Y-76287676D02*
X57203333Y-76382914D01*
X57203333Y-76382914D02*
X57108095Y-76430533D01*
X58584285Y-76144819D02*
X58108095Y-76144819D01*
X58108095Y-76144819D02*
X58060476Y-76621009D01*
X58060476Y-76621009D02*
X58108095Y-76573390D01*
X58108095Y-76573390D02*
X58203333Y-76525771D01*
X58203333Y-76525771D02*
X58441428Y-76525771D01*
X58441428Y-76525771D02*
X58536666Y-76573390D01*
X58536666Y-76573390D02*
X58584285Y-76621009D01*
X58584285Y-76621009D02*
X58631904Y-76716247D01*
X58631904Y-76716247D02*
X58631904Y-76954342D01*
X58631904Y-76954342D02*
X58584285Y-77049580D01*
X58584285Y-77049580D02*
X58536666Y-77097200D01*
X58536666Y-77097200D02*
X58441428Y-77144819D01*
X58441428Y-77144819D02*
X58203333Y-77144819D01*
X58203333Y-77144819D02*
X58108095Y-77097200D01*
X58108095Y-77097200D02*
X58060476Y-77049580D01*
X57979580Y-73132857D02*
X58027200Y-73180476D01*
X58027200Y-73180476D02*
X58074819Y-73323333D01*
X58074819Y-73323333D02*
X58074819Y-73418571D01*
X58074819Y-73418571D02*
X58027200Y-73561428D01*
X58027200Y-73561428D02*
X57931961Y-73656666D01*
X57931961Y-73656666D02*
X57836723Y-73704285D01*
X57836723Y-73704285D02*
X57646247Y-73751904D01*
X57646247Y-73751904D02*
X57503390Y-73751904D01*
X57503390Y-73751904D02*
X57312914Y-73704285D01*
X57312914Y-73704285D02*
X57217676Y-73656666D01*
X57217676Y-73656666D02*
X57122438Y-73561428D01*
X57122438Y-73561428D02*
X57074819Y-73418571D01*
X57074819Y-73418571D02*
X57074819Y-73323333D01*
X57074819Y-73323333D02*
X57122438Y-73180476D01*
X57122438Y-73180476D02*
X57170057Y-73132857D01*
X57170057Y-72751904D02*
X57122438Y-72704285D01*
X57122438Y-72704285D02*
X57074819Y-72609047D01*
X57074819Y-72609047D02*
X57074819Y-72370952D01*
X57074819Y-72370952D02*
X57122438Y-72275714D01*
X57122438Y-72275714D02*
X57170057Y-72228095D01*
X57170057Y-72228095D02*
X57265295Y-72180476D01*
X57265295Y-72180476D02*
X57360533Y-72180476D01*
X57360533Y-72180476D02*
X57503390Y-72228095D01*
X57503390Y-72228095D02*
X58074819Y-72799523D01*
X58074819Y-72799523D02*
X58074819Y-72180476D01*
X57074819Y-71275714D02*
X57074819Y-71751904D01*
X57074819Y-71751904D02*
X57551009Y-71799523D01*
X57551009Y-71799523D02*
X57503390Y-71751904D01*
X57503390Y-71751904D02*
X57455771Y-71656666D01*
X57455771Y-71656666D02*
X57455771Y-71418571D01*
X57455771Y-71418571D02*
X57503390Y-71323333D01*
X57503390Y-71323333D02*
X57551009Y-71275714D01*
X57551009Y-71275714D02*
X57646247Y-71228095D01*
X57646247Y-71228095D02*
X57884342Y-71228095D01*
X57884342Y-71228095D02*
X57979580Y-71275714D01*
X57979580Y-71275714D02*
X58027200Y-71323333D01*
X58027200Y-71323333D02*
X58074819Y-71418571D01*
X58074819Y-71418571D02*
X58074819Y-71656666D01*
X58074819Y-71656666D02*
X58027200Y-71751904D01*
X58027200Y-71751904D02*
X57979580Y-71799523D01*
X63657642Y-81394819D02*
X63324309Y-80918628D01*
X63086214Y-81394819D02*
X63086214Y-80394819D01*
X63086214Y-80394819D02*
X63467166Y-80394819D01*
X63467166Y-80394819D02*
X63562404Y-80442438D01*
X63562404Y-80442438D02*
X63610023Y-80490057D01*
X63610023Y-80490057D02*
X63657642Y-80585295D01*
X63657642Y-80585295D02*
X63657642Y-80728152D01*
X63657642Y-80728152D02*
X63610023Y-80823390D01*
X63610023Y-80823390D02*
X63562404Y-80871009D01*
X63562404Y-80871009D02*
X63467166Y-80918628D01*
X63467166Y-80918628D02*
X63086214Y-80918628D01*
X64610023Y-81394819D02*
X64038595Y-81394819D01*
X64324309Y-81394819D02*
X64324309Y-80394819D01*
X64324309Y-80394819D02*
X64229071Y-80537676D01*
X64229071Y-80537676D02*
X64133833Y-80632914D01*
X64133833Y-80632914D02*
X64038595Y-80680533D01*
X65229071Y-80394819D02*
X65324309Y-80394819D01*
X65324309Y-80394819D02*
X65419547Y-80442438D01*
X65419547Y-80442438D02*
X65467166Y-80490057D01*
X65467166Y-80490057D02*
X65514785Y-80585295D01*
X65514785Y-80585295D02*
X65562404Y-80775771D01*
X65562404Y-80775771D02*
X65562404Y-81013866D01*
X65562404Y-81013866D02*
X65514785Y-81204342D01*
X65514785Y-81204342D02*
X65467166Y-81299580D01*
X65467166Y-81299580D02*
X65419547Y-81347200D01*
X65419547Y-81347200D02*
X65324309Y-81394819D01*
X65324309Y-81394819D02*
X65229071Y-81394819D01*
X65229071Y-81394819D02*
X65133833Y-81347200D01*
X65133833Y-81347200D02*
X65086214Y-81299580D01*
X65086214Y-81299580D02*
X65038595Y-81204342D01*
X65038595Y-81204342D02*
X64990976Y-81013866D01*
X64990976Y-81013866D02*
X64990976Y-80775771D01*
X64990976Y-80775771D02*
X65038595Y-80585295D01*
X65038595Y-80585295D02*
X65086214Y-80490057D01*
X65086214Y-80490057D02*
X65133833Y-80442438D01*
X65133833Y-80442438D02*
X65229071Y-80394819D01*
X63392261Y-99962557D02*
X63297023Y-99914938D01*
X63297023Y-99914938D02*
X63201785Y-99819700D01*
X63201785Y-99819700D02*
X63058928Y-99676842D01*
X63058928Y-99676842D02*
X62963690Y-99629223D01*
X62963690Y-99629223D02*
X62868452Y-99629223D01*
X62916071Y-99867319D02*
X62820833Y-99819700D01*
X62820833Y-99819700D02*
X62725595Y-99724461D01*
X62725595Y-99724461D02*
X62677976Y-99533985D01*
X62677976Y-99533985D02*
X62677976Y-99200652D01*
X62677976Y-99200652D02*
X62725595Y-99010176D01*
X62725595Y-99010176D02*
X62820833Y-98914938D01*
X62820833Y-98914938D02*
X62916071Y-98867319D01*
X62916071Y-98867319D02*
X63106547Y-98867319D01*
X63106547Y-98867319D02*
X63201785Y-98914938D01*
X63201785Y-98914938D02*
X63297023Y-99010176D01*
X63297023Y-99010176D02*
X63344642Y-99200652D01*
X63344642Y-99200652D02*
X63344642Y-99533985D01*
X63344642Y-99533985D02*
X63297023Y-99724461D01*
X63297023Y-99724461D02*
X63201785Y-99819700D01*
X63201785Y-99819700D02*
X63106547Y-99867319D01*
X63106547Y-99867319D02*
X62916071Y-99867319D01*
X64297023Y-99867319D02*
X63725595Y-99867319D01*
X64011309Y-99867319D02*
X64011309Y-98867319D01*
X64011309Y-98867319D02*
X63916071Y-99010176D01*
X63916071Y-99010176D02*
X63820833Y-99105414D01*
X63820833Y-99105414D02*
X63725595Y-99153033D01*
X64089580Y-109242857D02*
X64137200Y-109290476D01*
X64137200Y-109290476D02*
X64184819Y-109433333D01*
X64184819Y-109433333D02*
X64184819Y-109528571D01*
X64184819Y-109528571D02*
X64137200Y-109671428D01*
X64137200Y-109671428D02*
X64041961Y-109766666D01*
X64041961Y-109766666D02*
X63946723Y-109814285D01*
X63946723Y-109814285D02*
X63756247Y-109861904D01*
X63756247Y-109861904D02*
X63613390Y-109861904D01*
X63613390Y-109861904D02*
X63422914Y-109814285D01*
X63422914Y-109814285D02*
X63327676Y-109766666D01*
X63327676Y-109766666D02*
X63232438Y-109671428D01*
X63232438Y-109671428D02*
X63184819Y-109528571D01*
X63184819Y-109528571D02*
X63184819Y-109433333D01*
X63184819Y-109433333D02*
X63232438Y-109290476D01*
X63232438Y-109290476D02*
X63280057Y-109242857D01*
X63184819Y-108909523D02*
X63184819Y-108290476D01*
X63184819Y-108290476D02*
X63565771Y-108623809D01*
X63565771Y-108623809D02*
X63565771Y-108480952D01*
X63565771Y-108480952D02*
X63613390Y-108385714D01*
X63613390Y-108385714D02*
X63661009Y-108338095D01*
X63661009Y-108338095D02*
X63756247Y-108290476D01*
X63756247Y-108290476D02*
X63994342Y-108290476D01*
X63994342Y-108290476D02*
X64089580Y-108338095D01*
X64089580Y-108338095D02*
X64137200Y-108385714D01*
X64137200Y-108385714D02*
X64184819Y-108480952D01*
X64184819Y-108480952D02*
X64184819Y-108766666D01*
X64184819Y-108766666D02*
X64137200Y-108861904D01*
X64137200Y-108861904D02*
X64089580Y-108909523D01*
X63280057Y-107909523D02*
X63232438Y-107861904D01*
X63232438Y-107861904D02*
X63184819Y-107766666D01*
X63184819Y-107766666D02*
X63184819Y-107528571D01*
X63184819Y-107528571D02*
X63232438Y-107433333D01*
X63232438Y-107433333D02*
X63280057Y-107385714D01*
X63280057Y-107385714D02*
X63375295Y-107338095D01*
X63375295Y-107338095D02*
X63470533Y-107338095D01*
X63470533Y-107338095D02*
X63613390Y-107385714D01*
X63613390Y-107385714D02*
X64184819Y-107957142D01*
X64184819Y-107957142D02*
X64184819Y-107338095D01*
X72477142Y-73309580D02*
X72429523Y-73357200D01*
X72429523Y-73357200D02*
X72286666Y-73404819D01*
X72286666Y-73404819D02*
X72191428Y-73404819D01*
X72191428Y-73404819D02*
X72048571Y-73357200D01*
X72048571Y-73357200D02*
X71953333Y-73261961D01*
X71953333Y-73261961D02*
X71905714Y-73166723D01*
X71905714Y-73166723D02*
X71858095Y-72976247D01*
X71858095Y-72976247D02*
X71858095Y-72833390D01*
X71858095Y-72833390D02*
X71905714Y-72642914D01*
X71905714Y-72642914D02*
X71953333Y-72547676D01*
X71953333Y-72547676D02*
X72048571Y-72452438D01*
X72048571Y-72452438D02*
X72191428Y-72404819D01*
X72191428Y-72404819D02*
X72286666Y-72404819D01*
X72286666Y-72404819D02*
X72429523Y-72452438D01*
X72429523Y-72452438D02*
X72477142Y-72500057D01*
X72858095Y-72500057D02*
X72905714Y-72452438D01*
X72905714Y-72452438D02*
X73000952Y-72404819D01*
X73000952Y-72404819D02*
X73239047Y-72404819D01*
X73239047Y-72404819D02*
X73334285Y-72452438D01*
X73334285Y-72452438D02*
X73381904Y-72500057D01*
X73381904Y-72500057D02*
X73429523Y-72595295D01*
X73429523Y-72595295D02*
X73429523Y-72690533D01*
X73429523Y-72690533D02*
X73381904Y-72833390D01*
X73381904Y-72833390D02*
X72810476Y-73404819D01*
X72810476Y-73404819D02*
X73429523Y-73404819D01*
X73810476Y-72500057D02*
X73858095Y-72452438D01*
X73858095Y-72452438D02*
X73953333Y-72404819D01*
X73953333Y-72404819D02*
X74191428Y-72404819D01*
X74191428Y-72404819D02*
X74286666Y-72452438D01*
X74286666Y-72452438D02*
X74334285Y-72500057D01*
X74334285Y-72500057D02*
X74381904Y-72595295D01*
X74381904Y-72595295D02*
X74381904Y-72690533D01*
X74381904Y-72690533D02*
X74334285Y-72833390D01*
X74334285Y-72833390D02*
X73762857Y-73404819D01*
X73762857Y-73404819D02*
X74381904Y-73404819D01*
X74478095Y-100124819D02*
X74478095Y-100934342D01*
X74478095Y-100934342D02*
X74525714Y-101029580D01*
X74525714Y-101029580D02*
X74573333Y-101077200D01*
X74573333Y-101077200D02*
X74668571Y-101124819D01*
X74668571Y-101124819D02*
X74859047Y-101124819D01*
X74859047Y-101124819D02*
X74954285Y-101077200D01*
X74954285Y-101077200D02*
X75001904Y-101029580D01*
X75001904Y-101029580D02*
X75049523Y-100934342D01*
X75049523Y-100934342D02*
X75049523Y-100124819D01*
X75430476Y-100124819D02*
X76049523Y-100124819D01*
X76049523Y-100124819D02*
X75716190Y-100505771D01*
X75716190Y-100505771D02*
X75859047Y-100505771D01*
X75859047Y-100505771D02*
X75954285Y-100553390D01*
X75954285Y-100553390D02*
X76001904Y-100601009D01*
X76001904Y-100601009D02*
X76049523Y-100696247D01*
X76049523Y-100696247D02*
X76049523Y-100934342D01*
X76049523Y-100934342D02*
X76001904Y-101029580D01*
X76001904Y-101029580D02*
X75954285Y-101077200D01*
X75954285Y-101077200D02*
X75859047Y-101124819D01*
X75859047Y-101124819D02*
X75573333Y-101124819D01*
X75573333Y-101124819D02*
X75478095Y-101077200D01*
X75478095Y-101077200D02*
X75430476Y-101029580D01*
X66883833Y-67184819D02*
X66407643Y-67184819D01*
X66407643Y-67184819D02*
X66407643Y-66184819D01*
X67121929Y-66184819D02*
X67788595Y-66184819D01*
X67788595Y-66184819D02*
X67360024Y-67184819D01*
X65804309Y-82628628D02*
X65804309Y-83104819D01*
X65470976Y-82104819D02*
X65804309Y-82628628D01*
X65804309Y-82628628D02*
X66137642Y-82104819D01*
X66423357Y-82200057D02*
X66470976Y-82152438D01*
X66470976Y-82152438D02*
X66566214Y-82104819D01*
X66566214Y-82104819D02*
X66804309Y-82104819D01*
X66804309Y-82104819D02*
X66899547Y-82152438D01*
X66899547Y-82152438D02*
X66947166Y-82200057D01*
X66947166Y-82200057D02*
X66994785Y-82295295D01*
X66994785Y-82295295D02*
X66994785Y-82390533D01*
X66994785Y-82390533D02*
X66947166Y-82533390D01*
X66947166Y-82533390D02*
X66375738Y-83104819D01*
X66375738Y-83104819D02*
X66994785Y-83104819D01*
X63477142Y-66899580D02*
X63429523Y-66947200D01*
X63429523Y-66947200D02*
X63286666Y-66994819D01*
X63286666Y-66994819D02*
X63191428Y-66994819D01*
X63191428Y-66994819D02*
X63048571Y-66947200D01*
X63048571Y-66947200D02*
X62953333Y-66851961D01*
X62953333Y-66851961D02*
X62905714Y-66756723D01*
X62905714Y-66756723D02*
X62858095Y-66566247D01*
X62858095Y-66566247D02*
X62858095Y-66423390D01*
X62858095Y-66423390D02*
X62905714Y-66232914D01*
X62905714Y-66232914D02*
X62953333Y-66137676D01*
X62953333Y-66137676D02*
X63048571Y-66042438D01*
X63048571Y-66042438D02*
X63191428Y-65994819D01*
X63191428Y-65994819D02*
X63286666Y-65994819D01*
X63286666Y-65994819D02*
X63429523Y-66042438D01*
X63429523Y-66042438D02*
X63477142Y-66090057D01*
X63858095Y-66090057D02*
X63905714Y-66042438D01*
X63905714Y-66042438D02*
X64000952Y-65994819D01*
X64000952Y-65994819D02*
X64239047Y-65994819D01*
X64239047Y-65994819D02*
X64334285Y-66042438D01*
X64334285Y-66042438D02*
X64381904Y-66090057D01*
X64381904Y-66090057D02*
X64429523Y-66185295D01*
X64429523Y-66185295D02*
X64429523Y-66280533D01*
X64429523Y-66280533D02*
X64381904Y-66423390D01*
X64381904Y-66423390D02*
X63810476Y-66994819D01*
X63810476Y-66994819D02*
X64429523Y-66994819D01*
X65286666Y-66328152D02*
X65286666Y-66994819D01*
X65048571Y-65947200D02*
X64810476Y-66661485D01*
X64810476Y-66661485D02*
X65429523Y-66661485D01*
X63653333Y-82854819D02*
X63320000Y-82378628D01*
X63081905Y-82854819D02*
X63081905Y-81854819D01*
X63081905Y-81854819D02*
X63462857Y-81854819D01*
X63462857Y-81854819D02*
X63558095Y-81902438D01*
X63558095Y-81902438D02*
X63605714Y-81950057D01*
X63605714Y-81950057D02*
X63653333Y-82045295D01*
X63653333Y-82045295D02*
X63653333Y-82188152D01*
X63653333Y-82188152D02*
X63605714Y-82283390D01*
X63605714Y-82283390D02*
X63558095Y-82331009D01*
X63558095Y-82331009D02*
X63462857Y-82378628D01*
X63462857Y-82378628D02*
X63081905Y-82378628D01*
X64129524Y-82854819D02*
X64320000Y-82854819D01*
X64320000Y-82854819D02*
X64415238Y-82807200D01*
X64415238Y-82807200D02*
X64462857Y-82759580D01*
X64462857Y-82759580D02*
X64558095Y-82616723D01*
X64558095Y-82616723D02*
X64605714Y-82426247D01*
X64605714Y-82426247D02*
X64605714Y-82045295D01*
X64605714Y-82045295D02*
X64558095Y-81950057D01*
X64558095Y-81950057D02*
X64510476Y-81902438D01*
X64510476Y-81902438D02*
X64415238Y-81854819D01*
X64415238Y-81854819D02*
X64224762Y-81854819D01*
X64224762Y-81854819D02*
X64129524Y-81902438D01*
X64129524Y-81902438D02*
X64081905Y-81950057D01*
X64081905Y-81950057D02*
X64034286Y-82045295D01*
X64034286Y-82045295D02*
X64034286Y-82283390D01*
X64034286Y-82283390D02*
X64081905Y-82378628D01*
X64081905Y-82378628D02*
X64129524Y-82426247D01*
X64129524Y-82426247D02*
X64224762Y-82473866D01*
X64224762Y-82473866D02*
X64415238Y-82473866D01*
X64415238Y-82473866D02*
X64510476Y-82426247D01*
X64510476Y-82426247D02*
X64558095Y-82378628D01*
X64558095Y-82378628D02*
X64605714Y-82283390D01*
X58720595Y-87024819D02*
X58720595Y-87834342D01*
X58720595Y-87834342D02*
X58768214Y-87929580D01*
X58768214Y-87929580D02*
X58815833Y-87977200D01*
X58815833Y-87977200D02*
X58911071Y-88024819D01*
X58911071Y-88024819D02*
X59101547Y-88024819D01*
X59101547Y-88024819D02*
X59196785Y-87977200D01*
X59196785Y-87977200D02*
X59244404Y-87929580D01*
X59244404Y-87929580D02*
X59292023Y-87834342D01*
X59292023Y-87834342D02*
X59292023Y-87024819D01*
X60196785Y-87358152D02*
X60196785Y-88024819D01*
X59958690Y-86977200D02*
X59720595Y-87691485D01*
X59720595Y-87691485D02*
X60339642Y-87691485D01*
X80668095Y-98434819D02*
X80668095Y-99244342D01*
X80668095Y-99244342D02*
X80715714Y-99339580D01*
X80715714Y-99339580D02*
X80763333Y-99387200D01*
X80763333Y-99387200D02*
X80858571Y-99434819D01*
X80858571Y-99434819D02*
X81049047Y-99434819D01*
X81049047Y-99434819D02*
X81144285Y-99387200D01*
X81144285Y-99387200D02*
X81191904Y-99339580D01*
X81191904Y-99339580D02*
X81239523Y-99244342D01*
X81239523Y-99244342D02*
X81239523Y-98434819D01*
X81668095Y-98530057D02*
X81715714Y-98482438D01*
X81715714Y-98482438D02*
X81810952Y-98434819D01*
X81810952Y-98434819D02*
X82049047Y-98434819D01*
X82049047Y-98434819D02*
X82144285Y-98482438D01*
X82144285Y-98482438D02*
X82191904Y-98530057D01*
X82191904Y-98530057D02*
X82239523Y-98625295D01*
X82239523Y-98625295D02*
X82239523Y-98720533D01*
X82239523Y-98720533D02*
X82191904Y-98863390D01*
X82191904Y-98863390D02*
X81620476Y-99434819D01*
X81620476Y-99434819D02*
X82239523Y-99434819D01*
X69117166Y-71831009D02*
X68783833Y-71831009D01*
X68783833Y-72354819D02*
X68783833Y-71354819D01*
X68783833Y-71354819D02*
X69260023Y-71354819D01*
X69974309Y-71831009D02*
X70117166Y-71878628D01*
X70117166Y-71878628D02*
X70164785Y-71926247D01*
X70164785Y-71926247D02*
X70212404Y-72021485D01*
X70212404Y-72021485D02*
X70212404Y-72164342D01*
X70212404Y-72164342D02*
X70164785Y-72259580D01*
X70164785Y-72259580D02*
X70117166Y-72307200D01*
X70117166Y-72307200D02*
X70021928Y-72354819D01*
X70021928Y-72354819D02*
X69640976Y-72354819D01*
X69640976Y-72354819D02*
X69640976Y-71354819D01*
X69640976Y-71354819D02*
X69974309Y-71354819D01*
X69974309Y-71354819D02*
X70069547Y-71402438D01*
X70069547Y-71402438D02*
X70117166Y-71450057D01*
X70117166Y-71450057D02*
X70164785Y-71545295D01*
X70164785Y-71545295D02*
X70164785Y-71640533D01*
X70164785Y-71640533D02*
X70117166Y-71735771D01*
X70117166Y-71735771D02*
X70069547Y-71783390D01*
X70069547Y-71783390D02*
X69974309Y-71831009D01*
X69974309Y-71831009D02*
X69640976Y-71831009D01*
X70545738Y-71354819D02*
X71164785Y-71354819D01*
X71164785Y-71354819D02*
X70831452Y-71735771D01*
X70831452Y-71735771D02*
X70974309Y-71735771D01*
X70974309Y-71735771D02*
X71069547Y-71783390D01*
X71069547Y-71783390D02*
X71117166Y-71831009D01*
X71117166Y-71831009D02*
X71164785Y-71926247D01*
X71164785Y-71926247D02*
X71164785Y-72164342D01*
X71164785Y-72164342D02*
X71117166Y-72259580D01*
X71117166Y-72259580D02*
X71069547Y-72307200D01*
X71069547Y-72307200D02*
X70974309Y-72354819D01*
X70974309Y-72354819D02*
X70688595Y-72354819D01*
X70688595Y-72354819D02*
X70593357Y-72307200D01*
X70593357Y-72307200D02*
X70545738Y-72259580D01*
X85652319Y-92572857D02*
X85176128Y-92906190D01*
X85652319Y-93144285D02*
X84652319Y-93144285D01*
X84652319Y-93144285D02*
X84652319Y-92763333D01*
X84652319Y-92763333D02*
X84699938Y-92668095D01*
X84699938Y-92668095D02*
X84747557Y-92620476D01*
X84747557Y-92620476D02*
X84842795Y-92572857D01*
X84842795Y-92572857D02*
X84985652Y-92572857D01*
X84985652Y-92572857D02*
X85080890Y-92620476D01*
X85080890Y-92620476D02*
X85128509Y-92668095D01*
X85128509Y-92668095D02*
X85176128Y-92763333D01*
X85176128Y-92763333D02*
X85176128Y-93144285D01*
X84985652Y-91715714D02*
X85652319Y-91715714D01*
X84604700Y-91953809D02*
X85318985Y-92191904D01*
X85318985Y-92191904D02*
X85318985Y-91572857D01*
X84652319Y-91001428D02*
X84652319Y-90906190D01*
X84652319Y-90906190D02*
X84699938Y-90810952D01*
X84699938Y-90810952D02*
X84747557Y-90763333D01*
X84747557Y-90763333D02*
X84842795Y-90715714D01*
X84842795Y-90715714D02*
X85033271Y-90668095D01*
X85033271Y-90668095D02*
X85271366Y-90668095D01*
X85271366Y-90668095D02*
X85461842Y-90715714D01*
X85461842Y-90715714D02*
X85557080Y-90763333D01*
X85557080Y-90763333D02*
X85604700Y-90810952D01*
X85604700Y-90810952D02*
X85652319Y-90906190D01*
X85652319Y-90906190D02*
X85652319Y-91001428D01*
X85652319Y-91001428D02*
X85604700Y-91096666D01*
X85604700Y-91096666D02*
X85557080Y-91144285D01*
X85557080Y-91144285D02*
X85461842Y-91191904D01*
X85461842Y-91191904D02*
X85271366Y-91239523D01*
X85271366Y-91239523D02*
X85033271Y-91239523D01*
X85033271Y-91239523D02*
X84842795Y-91191904D01*
X84842795Y-91191904D02*
X84747557Y-91144285D01*
X84747557Y-91144285D02*
X84699938Y-91096666D01*
X84699938Y-91096666D02*
X84652319Y-91001428D01*
X58029580Y-66582857D02*
X58077200Y-66630476D01*
X58077200Y-66630476D02*
X58124819Y-66773333D01*
X58124819Y-66773333D02*
X58124819Y-66868571D01*
X58124819Y-66868571D02*
X58077200Y-67011428D01*
X58077200Y-67011428D02*
X57981961Y-67106666D01*
X57981961Y-67106666D02*
X57886723Y-67154285D01*
X57886723Y-67154285D02*
X57696247Y-67201904D01*
X57696247Y-67201904D02*
X57553390Y-67201904D01*
X57553390Y-67201904D02*
X57362914Y-67154285D01*
X57362914Y-67154285D02*
X57267676Y-67106666D01*
X57267676Y-67106666D02*
X57172438Y-67011428D01*
X57172438Y-67011428D02*
X57124819Y-66868571D01*
X57124819Y-66868571D02*
X57124819Y-66773333D01*
X57124819Y-66773333D02*
X57172438Y-66630476D01*
X57172438Y-66630476D02*
X57220057Y-66582857D01*
X57220057Y-66201904D02*
X57172438Y-66154285D01*
X57172438Y-66154285D02*
X57124819Y-66059047D01*
X57124819Y-66059047D02*
X57124819Y-65820952D01*
X57124819Y-65820952D02*
X57172438Y-65725714D01*
X57172438Y-65725714D02*
X57220057Y-65678095D01*
X57220057Y-65678095D02*
X57315295Y-65630476D01*
X57315295Y-65630476D02*
X57410533Y-65630476D01*
X57410533Y-65630476D02*
X57553390Y-65678095D01*
X57553390Y-65678095D02*
X58124819Y-66249523D01*
X58124819Y-66249523D02*
X58124819Y-65630476D01*
X57124819Y-65297142D02*
X57124819Y-64630476D01*
X57124819Y-64630476D02*
X58124819Y-65059047D01*
X74328595Y-68084819D02*
X74328595Y-68894342D01*
X74328595Y-68894342D02*
X74376214Y-68989580D01*
X74376214Y-68989580D02*
X74423833Y-69037200D01*
X74423833Y-69037200D02*
X74519071Y-69084819D01*
X74519071Y-69084819D02*
X74709547Y-69084819D01*
X74709547Y-69084819D02*
X74804785Y-69037200D01*
X74804785Y-69037200D02*
X74852404Y-68989580D01*
X74852404Y-68989580D02*
X74900023Y-68894342D01*
X74900023Y-68894342D02*
X74900023Y-68084819D01*
X75900023Y-69084819D02*
X75328595Y-69084819D01*
X75614309Y-69084819D02*
X75614309Y-68084819D01*
X75614309Y-68084819D02*
X75519071Y-68227676D01*
X75519071Y-68227676D02*
X75423833Y-68322914D01*
X75423833Y-68322914D02*
X75328595Y-68370533D01*
X81433333Y-106754819D02*
X81100000Y-106278628D01*
X80861905Y-106754819D02*
X80861905Y-105754819D01*
X80861905Y-105754819D02*
X81242857Y-105754819D01*
X81242857Y-105754819D02*
X81338095Y-105802438D01*
X81338095Y-105802438D02*
X81385714Y-105850057D01*
X81385714Y-105850057D02*
X81433333Y-105945295D01*
X81433333Y-105945295D02*
X81433333Y-106088152D01*
X81433333Y-106088152D02*
X81385714Y-106183390D01*
X81385714Y-106183390D02*
X81338095Y-106231009D01*
X81338095Y-106231009D02*
X81242857Y-106278628D01*
X81242857Y-106278628D02*
X80861905Y-106278628D01*
X81814286Y-105850057D02*
X81861905Y-105802438D01*
X81861905Y-105802438D02*
X81957143Y-105754819D01*
X81957143Y-105754819D02*
X82195238Y-105754819D01*
X82195238Y-105754819D02*
X82290476Y-105802438D01*
X82290476Y-105802438D02*
X82338095Y-105850057D01*
X82338095Y-105850057D02*
X82385714Y-105945295D01*
X82385714Y-105945295D02*
X82385714Y-106040533D01*
X82385714Y-106040533D02*
X82338095Y-106183390D01*
X82338095Y-106183390D02*
X81766667Y-106754819D01*
X81766667Y-106754819D02*
X82385714Y-106754819D01*
X78443809Y-82538628D02*
X78443809Y-83014819D01*
X78110476Y-82014819D02*
X78443809Y-82538628D01*
X78443809Y-82538628D02*
X78777142Y-82014819D01*
X79634285Y-83014819D02*
X79062857Y-83014819D01*
X79348571Y-83014819D02*
X79348571Y-82014819D01*
X79348571Y-82014819D02*
X79253333Y-82157676D01*
X79253333Y-82157676D02*
X79158095Y-82252914D01*
X79158095Y-82252914D02*
X79062857Y-82300533D01*
X76800080Y-63492857D02*
X76847700Y-63540476D01*
X76847700Y-63540476D02*
X76895319Y-63683333D01*
X76895319Y-63683333D02*
X76895319Y-63778571D01*
X76895319Y-63778571D02*
X76847700Y-63921428D01*
X76847700Y-63921428D02*
X76752461Y-64016666D01*
X76752461Y-64016666D02*
X76657223Y-64064285D01*
X76657223Y-64064285D02*
X76466747Y-64111904D01*
X76466747Y-64111904D02*
X76323890Y-64111904D01*
X76323890Y-64111904D02*
X76133414Y-64064285D01*
X76133414Y-64064285D02*
X76038176Y-64016666D01*
X76038176Y-64016666D02*
X75942938Y-63921428D01*
X75942938Y-63921428D02*
X75895319Y-63778571D01*
X75895319Y-63778571D02*
X75895319Y-63683333D01*
X75895319Y-63683333D02*
X75942938Y-63540476D01*
X75942938Y-63540476D02*
X75990557Y-63492857D01*
X76895319Y-62540476D02*
X76895319Y-63111904D01*
X76895319Y-62826190D02*
X75895319Y-62826190D01*
X75895319Y-62826190D02*
X76038176Y-62921428D01*
X76038176Y-62921428D02*
X76133414Y-63016666D01*
X76133414Y-63016666D02*
X76181033Y-63111904D01*
X75895319Y-62207142D02*
X75895319Y-61540476D01*
X75895319Y-61540476D02*
X76895319Y-61969047D01*
X66693833Y-64284819D02*
X66360500Y-63808628D01*
X66122405Y-64284819D02*
X66122405Y-63284819D01*
X66122405Y-63284819D02*
X66503357Y-63284819D01*
X66503357Y-63284819D02*
X66598595Y-63332438D01*
X66598595Y-63332438D02*
X66646214Y-63380057D01*
X66646214Y-63380057D02*
X66693833Y-63475295D01*
X66693833Y-63475295D02*
X66693833Y-63618152D01*
X66693833Y-63618152D02*
X66646214Y-63713390D01*
X66646214Y-63713390D02*
X66598595Y-63761009D01*
X66598595Y-63761009D02*
X66503357Y-63808628D01*
X66503357Y-63808628D02*
X66122405Y-63808628D01*
X67550976Y-63284819D02*
X67360500Y-63284819D01*
X67360500Y-63284819D02*
X67265262Y-63332438D01*
X67265262Y-63332438D02*
X67217643Y-63380057D01*
X67217643Y-63380057D02*
X67122405Y-63522914D01*
X67122405Y-63522914D02*
X67074786Y-63713390D01*
X67074786Y-63713390D02*
X67074786Y-64094342D01*
X67074786Y-64094342D02*
X67122405Y-64189580D01*
X67122405Y-64189580D02*
X67170024Y-64237200D01*
X67170024Y-64237200D02*
X67265262Y-64284819D01*
X67265262Y-64284819D02*
X67455738Y-64284819D01*
X67455738Y-64284819D02*
X67550976Y-64237200D01*
X67550976Y-64237200D02*
X67598595Y-64189580D01*
X67598595Y-64189580D02*
X67646214Y-64094342D01*
X67646214Y-64094342D02*
X67646214Y-63856247D01*
X67646214Y-63856247D02*
X67598595Y-63761009D01*
X67598595Y-63761009D02*
X67550976Y-63713390D01*
X67550976Y-63713390D02*
X67455738Y-63665771D01*
X67455738Y-63665771D02*
X67265262Y-63665771D01*
X67265262Y-63665771D02*
X67170024Y-63713390D01*
X67170024Y-63713390D02*
X67122405Y-63761009D01*
X67122405Y-63761009D02*
X67074786Y-63856247D01*
X73855209Y-65336120D02*
X73619507Y-65100418D01*
X73249118Y-65470807D02*
X73956225Y-64763700D01*
X73956225Y-64763700D02*
X74292942Y-65100418D01*
X74461301Y-65942212D02*
X74528645Y-66076899D01*
X74528645Y-66076899D02*
X74528645Y-66144242D01*
X74528645Y-66144242D02*
X74494973Y-66245258D01*
X74494973Y-66245258D02*
X74393958Y-66346273D01*
X74393958Y-66346273D02*
X74292942Y-66379945D01*
X74292942Y-66379945D02*
X74225599Y-66379945D01*
X74225599Y-66379945D02*
X74124584Y-66346273D01*
X74124584Y-66346273D02*
X73855210Y-66076899D01*
X73855210Y-66076899D02*
X74562316Y-65369792D01*
X74562316Y-65369792D02*
X74798019Y-65605494D01*
X74798019Y-65605494D02*
X74831690Y-65706510D01*
X74831690Y-65706510D02*
X74831690Y-65773853D01*
X74831690Y-65773853D02*
X74798019Y-65874868D01*
X74798019Y-65874868D02*
X74730675Y-65942212D01*
X74730675Y-65942212D02*
X74629660Y-65975884D01*
X74629660Y-65975884D02*
X74562316Y-65975884D01*
X74562316Y-65975884D02*
X74461301Y-65942212D01*
X74461301Y-65942212D02*
X74225599Y-65706510D01*
X75168408Y-66110571D02*
X75235751Y-66110571D01*
X75235751Y-66110571D02*
X75336767Y-66144242D01*
X75336767Y-66144242D02*
X75505125Y-66312601D01*
X75505125Y-66312601D02*
X75538797Y-66413616D01*
X75538797Y-66413616D02*
X75538797Y-66480960D01*
X75538797Y-66480960D02*
X75505125Y-66581975D01*
X75505125Y-66581975D02*
X75437782Y-66649319D01*
X75437782Y-66649319D02*
X75303095Y-66716662D01*
X75303095Y-66716662D02*
X74494973Y-66716662D01*
X74494973Y-66716662D02*
X74932706Y-67154395D01*
X85617319Y-88742857D02*
X85141128Y-89076190D01*
X85617319Y-89314285D02*
X84617319Y-89314285D01*
X84617319Y-89314285D02*
X84617319Y-88933333D01*
X84617319Y-88933333D02*
X84664938Y-88838095D01*
X84664938Y-88838095D02*
X84712557Y-88790476D01*
X84712557Y-88790476D02*
X84807795Y-88742857D01*
X84807795Y-88742857D02*
X84950652Y-88742857D01*
X84950652Y-88742857D02*
X85045890Y-88790476D01*
X85045890Y-88790476D02*
X85093509Y-88838095D01*
X85093509Y-88838095D02*
X85141128Y-88933333D01*
X85141128Y-88933333D02*
X85141128Y-89314285D01*
X85617319Y-87790476D02*
X85617319Y-88361904D01*
X85617319Y-88076190D02*
X84617319Y-88076190D01*
X84617319Y-88076190D02*
X84760176Y-88171428D01*
X84760176Y-88171428D02*
X84855414Y-88266666D01*
X84855414Y-88266666D02*
X84903033Y-88361904D01*
X84712557Y-87409523D02*
X84664938Y-87361904D01*
X84664938Y-87361904D02*
X84617319Y-87266666D01*
X84617319Y-87266666D02*
X84617319Y-87028571D01*
X84617319Y-87028571D02*
X84664938Y-86933333D01*
X84664938Y-86933333D02*
X84712557Y-86885714D01*
X84712557Y-86885714D02*
X84807795Y-86838095D01*
X84807795Y-86838095D02*
X84903033Y-86838095D01*
X84903033Y-86838095D02*
X85045890Y-86885714D01*
X85045890Y-86885714D02*
X85617319Y-87457142D01*
X85617319Y-87457142D02*
X85617319Y-86838095D01*
X59727642Y-76474819D02*
X59394309Y-75998628D01*
X59156214Y-76474819D02*
X59156214Y-75474819D01*
X59156214Y-75474819D02*
X59537166Y-75474819D01*
X59537166Y-75474819D02*
X59632404Y-75522438D01*
X59632404Y-75522438D02*
X59680023Y-75570057D01*
X59680023Y-75570057D02*
X59727642Y-75665295D01*
X59727642Y-75665295D02*
X59727642Y-75808152D01*
X59727642Y-75808152D02*
X59680023Y-75903390D01*
X59680023Y-75903390D02*
X59632404Y-75951009D01*
X59632404Y-75951009D02*
X59537166Y-75998628D01*
X59537166Y-75998628D02*
X59156214Y-75998628D01*
X60680023Y-76474819D02*
X60108595Y-76474819D01*
X60394309Y-76474819D02*
X60394309Y-75474819D01*
X60394309Y-75474819D02*
X60299071Y-75617676D01*
X60299071Y-75617676D02*
X60203833Y-75712914D01*
X60203833Y-75712914D02*
X60108595Y-75760533D01*
X61537166Y-75808152D02*
X61537166Y-76474819D01*
X61299071Y-75427200D02*
X61060976Y-76141485D01*
X61060976Y-76141485D02*
X61680023Y-76141485D01*
X67859580Y-97542857D02*
X67907200Y-97590476D01*
X67907200Y-97590476D02*
X67954819Y-97733333D01*
X67954819Y-97733333D02*
X67954819Y-97828571D01*
X67954819Y-97828571D02*
X67907200Y-97971428D01*
X67907200Y-97971428D02*
X67811961Y-98066666D01*
X67811961Y-98066666D02*
X67716723Y-98114285D01*
X67716723Y-98114285D02*
X67526247Y-98161904D01*
X67526247Y-98161904D02*
X67383390Y-98161904D01*
X67383390Y-98161904D02*
X67192914Y-98114285D01*
X67192914Y-98114285D02*
X67097676Y-98066666D01*
X67097676Y-98066666D02*
X67002438Y-97971428D01*
X67002438Y-97971428D02*
X66954819Y-97828571D01*
X66954819Y-97828571D02*
X66954819Y-97733333D01*
X66954819Y-97733333D02*
X67002438Y-97590476D01*
X67002438Y-97590476D02*
X67050057Y-97542857D01*
X67954819Y-96590476D02*
X67954819Y-97161904D01*
X67954819Y-96876190D02*
X66954819Y-96876190D01*
X66954819Y-96876190D02*
X67097676Y-96971428D01*
X67097676Y-96971428D02*
X67192914Y-97066666D01*
X67192914Y-97066666D02*
X67240533Y-97161904D01*
X67050057Y-96209523D02*
X67002438Y-96161904D01*
X67002438Y-96161904D02*
X66954819Y-96066666D01*
X66954819Y-96066666D02*
X66954819Y-95828571D01*
X66954819Y-95828571D02*
X67002438Y-95733333D01*
X67002438Y-95733333D02*
X67050057Y-95685714D01*
X67050057Y-95685714D02*
X67145295Y-95638095D01*
X67145295Y-95638095D02*
X67240533Y-95638095D01*
X67240533Y-95638095D02*
X67383390Y-95685714D01*
X67383390Y-95685714D02*
X67954819Y-96257142D01*
X67954819Y-96257142D02*
X67954819Y-95638095D01*
D14*
X56027618Y-108804318D02*
X56027618Y-109832413D01*
X56027618Y-109832413D02*
X56088095Y-109953365D01*
X56088095Y-109953365D02*
X56148571Y-110013842D01*
X56148571Y-110013842D02*
X56269523Y-110074318D01*
X56269523Y-110074318D02*
X56511428Y-110074318D01*
X56511428Y-110074318D02*
X56632380Y-110013842D01*
X56632380Y-110013842D02*
X56692857Y-109953365D01*
X56692857Y-109953365D02*
X56753333Y-109832413D01*
X56753333Y-109832413D02*
X56753333Y-108804318D01*
X58023333Y-110074318D02*
X57297618Y-110074318D01*
X57660475Y-110074318D02*
X57660475Y-108804318D01*
X57660475Y-108804318D02*
X57539523Y-108985746D01*
X57539523Y-108985746D02*
X57418571Y-109106699D01*
X57418571Y-109106699D02*
X57297618Y-109167175D01*
X59111904Y-108804318D02*
X58869999Y-108804318D01*
X58869999Y-108804318D02*
X58749047Y-108864794D01*
X58749047Y-108864794D02*
X58688571Y-108925270D01*
X58688571Y-108925270D02*
X58567618Y-109106699D01*
X58567618Y-109106699D02*
X58507142Y-109348603D01*
X58507142Y-109348603D02*
X58507142Y-109832413D01*
X58507142Y-109832413D02*
X58567618Y-109953365D01*
X58567618Y-109953365D02*
X58628095Y-110013842D01*
X58628095Y-110013842D02*
X58749047Y-110074318D01*
X58749047Y-110074318D02*
X58990952Y-110074318D01*
X58990952Y-110074318D02*
X59111904Y-110013842D01*
X59111904Y-110013842D02*
X59172380Y-109953365D01*
X59172380Y-109953365D02*
X59232857Y-109832413D01*
X59232857Y-109832413D02*
X59232857Y-109530032D01*
X59232857Y-109530032D02*
X59172380Y-109409080D01*
X59172380Y-109409080D02*
X59111904Y-109348603D01*
X59111904Y-109348603D02*
X58990952Y-109288127D01*
X58990952Y-109288127D02*
X58749047Y-109288127D01*
X58749047Y-109288127D02*
X58628095Y-109348603D01*
X58628095Y-109348603D02*
X58567618Y-109409080D01*
X58567618Y-109409080D02*
X58507142Y-109530032D01*
D11*
X71063833Y-63309580D02*
X71016214Y-63357200D01*
X71016214Y-63357200D02*
X70873357Y-63404819D01*
X70873357Y-63404819D02*
X70778119Y-63404819D01*
X70778119Y-63404819D02*
X70635262Y-63357200D01*
X70635262Y-63357200D02*
X70540024Y-63261961D01*
X70540024Y-63261961D02*
X70492405Y-63166723D01*
X70492405Y-63166723D02*
X70444786Y-62976247D01*
X70444786Y-62976247D02*
X70444786Y-62833390D01*
X70444786Y-62833390D02*
X70492405Y-62642914D01*
X70492405Y-62642914D02*
X70540024Y-62547676D01*
X70540024Y-62547676D02*
X70635262Y-62452438D01*
X70635262Y-62452438D02*
X70778119Y-62404819D01*
X70778119Y-62404819D02*
X70873357Y-62404819D01*
X70873357Y-62404819D02*
X71016214Y-62452438D01*
X71016214Y-62452438D02*
X71063833Y-62500057D01*
X72016214Y-63404819D02*
X71444786Y-63404819D01*
X71730500Y-63404819D02*
X71730500Y-62404819D01*
X71730500Y-62404819D02*
X71635262Y-62547676D01*
X71635262Y-62547676D02*
X71540024Y-62642914D01*
X71540024Y-62642914D02*
X71444786Y-62690533D01*
X32459455Y-63286951D02*
X31752348Y-62579844D01*
X32089066Y-62916562D02*
X32493127Y-62512501D01*
X32863516Y-62882890D02*
X32156409Y-62175783D01*
X33570623Y-62175783D02*
X33166562Y-62579844D01*
X33368592Y-62377814D02*
X32661486Y-61670707D01*
X32661486Y-61670707D02*
X32695157Y-61839066D01*
X32695157Y-61839066D02*
X32695157Y-61973753D01*
X32695157Y-61973753D02*
X32661486Y-62074768D01*
D15*
X58761905Y-59707419D02*
X58761905Y-58707419D01*
X58761905Y-58707419D02*
X59000000Y-58707419D01*
X59000000Y-58707419D02*
X59142857Y-58755038D01*
X59142857Y-58755038D02*
X59238095Y-58850276D01*
X59238095Y-58850276D02*
X59285714Y-58945514D01*
X59285714Y-58945514D02*
X59333333Y-59135990D01*
X59333333Y-59135990D02*
X59333333Y-59278847D01*
X59333333Y-59278847D02*
X59285714Y-59469323D01*
X59285714Y-59469323D02*
X59238095Y-59564561D01*
X59238095Y-59564561D02*
X59142857Y-59659800D01*
X59142857Y-59659800D02*
X59000000Y-59707419D01*
X59000000Y-59707419D02*
X58761905Y-59707419D01*
X60285714Y-59707419D02*
X59714286Y-59707419D01*
X60000000Y-59707419D02*
X60000000Y-58707419D01*
X60000000Y-58707419D02*
X59904762Y-58850276D01*
X59904762Y-58850276D02*
X59809524Y-58945514D01*
X59809524Y-58945514D02*
X59714286Y-58993133D01*
D11*
X76803333Y-107959580D02*
X76755714Y-108007200D01*
X76755714Y-108007200D02*
X76612857Y-108054819D01*
X76612857Y-108054819D02*
X76517619Y-108054819D01*
X76517619Y-108054819D02*
X76374762Y-108007200D01*
X76374762Y-108007200D02*
X76279524Y-107911961D01*
X76279524Y-107911961D02*
X76231905Y-107816723D01*
X76231905Y-107816723D02*
X76184286Y-107626247D01*
X76184286Y-107626247D02*
X76184286Y-107483390D01*
X76184286Y-107483390D02*
X76231905Y-107292914D01*
X76231905Y-107292914D02*
X76279524Y-107197676D01*
X76279524Y-107197676D02*
X76374762Y-107102438D01*
X76374762Y-107102438D02*
X76517619Y-107054819D01*
X76517619Y-107054819D02*
X76612857Y-107054819D01*
X76612857Y-107054819D02*
X76755714Y-107102438D01*
X76755714Y-107102438D02*
X76803333Y-107150057D01*
X77708095Y-107054819D02*
X77231905Y-107054819D01*
X77231905Y-107054819D02*
X77184286Y-107531009D01*
X77184286Y-107531009D02*
X77231905Y-107483390D01*
X77231905Y-107483390D02*
X77327143Y-107435771D01*
X77327143Y-107435771D02*
X77565238Y-107435771D01*
X77565238Y-107435771D02*
X77660476Y-107483390D01*
X77660476Y-107483390D02*
X77708095Y-107531009D01*
X77708095Y-107531009D02*
X77755714Y-107626247D01*
X77755714Y-107626247D02*
X77755714Y-107864342D01*
X77755714Y-107864342D02*
X77708095Y-107959580D01*
X77708095Y-107959580D02*
X77660476Y-108007200D01*
X77660476Y-108007200D02*
X77565238Y-108054819D01*
X77565238Y-108054819D02*
X77327143Y-108054819D01*
X77327143Y-108054819D02*
X77231905Y-108007200D01*
X77231905Y-108007200D02*
X77184286Y-107959580D01*
X58029580Y-69732857D02*
X58077200Y-69780476D01*
X58077200Y-69780476D02*
X58124819Y-69923333D01*
X58124819Y-69923333D02*
X58124819Y-70018571D01*
X58124819Y-70018571D02*
X58077200Y-70161428D01*
X58077200Y-70161428D02*
X57981961Y-70256666D01*
X57981961Y-70256666D02*
X57886723Y-70304285D01*
X57886723Y-70304285D02*
X57696247Y-70351904D01*
X57696247Y-70351904D02*
X57553390Y-70351904D01*
X57553390Y-70351904D02*
X57362914Y-70304285D01*
X57362914Y-70304285D02*
X57267676Y-70256666D01*
X57267676Y-70256666D02*
X57172438Y-70161428D01*
X57172438Y-70161428D02*
X57124819Y-70018571D01*
X57124819Y-70018571D02*
X57124819Y-69923333D01*
X57124819Y-69923333D02*
X57172438Y-69780476D01*
X57172438Y-69780476D02*
X57220057Y-69732857D01*
X57220057Y-69351904D02*
X57172438Y-69304285D01*
X57172438Y-69304285D02*
X57124819Y-69209047D01*
X57124819Y-69209047D02*
X57124819Y-68970952D01*
X57124819Y-68970952D02*
X57172438Y-68875714D01*
X57172438Y-68875714D02*
X57220057Y-68828095D01*
X57220057Y-68828095D02*
X57315295Y-68780476D01*
X57315295Y-68780476D02*
X57410533Y-68780476D01*
X57410533Y-68780476D02*
X57553390Y-68828095D01*
X57553390Y-68828095D02*
X58124819Y-69399523D01*
X58124819Y-69399523D02*
X58124819Y-68780476D01*
X57124819Y-67923333D02*
X57124819Y-68113809D01*
X57124819Y-68113809D02*
X57172438Y-68209047D01*
X57172438Y-68209047D02*
X57220057Y-68256666D01*
X57220057Y-68256666D02*
X57362914Y-68351904D01*
X57362914Y-68351904D02*
X57553390Y-68399523D01*
X57553390Y-68399523D02*
X57934342Y-68399523D01*
X57934342Y-68399523D02*
X58029580Y-68351904D01*
X58029580Y-68351904D02*
X58077200Y-68304285D01*
X58077200Y-68304285D02*
X58124819Y-68209047D01*
X58124819Y-68209047D02*
X58124819Y-68018571D01*
X58124819Y-68018571D02*
X58077200Y-67923333D01*
X58077200Y-67923333D02*
X58029580Y-67875714D01*
X58029580Y-67875714D02*
X57934342Y-67828095D01*
X57934342Y-67828095D02*
X57696247Y-67828095D01*
X57696247Y-67828095D02*
X57601009Y-67875714D01*
X57601009Y-67875714D02*
X57553390Y-67923333D01*
X57553390Y-67923333D02*
X57505771Y-68018571D01*
X57505771Y-68018571D02*
X57505771Y-68209047D01*
X57505771Y-68209047D02*
X57553390Y-68304285D01*
X57553390Y-68304285D02*
X57601009Y-68351904D01*
X57601009Y-68351904D02*
X57696247Y-68399523D01*
X55624819Y-64506666D02*
X55624819Y-64982856D01*
X55624819Y-64982856D02*
X54624819Y-64982856D01*
X54624819Y-63744761D02*
X54624819Y-63935237D01*
X54624819Y-63935237D02*
X54672438Y-64030475D01*
X54672438Y-64030475D02*
X54720057Y-64078094D01*
X54720057Y-64078094D02*
X54862914Y-64173332D01*
X54862914Y-64173332D02*
X55053390Y-64220951D01*
X55053390Y-64220951D02*
X55434342Y-64220951D01*
X55434342Y-64220951D02*
X55529580Y-64173332D01*
X55529580Y-64173332D02*
X55577200Y-64125713D01*
X55577200Y-64125713D02*
X55624819Y-64030475D01*
X55624819Y-64030475D02*
X55624819Y-63839999D01*
X55624819Y-63839999D02*
X55577200Y-63744761D01*
X55577200Y-63744761D02*
X55529580Y-63697142D01*
X55529580Y-63697142D02*
X55434342Y-63649523D01*
X55434342Y-63649523D02*
X55196247Y-63649523D01*
X55196247Y-63649523D02*
X55101009Y-63697142D01*
X55101009Y-63697142D02*
X55053390Y-63744761D01*
X55053390Y-63744761D02*
X55005771Y-63839999D01*
X55005771Y-63839999D02*
X55005771Y-64030475D01*
X55005771Y-64030475D02*
X55053390Y-64125713D01*
X55053390Y-64125713D02*
X55101009Y-64173332D01*
X55101009Y-64173332D02*
X55196247Y-64220951D01*
X58254819Y-97338094D02*
X59064342Y-97338094D01*
X59064342Y-97338094D02*
X59159580Y-97290475D01*
X59159580Y-97290475D02*
X59207200Y-97242856D01*
X59207200Y-97242856D02*
X59254819Y-97147618D01*
X59254819Y-97147618D02*
X59254819Y-96957142D01*
X59254819Y-96957142D02*
X59207200Y-96861904D01*
X59207200Y-96861904D02*
X59159580Y-96814285D01*
X59159580Y-96814285D02*
X59064342Y-96766666D01*
X59064342Y-96766666D02*
X58254819Y-96766666D01*
X59254819Y-95766666D02*
X59254819Y-96338094D01*
X59254819Y-96052380D02*
X58254819Y-96052380D01*
X58254819Y-96052380D02*
X58397676Y-96147618D01*
X58397676Y-96147618D02*
X58492914Y-96242856D01*
X58492914Y-96242856D02*
X58540533Y-96338094D01*
X59254819Y-95290475D02*
X59254819Y-95099999D01*
X59254819Y-95099999D02*
X59207200Y-95004761D01*
X59207200Y-95004761D02*
X59159580Y-94957142D01*
X59159580Y-94957142D02*
X59016723Y-94861904D01*
X59016723Y-94861904D02*
X58826247Y-94814285D01*
X58826247Y-94814285D02*
X58445295Y-94814285D01*
X58445295Y-94814285D02*
X58350057Y-94861904D01*
X58350057Y-94861904D02*
X58302438Y-94909523D01*
X58302438Y-94909523D02*
X58254819Y-95004761D01*
X58254819Y-95004761D02*
X58254819Y-95195237D01*
X58254819Y-95195237D02*
X58302438Y-95290475D01*
X58302438Y-95290475D02*
X58350057Y-95338094D01*
X58350057Y-95338094D02*
X58445295Y-95385713D01*
X58445295Y-95385713D02*
X58683390Y-95385713D01*
X58683390Y-95385713D02*
X58778628Y-95338094D01*
X58778628Y-95338094D02*
X58826247Y-95290475D01*
X58826247Y-95290475D02*
X58873866Y-95195237D01*
X58873866Y-95195237D02*
X58873866Y-95004761D01*
X58873866Y-95004761D02*
X58826247Y-94909523D01*
X58826247Y-94909523D02*
X58778628Y-94861904D01*
X58778628Y-94861904D02*
X58683390Y-94814285D01*
X65524405Y-99304819D02*
X65524405Y-100114342D01*
X65524405Y-100114342D02*
X65572024Y-100209580D01*
X65572024Y-100209580D02*
X65619643Y-100257200D01*
X65619643Y-100257200D02*
X65714881Y-100304819D01*
X65714881Y-100304819D02*
X65905357Y-100304819D01*
X65905357Y-100304819D02*
X66000595Y-100257200D01*
X66000595Y-100257200D02*
X66048214Y-100209580D01*
X66048214Y-100209580D02*
X66095833Y-100114342D01*
X66095833Y-100114342D02*
X66095833Y-99304819D01*
X67095833Y-100304819D02*
X66524405Y-100304819D01*
X66810119Y-100304819D02*
X66810119Y-99304819D01*
X66810119Y-99304819D02*
X66714881Y-99447676D01*
X66714881Y-99447676D02*
X66619643Y-99542914D01*
X66619643Y-99542914D02*
X66524405Y-99590533D01*
X68000595Y-99304819D02*
X67524405Y-99304819D01*
X67524405Y-99304819D02*
X67476786Y-99781009D01*
X67476786Y-99781009D02*
X67524405Y-99733390D01*
X67524405Y-99733390D02*
X67619643Y-99685771D01*
X67619643Y-99685771D02*
X67857738Y-99685771D01*
X67857738Y-99685771D02*
X67952976Y-99733390D01*
X67952976Y-99733390D02*
X68000595Y-99781009D01*
X68000595Y-99781009D02*
X68048214Y-99876247D01*
X68048214Y-99876247D02*
X68048214Y-100114342D01*
X68048214Y-100114342D02*
X68000595Y-100209580D01*
X68000595Y-100209580D02*
X67952976Y-100257200D01*
X67952976Y-100257200D02*
X67857738Y-100304819D01*
X67857738Y-100304819D02*
X67619643Y-100304819D01*
X67619643Y-100304819D02*
X67524405Y-100257200D01*
X67524405Y-100257200D02*
X67476786Y-100209580D01*
D10*
X57853641Y-98820000D02*
X57546359Y-98820000D01*
X57853641Y-99580000D02*
X57546359Y-99580000D01*
D15*
X89237500Y-98200000D02*
G75*
G02*
X89237500Y-100200000I0J-1000000D01*
G01*
D10*
X72720500Y-62712164D02*
X72720500Y-62927836D01*
X73440500Y-62712164D02*
X73440500Y-62927836D01*
X66840235Y-116679348D02*
X67592497Y-118292577D01*
X67328175Y-113229955D02*
X66603128Y-113568051D01*
X75359529Y-112706736D02*
X76111788Y-114319965D01*
X67540500Y-72757836D02*
X67540500Y-72542164D01*
X68260500Y-72757836D02*
X68260500Y-72542164D01*
X65200500Y-72717836D02*
X65200500Y-72502164D01*
X65920500Y-72717836D02*
X65920500Y-72502164D01*
X64788336Y-87690000D02*
X64572664Y-87690000D01*
X64788336Y-88410000D02*
X64572664Y-88410000D01*
X63620000Y-105946359D02*
X63620000Y-106253641D01*
X64380000Y-105946359D02*
X64380000Y-106253641D01*
D16*
G36*
X28243107Y-80713909D02*
G01*
X28236861Y-80745956D01*
X28225412Y-80808030D01*
X28209805Y-80894332D01*
X28191083Y-80999067D01*
X28170292Y-81116437D01*
X28158616Y-81182777D01*
X28135312Y-81314921D01*
X28111803Y-81447201D01*
X28089576Y-81571323D01*
X28070119Y-81678994D01*
X28054919Y-81761921D01*
X28051028Y-81782777D01*
X28034597Y-81874360D01*
X28019436Y-81966096D01*
X28007902Y-82043435D01*
X28004452Y-82070267D01*
X27994419Y-82128089D01*
X27981212Y-82169105D01*
X27970743Y-82182443D01*
X27943329Y-82186932D01*
X27890167Y-82192892D01*
X27821800Y-82199166D01*
X27808169Y-82200281D01*
X27734333Y-82204936D01*
X27689180Y-82203852D01*
X27665344Y-82196268D01*
X27656524Y-82184627D01*
X27657217Y-82161192D01*
X27663653Y-82106026D01*
X27675215Y-82023202D01*
X27691285Y-81916793D01*
X27711245Y-81790870D01*
X27734476Y-81649508D01*
X27760360Y-81496778D01*
X27764940Y-81470208D01*
X27791740Y-81314536D01*
X27816716Y-81168365D01*
X27839148Y-81035988D01*
X27858319Y-80921696D01*
X27873508Y-80829780D01*
X27883996Y-80764532D01*
X27889064Y-80730242D01*
X27889292Y-80728231D01*
X27894865Y-80673686D01*
X28074517Y-80668455D01*
X28254169Y-80663224D01*
X28243107Y-80713909D01*
G37*
G36*
X30389976Y-80660063D02*
G01*
X30420195Y-80661100D01*
X30580195Y-80667312D01*
X30537364Y-80743226D01*
X30514535Y-80783268D01*
X30477253Y-80848179D01*
X30429316Y-80931368D01*
X30374520Y-81026247D01*
X30320765Y-81119140D01*
X30236702Y-81265032D01*
X30169091Y-81385043D01*
X30115712Y-81484503D01*
X30074347Y-81568743D01*
X30042775Y-81643093D01*
X30018778Y-81712886D01*
X30000136Y-81783450D01*
X29984629Y-81860117D01*
X29970037Y-81948217D01*
X29966780Y-81969336D01*
X29953179Y-82050925D01*
X29939637Y-82119741D01*
X29927922Y-82167427D01*
X29921181Y-82184595D01*
X29897107Y-82193512D01*
X29847728Y-82199905D01*
X29783441Y-82203624D01*
X29714643Y-82204515D01*
X29651731Y-82202425D01*
X29605101Y-82197203D01*
X29585531Y-82189516D01*
X29585493Y-82163021D01*
X29594019Y-82141174D01*
X29608717Y-82099166D01*
X29624509Y-82030541D01*
X29639887Y-81944953D01*
X29653345Y-81852058D01*
X29663373Y-81761509D01*
X29668464Y-81682961D01*
X29668804Y-81662385D01*
X29663500Y-81587989D01*
X29647836Y-81481498D01*
X29622260Y-81345542D01*
X29587223Y-81182747D01*
X29584669Y-81171476D01*
X29558705Y-81055796D01*
X29535124Y-80948063D01*
X29515309Y-80854815D01*
X29500645Y-80782587D01*
X29492515Y-80737918D01*
X29491784Y-80732777D01*
X29483091Y-80664595D01*
X29655757Y-80664595D01*
X29828422Y-80664595D01*
X29840356Y-80769140D01*
X29849643Y-80844498D01*
X29861342Y-80930695D01*
X29874294Y-81020215D01*
X29887341Y-81105538D01*
X29899327Y-81179148D01*
X29909095Y-81233527D01*
X29915486Y-81261156D01*
X29916377Y-81262959D01*
X29926069Y-81249834D01*
X29948811Y-81208838D01*
X29982022Y-81144937D01*
X30023120Y-81063097D01*
X30068943Y-80969483D01*
X30116414Y-80873465D01*
X30159931Y-80789362D01*
X30196588Y-80722484D01*
X30223476Y-80678143D01*
X30237366Y-80661720D01*
X30265002Y-80659310D01*
X30319150Y-80658746D01*
X30389976Y-80660063D01*
G37*
G36*
X29149187Y-80665300D02*
G01*
X29214085Y-80667211D01*
X29256193Y-80670024D01*
X29268575Y-80672893D01*
X29258073Y-80689331D01*
X29228948Y-80729755D01*
X29184776Y-80789335D01*
X29129130Y-80863243D01*
X29076809Y-80931984D01*
X28885044Y-81182777D01*
X28981287Y-81192429D01*
X29086719Y-81214715D01*
X29165616Y-81259779D01*
X29221817Y-81331027D01*
X29259166Y-81431867D01*
X29261325Y-81440761D01*
X29278872Y-81527991D01*
X29284371Y-81600754D01*
X29277063Y-81672755D01*
X29256190Y-81757698D01*
X29241021Y-81807436D01*
X29181679Y-81943487D01*
X29099328Y-82055212D01*
X28997649Y-82140292D01*
X28880322Y-82196412D01*
X28751027Y-82221255D01*
X28613444Y-82212504D01*
X28601305Y-82210100D01*
X28482802Y-82170151D01*
X28390631Y-82105181D01*
X28329511Y-82021685D01*
X28526422Y-82021685D01*
X28528209Y-82025864D01*
X28537907Y-82021310D01*
X28542519Y-82018579D01*
X28566476Y-82002812D01*
X28613728Y-81970608D01*
X28677786Y-81926424D01*
X28752162Y-81874716D01*
X28764244Y-81866282D01*
X28843555Y-81810557D01*
X28896747Y-81771521D01*
X28927618Y-81745163D01*
X28939966Y-81727471D01*
X28937590Y-81714433D01*
X28924288Y-81702039D01*
X28921651Y-81700037D01*
X28882889Y-81670820D01*
X28948368Y-81540889D01*
X28979119Y-81477731D01*
X29002120Y-81426421D01*
X29013350Y-81396050D01*
X29013847Y-81392832D01*
X28999418Y-81394542D01*
X28960108Y-81412528D01*
X28901879Y-81443777D01*
X28830696Y-81485271D01*
X28828978Y-81486308D01*
X28644108Y-81597908D01*
X28694939Y-81638410D01*
X28745769Y-81678912D01*
X28646415Y-81830844D01*
X28592542Y-81913353D01*
X28556187Y-81969769D01*
X28534947Y-82004434D01*
X28526422Y-82021685D01*
X28329511Y-82021685D01*
X28324585Y-82014956D01*
X28284453Y-81899239D01*
X28275234Y-81842623D01*
X28270661Y-81744006D01*
X28281702Y-81645469D01*
X28310169Y-81542628D01*
X28357873Y-81431104D01*
X28426626Y-81306513D01*
X28518239Y-81164475D01*
X28608858Y-81035821D01*
X28673845Y-80945795D01*
X28733393Y-80862709D01*
X28783393Y-80792342D01*
X28819736Y-80740473D01*
X28837237Y-80714595D01*
X28852398Y-80692733D01*
X28869425Y-80678403D01*
X28895686Y-80670014D01*
X28938550Y-80665977D01*
X29005385Y-80664699D01*
X29068851Y-80664595D01*
X29149187Y-80665300D01*
G37*
G36*
X27420533Y-80796413D02*
G01*
X27424291Y-80848989D01*
X27429459Y-80931824D01*
X27435692Y-81038853D01*
X27442647Y-81164014D01*
X27449982Y-81301243D01*
X27457352Y-81444477D01*
X27458364Y-81464595D01*
X27465667Y-81605841D01*
X27473006Y-81739814D01*
X27480045Y-81860914D01*
X27486443Y-81963543D01*
X27491863Y-82042101D01*
X27495966Y-82090989D01*
X27496563Y-82096413D01*
X27501195Y-82154753D01*
X27496692Y-82184791D01*
X27483028Y-82193619D01*
X27454219Y-82194477D01*
X27399261Y-82195227D01*
X27328394Y-82195742D01*
X27303532Y-82195839D01*
X27148876Y-82196307D01*
X27145574Y-82062269D01*
X27143811Y-81995700D01*
X27142220Y-81944209D01*
X27141114Y-81917808D01*
X27141025Y-81916771D01*
X27123871Y-81912303D01*
X27079956Y-81909458D01*
X27018867Y-81908165D01*
X26950193Y-81908351D01*
X26883523Y-81909945D01*
X26828444Y-81912873D01*
X26794546Y-81917064D01*
X26788681Y-81919423D01*
X26779518Y-81939870D01*
X26762761Y-81985452D01*
X26741888Y-82046664D01*
X26740042Y-82052265D01*
X26717267Y-82114117D01*
X26695570Y-82160574D01*
X26679375Y-82182270D01*
X26678440Y-82182659D01*
X26646934Y-82187714D01*
X26592744Y-82192341D01*
X26525854Y-82196155D01*
X26456248Y-82198771D01*
X26393911Y-82199807D01*
X26348827Y-82198877D01*
X26331225Y-82196014D01*
X26331556Y-82175492D01*
X26337347Y-82166268D01*
X26348847Y-82144272D01*
X26373517Y-82091201D01*
X26410305Y-82009453D01*
X26458163Y-81901424D01*
X26516040Y-81769512D01*
X26577292Y-81628955D01*
X26891893Y-81628955D01*
X26892748Y-81643560D01*
X26911255Y-81652517D01*
X26953853Y-81657379D01*
X27018737Y-81659549D01*
X27154666Y-81662148D01*
X27148124Y-81458826D01*
X27145276Y-81362762D01*
X27142861Y-81267385D01*
X27141202Y-81186150D01*
X27140680Y-81147322D01*
X27137789Y-81089375D01*
X27130935Y-81058421D01*
X27123435Y-81056413D01*
X27112800Y-81077010D01*
X27091833Y-81124599D01*
X27063333Y-81192258D01*
X27030099Y-81273067D01*
X26994930Y-81360103D01*
X26960626Y-81446445D01*
X26929984Y-81525172D01*
X26905806Y-81589363D01*
X26891893Y-81628955D01*
X26577292Y-81628955D01*
X26582887Y-81616115D01*
X26657652Y-81443630D01*
X26739287Y-81254455D01*
X26826742Y-81050987D01*
X26871565Y-80946413D01*
X26910812Y-80856934D01*
X26946567Y-80779410D01*
X26975842Y-80720026D01*
X26995647Y-80684969D01*
X27001042Y-80678510D01*
X27026819Y-80672981D01*
X27080437Y-80668511D01*
X27153355Y-80665645D01*
X27215554Y-80664873D01*
X27409596Y-80664595D01*
X27420533Y-80796413D01*
G37*
G36*
X30893164Y-80667987D02*
G01*
X30919409Y-80668560D01*
X31133547Y-80673686D01*
X31137866Y-80791868D01*
X31141301Y-80861995D01*
X31146980Y-80951325D01*
X31154375Y-81053779D01*
X31162960Y-81163274D01*
X31172208Y-81273730D01*
X31181591Y-81379067D01*
X31190582Y-81473204D01*
X31198655Y-81550059D01*
X31205283Y-81603552D01*
X31209938Y-81627603D01*
X31210350Y-81628231D01*
X31225224Y-81624360D01*
X31228145Y-81619140D01*
X31236975Y-81598195D01*
X31258006Y-81548216D01*
X31289348Y-81473697D01*
X31329113Y-81379132D01*
X31375409Y-81269013D01*
X31426348Y-81147836D01*
X31430767Y-81137322D01*
X31625650Y-80673686D01*
X31857213Y-80668597D01*
X31954938Y-80667770D01*
X32028988Y-80669881D01*
X32074983Y-80674696D01*
X32088776Y-80681045D01*
X32085234Y-80706336D01*
X32075888Y-80756873D01*
X32062655Y-80822367D01*
X32060719Y-80831588D01*
X32050861Y-80882165D01*
X32036079Y-80963142D01*
X32017328Y-81069032D01*
X31995566Y-81194348D01*
X31971749Y-81333605D01*
X31946834Y-81481315D01*
X31933221Y-81562894D01*
X31908893Y-81706628D01*
X31885595Y-81839312D01*
X31864160Y-81956571D01*
X31845424Y-82054027D01*
X31830218Y-82127305D01*
X31819377Y-82172028D01*
X31814928Y-82183891D01*
X31789348Y-82193980D01*
X31739651Y-82200129D01*
X31676228Y-82202485D01*
X31609474Y-82201195D01*
X31549781Y-82196407D01*
X31507541Y-82188268D01*
X31493261Y-82179329D01*
X31494912Y-82156970D01*
X31502867Y-82104263D01*
X31516200Y-82026498D01*
X31533987Y-81928964D01*
X31555301Y-81816954D01*
X31567660Y-81753791D01*
X31598673Y-81596223D01*
X31622995Y-81471104D01*
X31641153Y-81375240D01*
X31653673Y-81305438D01*
X31661083Y-81258506D01*
X31663909Y-81231249D01*
X31662679Y-81220476D01*
X31657919Y-81222994D01*
X31654385Y-81228231D01*
X31642661Y-81252403D01*
X31619126Y-81304865D01*
X31586066Y-81380383D01*
X31545762Y-81473723D01*
X31500500Y-81579650D01*
X31479883Y-81628231D01*
X31430947Y-81743325D01*
X31383913Y-81853097D01*
X31341604Y-81951021D01*
X31306846Y-82030571D01*
X31282461Y-82085220D01*
X31277296Y-82096413D01*
X31232552Y-82191868D01*
X31115165Y-82191868D01*
X31051211Y-82190721D01*
X31014834Y-82185372D01*
X30997245Y-82172953D01*
X30989729Y-82150958D01*
X30986212Y-82120548D01*
X30981205Y-82060204D01*
X30975167Y-81976307D01*
X30968555Y-81875235D01*
X30961826Y-81763368D01*
X30961374Y-81755504D01*
X30951124Y-81583120D01*
X30941679Y-81437491D01*
X30933186Y-81320467D01*
X30925790Y-81233901D01*
X30919640Y-81179642D01*
X30914881Y-81159542D01*
X30914210Y-81159666D01*
X30910311Y-81178206D01*
X30901727Y-81228035D01*
X30889210Y-81304483D01*
X30873514Y-81402883D01*
X30855390Y-81518567D01*
X30835592Y-81646868D01*
X30834269Y-81655504D01*
X30814014Y-81785680D01*
X30794878Y-81904625D01*
X30777701Y-82007428D01*
X30763324Y-82089178D01*
X30752587Y-82144967D01*
X30746331Y-82169883D01*
X30746194Y-82170154D01*
X30724188Y-82180422D01*
X30676994Y-82189416D01*
X30615445Y-82196361D01*
X30550378Y-82200478D01*
X30492628Y-82200990D01*
X30453029Y-82197120D01*
X30442201Y-82191962D01*
X30443201Y-82170770D01*
X30451413Y-82123663D01*
X30465158Y-82059987D01*
X30468433Y-82046041D01*
X30479230Y-81994701D01*
X30494651Y-81912946D01*
X30513737Y-81806292D01*
X30535528Y-81680258D01*
X30559061Y-81540360D01*
X30583377Y-81392115D01*
X30596573Y-81310049D01*
X30619636Y-81166053D01*
X30641086Y-81033078D01*
X30660206Y-80915501D01*
X30676278Y-80817699D01*
X30688583Y-80744051D01*
X30696403Y-80698933D01*
X30698805Y-80686742D01*
X30711190Y-80676394D01*
X30744561Y-80670078D01*
X30803644Y-80667405D01*
X30893164Y-80667987D01*
G37*
D10*
X57830000Y-90730000D02*
X61970000Y-90730000D01*
X57830000Y-91030000D02*
X57830000Y-90730000D01*
X57830000Y-93870000D02*
X57830000Y-93570000D01*
X61970000Y-90730000D02*
X61970000Y-91030000D01*
X61970000Y-93570000D02*
X61970000Y-93870000D01*
X61970000Y-93870000D02*
X57830000Y-93870000D01*
X55740000Y-105443641D02*
X55740000Y-105136359D01*
X56500000Y-105443641D02*
X56500000Y-105136359D01*
X57216359Y-77560000D02*
X57523641Y-77560000D01*
X57216359Y-78320000D02*
X57523641Y-78320000D01*
X85920000Y-94646359D02*
X85920000Y-94953641D01*
X86680000Y-94646359D02*
X86680000Y-94953641D01*
X74310000Y-102427164D02*
X74310000Y-102642836D01*
X75030000Y-102427164D02*
X75030000Y-102642836D01*
X78930000Y-107030000D02*
X83070000Y-107030000D01*
X78930000Y-107330000D02*
X78930000Y-107030000D01*
X78930000Y-110170000D02*
X78930000Y-109870000D01*
X83070000Y-107030000D02*
X83070000Y-107330000D01*
X83070000Y-109870000D02*
X83070000Y-110170000D01*
X83070000Y-110170000D02*
X78930000Y-110170000D01*
X55762164Y-72180000D02*
X55977836Y-72180000D01*
X55762164Y-72900000D02*
X55977836Y-72900000D01*
X69437836Y-99310000D02*
X69222164Y-99310000D01*
X69437836Y-100030000D02*
X69222164Y-100030000D01*
X61974141Y-80750000D02*
X61666859Y-80750000D01*
X61974141Y-81510000D02*
X61666859Y-81510000D01*
X73929000Y-87449820D02*
X73929000Y-87234148D01*
X74649000Y-87449820D02*
X74649000Y-87234148D01*
X78612164Y-85140000D02*
X78827836Y-85140000D01*
X78612164Y-85860000D02*
X78827836Y-85860000D01*
X60543641Y-109220000D02*
X60236359Y-109220000D01*
X60543641Y-109980000D02*
X60236359Y-109980000D01*
X61137500Y-99290000D02*
X60487500Y-99290000D01*
X61137500Y-99290000D02*
X61787500Y-99290000D01*
X61137500Y-102410000D02*
X60487500Y-102410000D01*
X61137500Y-102410000D02*
X61787500Y-102410000D01*
X59975000Y-99340000D02*
X59735000Y-99010000D01*
X60215000Y-99010000D01*
X59975000Y-99340000D01*
G36*
X59975000Y-99340000D02*
G01*
X59735000Y-99010000D01*
X60215000Y-99010000D01*
X59975000Y-99340000D01*
G37*
X80222164Y-97410000D02*
X80437836Y-97410000D01*
X80222164Y-98130000D02*
X80437836Y-98130000D01*
X73290000Y-101688641D02*
X73290000Y-101381359D01*
X74050000Y-101688641D02*
X74050000Y-101381359D01*
X69437836Y-97910000D02*
X69222164Y-97910000D01*
X69437836Y-98630000D02*
X69222164Y-98630000D01*
X61790000Y-108459420D02*
X61790000Y-108740580D01*
X62810000Y-108459420D02*
X62810000Y-108740580D01*
X74950000Y-87423641D02*
X74950000Y-87116359D01*
X75710000Y-87423641D02*
X75710000Y-87116359D01*
D15*
X89237500Y-88000000D02*
G75*
G02*
X89237500Y-90000000I0J-1000000D01*
G01*
D10*
X75725000Y-76847836D02*
X75725000Y-76632164D01*
X76445000Y-76847836D02*
X76445000Y-76632164D01*
X73227836Y-71430000D02*
X73012164Y-71430000D01*
X73227836Y-72150000D02*
X73012164Y-72150000D01*
X71060000Y-91072500D02*
X71060000Y-91722500D01*
X71060000Y-98292500D02*
X71060000Y-97642500D01*
X71710000Y-91072500D02*
X71060000Y-91072500D01*
X71710000Y-98292500D02*
X71060000Y-98292500D01*
X77630000Y-91072500D02*
X78280000Y-91072500D01*
X77630000Y-98292500D02*
X78280000Y-98292500D01*
X78280000Y-91072500D02*
X78280000Y-91722500D01*
X63220000Y-91753641D02*
X63220000Y-91446359D01*
X63980000Y-91753641D02*
X63980000Y-91446359D01*
D17*
X66182500Y-84505000D02*
X65782500Y-84505000D01*
X66182500Y-86105000D02*
X65782500Y-86105000D01*
D15*
X68382500Y-82805000D02*
X68382500Y-82805000D01*
X68482500Y-82805000D02*
X68482500Y-82805000D01*
D17*
X68382500Y-82805000D02*
G75*
G02*
X68482500Y-82805000I50000J0D01*
G01*
X68482500Y-82805000D02*
G75*
G02*
X68382500Y-82805000I-50000J0D01*
G01*
D10*
X45460000Y-109325000D02*
X46310000Y-109325000D01*
X45460000Y-118495000D02*
X45460000Y-109325000D01*
X46310000Y-118495000D02*
X45460000Y-118495000D01*
X52830000Y-109325000D02*
X53680000Y-109325000D01*
X52830000Y-118495000D02*
X53680000Y-118495000D01*
X53680000Y-109325000D02*
X53680000Y-112150001D01*
X53680000Y-112150001D02*
X56070000Y-112150000D01*
X53680000Y-115669999D02*
X56070000Y-115670000D01*
X53680000Y-118495000D02*
X53680000Y-115669999D01*
X83850000Y-98060000D02*
X83850000Y-95400000D01*
X83850000Y-98060000D02*
X85550000Y-98060000D01*
X85550000Y-98060000D02*
X85550000Y-95400000D01*
X64227836Y-67430000D02*
X64012164Y-67430000D01*
X64227836Y-68150000D02*
X64012164Y-68150000D01*
X70310000Y-101427164D02*
X70310000Y-101642836D01*
X71030000Y-101427164D02*
X71030000Y-101642836D01*
X55090000Y-77643641D02*
X55090000Y-77336359D01*
X55850000Y-77643641D02*
X55850000Y-77336359D01*
X57592164Y-101540000D02*
X57807836Y-101540000D01*
X57592164Y-102260000D02*
X57807836Y-102260000D01*
X61973641Y-81890000D02*
X61666359Y-81890000D01*
X61973641Y-82650000D02*
X61666359Y-82650000D01*
X59570000Y-83510000D02*
X58070000Y-83510000D01*
X59570000Y-83510000D02*
X61070000Y-83510000D01*
X59570000Y-86730000D02*
X58070000Y-86730000D01*
X59570000Y-86730000D02*
X61070000Y-86730000D01*
X61782500Y-86555000D02*
X62022500Y-86885000D01*
X61542500Y-86885000D01*
X61782500Y-86555000D01*
G36*
X62022500Y-86885000D02*
G01*
X61542500Y-86885000D01*
X61782500Y-86555000D01*
X62022500Y-86885000D01*
G37*
X69225000Y-76612164D02*
X69225000Y-76827836D01*
X69945000Y-76612164D02*
X69945000Y-76827836D01*
X78705000Y-99980000D02*
X78705000Y-100240000D01*
X78705000Y-105430000D02*
X78705000Y-105170000D01*
X81430000Y-99980000D02*
X78705000Y-99980000D01*
X81430000Y-99980000D02*
X84155000Y-99980000D01*
X81430000Y-105430000D02*
X78705000Y-105430000D01*
X81430000Y-105430000D02*
X84155000Y-105430000D01*
X84155000Y-99980000D02*
X84155000Y-100240000D01*
X84155000Y-105170000D02*
X85830000Y-105170000D01*
X84155000Y-105430000D02*
X84155000Y-105170000D01*
D15*
X89237500Y-93100000D02*
G75*
G02*
X89237500Y-95100000I0J-1000000D01*
G01*
D10*
X85917500Y-91826359D02*
X85917500Y-92133641D01*
X86677500Y-91826359D02*
X86677500Y-92133641D01*
X58540580Y-103190000D02*
X58259420Y-103190000D01*
X58540580Y-104210000D02*
X58259420Y-104210000D01*
X57190001Y-54280000D02*
X56080000Y-54280000D01*
X57190001Y-57530000D02*
X56080000Y-57530001D01*
X57780000Y-58580001D02*
X58280000Y-58580000D01*
X58030000Y-58079999D02*
X57780000Y-58580001D01*
X58280000Y-58580000D02*
X58030000Y-58079999D01*
X59980001Y-57529999D02*
X58870000Y-57530000D01*
X59980002Y-54280000D02*
X58870000Y-54279999D01*
X55977836Y-65730000D02*
X55762164Y-65730000D01*
X55977836Y-66450000D02*
X55762164Y-66450000D01*
X68760000Y-65980000D02*
X68760000Y-66455000D01*
X68760000Y-70200000D02*
X68760000Y-69725000D01*
X69235000Y-65980000D02*
X68760000Y-65980000D01*
X69235000Y-70200000D02*
X68760000Y-70200000D01*
X72505000Y-65980000D02*
X72980000Y-65980000D01*
X72505000Y-70200000D02*
X72680000Y-70200000D01*
X72980000Y-65980000D02*
X72980000Y-66455000D01*
X72980000Y-69725000D02*
X72980000Y-69960000D01*
X72980000Y-70200000D02*
X73220000Y-70530000D01*
X72740000Y-70530000D01*
X72980000Y-70200000D01*
G36*
X73220000Y-70530000D02*
G01*
X72740000Y-70530000D01*
X72980000Y-70200000D01*
X73220000Y-70530000D01*
G37*
X80202164Y-93122500D02*
X80417836Y-93122500D01*
X80202164Y-93842500D02*
X80417836Y-93842500D01*
X75327836Y-85140000D02*
X75112164Y-85140000D01*
X75327836Y-85860000D02*
X75112164Y-85860000D01*
X55977836Y-62030000D02*
X55762164Y-62030000D01*
X55977836Y-62750000D02*
X55762164Y-62750000D01*
X63390000Y-94940580D02*
X63390000Y-94659420D01*
X64410000Y-94940580D02*
X64410000Y-94659420D01*
X72025000Y-76827836D02*
X72025000Y-76612164D01*
X72745000Y-76827836D02*
X72745000Y-76612164D01*
X74966359Y-103690000D02*
X75273641Y-103690000D01*
X74966359Y-104450000D02*
X75273641Y-104450000D01*
X72290000Y-101688641D02*
X72290000Y-101381359D01*
X73050000Y-101688641D02*
X73050000Y-101381359D01*
X83546359Y-105820000D02*
X83853641Y-105820000D01*
X83546359Y-106580000D02*
X83853641Y-106580000D01*
X71310000Y-101427164D02*
X71310000Y-101642836D01*
X72030000Y-101427164D02*
X72030000Y-101642836D01*
X77820000Y-81500000D02*
X73820000Y-81500000D01*
X77820000Y-84800000D02*
X77820000Y-81500000D01*
X56890000Y-96640580D02*
X56890000Y-96359420D01*
X57910000Y-96640580D02*
X57910000Y-96359420D01*
X74920500Y-62742164D02*
X74920500Y-62957836D01*
X75640500Y-62742164D02*
X75640500Y-62957836D01*
X65290000Y-94940580D02*
X65290000Y-94659420D01*
X66310000Y-94940580D02*
X66310000Y-94659420D01*
X66823641Y-64660000D02*
X66516359Y-64660000D01*
X66823641Y-65420000D02*
X66516359Y-65420000D01*
X86020000Y-87946359D02*
X86020000Y-88253641D01*
X86780000Y-87946359D02*
X86780000Y-88253641D01*
X58890000Y-77643641D02*
X58890000Y-77336359D01*
X59650000Y-77643641D02*
X59650000Y-77336359D01*
X67907836Y-94340000D02*
X67692164Y-94340000D01*
X67907836Y-95060000D02*
X67692164Y-95060000D01*
D17*
X57050000Y-105200000D02*
X58250000Y-105200000D01*
X58600000Y-105350000D02*
X59200000Y-105350000D01*
X58600000Y-108250000D02*
X58600000Y-105350000D01*
X59200000Y-105350000D02*
X59200000Y-108250000D01*
X59200000Y-108250000D02*
X58600000Y-108250000D01*
D10*
X71338336Y-63840000D02*
X71122664Y-63840000D01*
X71338336Y-64560000D02*
X71122664Y-64560000D01*
X65575000Y-76612164D02*
X65575000Y-76827836D01*
X66295000Y-76612164D02*
X66295000Y-76827836D01*
X85967500Y-96926359D02*
X85967500Y-97233641D01*
X86727500Y-96926359D02*
X86727500Y-97233641D01*
X77107836Y-106040000D02*
X76892164Y-106040000D01*
X77107836Y-106760000D02*
X76892164Y-106760000D01*
X55762164Y-68530000D02*
X55977836Y-68530000D01*
X55762164Y-69250000D02*
X55977836Y-69250000D01*
X75310000Y-102427164D02*
X75310000Y-102642836D01*
X76030000Y-102427164D02*
X76030000Y-102642836D01*
X59540000Y-96462500D02*
X59540000Y-95662500D01*
X59540000Y-96462500D02*
X59540000Y-97262500D01*
X62660000Y-96462500D02*
X62660000Y-95662500D01*
X62660000Y-96462500D02*
X62660000Y-97262500D01*
X59590000Y-97762500D02*
X59260000Y-98002500D01*
X59260000Y-97522500D01*
X59590000Y-97762500D01*
G36*
X59590000Y-97762500D02*
G01*
X59260000Y-98002500D01*
X59260000Y-97522500D01*
X59590000Y-97762500D01*
G37*
X66762500Y-100690000D02*
X65962500Y-100690000D01*
X66762500Y-100690000D02*
X67562500Y-100690000D01*
X66762500Y-103810000D02*
X65962500Y-103810000D01*
X66762500Y-103810000D02*
X67562500Y-103810000D01*
X65462500Y-100740000D02*
X65222500Y-100410000D01*
X65702500Y-100410000D01*
X65462500Y-100740000D01*
G36*
X65462500Y-100740000D02*
G01*
X65222500Y-100410000D01*
X65702500Y-100410000D01*
X65462500Y-100740000D01*
G37*
X57853641Y-100320000D02*
X57546359Y-100320000D01*
X57853641Y-101080000D02*
X57546359Y-101080000D01*
X72810000Y-87449820D02*
X72810000Y-87234148D01*
X73530000Y-87449820D02*
X73530000Y-87234148D01*
X61472664Y-87290000D02*
X61688336Y-87290000D01*
X61472664Y-88010000D02*
X61688336Y-88010000D01*
M02*
