M48
; DRILL file KiCad 10.0.5 date 2026-08-18T19:10:04
; FORMAT={-:-/ absolute / metric / decimal}
; #@! TF.CreationDate,2026-08-18T19:10:04-07:00
; #@! TF.GenerationSoftware,Kicad,Pcbnew,10.0.5
; #@! TF.FileFunction,Plated,1,4,PTH
FMAT,2
METRIC
; #@! TA.AperFunction,Plated,PTH,ViaDrill
T1C0.300
; #@! TA.AperFunction,Plated,PTH,ComponentDrill
T2C0.300
; #@! TA.AperFunction,Plated,PTH,ViaDrill
T3C0.350
; #@! TA.AperFunction,Plated,PTH,ComponentDrill
T4C0.350
; #@! TA.AperFunction,Plated,PTH,ComponentDrill
T5C0.600
%
G90
G05
T1
X24.3Y-88.57
X24.321Y-87.393
X24.321Y-89.747
X24.382Y-86.217
X24.382Y-90.923
X24.485Y-85.044
X24.485Y-92.096
X24.628Y-83.876
X24.628Y-93.264
X24.812Y-82.713
X24.812Y-94.427
X25.037Y-81.557
X25.037Y-95.583
X25.302Y-80.41
X25.302Y-96.73
X25.607Y-79.273
X25.607Y-97.867
X25.951Y-78.147
X25.951Y-98.993
X26.334Y-77.034
X26.334Y-100.106
X26.756Y-75.935
X26.756Y-101.205
X27.216Y-74.851
X27.216Y-102.289
X27.714Y-73.784
X27.714Y-103.356
X28.248Y-72.735
X28.248Y-104.405
X28.819Y-71.705
X28.819Y-105.435
X29.425Y-70.696
X29.425Y-106.444
X30.067Y-69.708
X30.067Y-107.432
X30.742Y-68.744
X30.742Y-108.396
X31.45Y-67.804
X31.45Y-109.336
X32.191Y-66.889
X32.191Y-110.251
X32.964Y-66.0
X32.964Y-111.14
X33.767Y-112.001
X34.599Y-112.833
X35.46Y-113.636
X36.349Y-62.731
X36.349Y-114.409
X37.264Y-61.99
X37.264Y-115.15
X38.204Y-61.282
X38.204Y-115.858
X39.168Y-60.607
X39.168Y-116.533
X40.156Y-59.965
X40.156Y-117.175
X41.165Y-59.359
X41.165Y-117.781
X42.195Y-58.788
X42.195Y-118.352
X43.244Y-58.254
X43.244Y-118.886
X44.311Y-57.756
X44.311Y-119.384
X45.395Y-57.296
X45.395Y-119.844
X46.494Y-56.874
X46.494Y-120.266
X47.607Y-56.491
X47.607Y-120.649
X48.733Y-56.147
X48.733Y-120.993
X49.87Y-55.842
X49.87Y-121.298
X51.017Y-55.577
X51.017Y-121.563
X52.173Y-55.352
X52.173Y-121.788
X53.336Y-55.168
X53.336Y-121.972
X53.37Y-62.29
X53.37Y-63.49
X53.37Y-64.69
X53.37Y-65.89
X53.37Y-67.09
X53.37Y-68.29
X53.37Y-69.49
X53.37Y-70.69
X53.37Y-71.89
X53.37Y-74.29
X53.37Y-75.49
X53.37Y-76.69
X53.37Y-77.89
X53.37Y-79.09
X53.37Y-80.29
X53.37Y-81.49
X53.37Y-82.69
X53.37Y-83.89
X53.37Y-85.09
X53.37Y-86.29
X53.37Y-87.49
X53.37Y-88.69
X53.37Y-89.89
X53.37Y-61.09
X53.37Y-73.09
X53.97Y-60.49
X53.97Y-61.69
X53.97Y-62.89
X53.97Y-64.09
X53.97Y-65.29
X53.97Y-66.49
X53.97Y-67.69
X53.97Y-68.89
X53.97Y-70.09
X53.97Y-71.29
X53.97Y-72.49
X53.97Y-73.69
X53.97Y-74.89
X53.97Y-76.09
X53.97Y-77.29
X53.97Y-78.49
X53.97Y-79.69
X53.97Y-80.89
X53.97Y-82.09
X53.97Y-83.29
X53.97Y-84.49
X53.97Y-85.69
X53.97Y-86.89
X53.97Y-88.09
X53.97Y-89.29
X54.57Y-61.09
X54.57Y-74.29
X54.57Y-79.09
X54.57Y-80.29
X54.57Y-89.89
X54.87Y-54.58
X54.87Y-55.78
X54.87Y-56.98
X54.88Y-85.65
X55.17Y-60.49
X55.17Y-74.89
X55.17Y-89.29
X55.18Y-122.14
X55.38Y-63.75
X55.38Y-64.75
X55.38Y-73.45
X55.47Y-55.18
X55.47Y-56.38
X55.54Y-57.53
X55.77Y-61.09
X55.77Y-74.29
X55.77Y-79.09
X55.77Y-80.29
X55.77Y-89.89
X55.82Y-81.48
X55.86Y-82.45
X55.88Y-86.65
X55.98Y-83.35
X55.98Y-84.35
X56.37Y-74.89
X56.37Y-79.69
X56.37Y-89.29
X56.37Y-60.49
X56.38Y-70.15
X56.59Y-122.39
X56.68Y-76.95
X56.853Y-54.861
X56.92Y-82.67
X56.97Y-61.09
X56.97Y-74.29
X56.97Y-79.09
X56.97Y-89.89
X56.97Y-59.89
X56.98Y-87.25
X57.18Y-99.21
X57.18Y-63.15
X57.28Y-64.75
X57.28Y-66.05
X57.28Y-67.45
X57.57Y-74.89
X57.57Y-79.69
X57.57Y-89.29
X57.79Y-122.39
X57.88Y-76.95
X58.0Y-109.6
X58.081Y-87.25
X58.11Y-118.97
X58.17Y-61.09
X58.17Y-70.69
X58.17Y-71.89
X58.17Y-74.29
X58.17Y-79.09
X58.17Y-89.89
X58.17Y-59.89
X58.77Y-61.69
X58.77Y-62.89
X58.77Y-64.09
X58.77Y-65.29
X58.77Y-66.49
X58.77Y-67.69
X58.77Y-68.89
X58.77Y-70.09
X58.77Y-72.49
X58.77Y-73.69
X58.77Y-74.89
X58.77Y-79.69
X58.77Y-89.29
X58.77Y-60.49
X59.207Y-54.861
X59.207Y-122.279
X59.37Y-61.09
X59.37Y-63.49
X59.37Y-64.69
X59.37Y-65.89
X59.37Y-67.09
X59.37Y-68.29
X59.37Y-69.49
X59.37Y-70.69
X59.37Y-71.89
X59.37Y-73.09
X59.37Y-74.29
X59.37Y-79.09
X59.37Y-89.89
X59.37Y-62.29
X59.5Y-108.8
X59.75Y-93.5
X59.97Y-74.89
X59.97Y-79.69
X59.97Y-89.29
X59.97Y-60.49
X60.15Y-95.325
X60.28Y-67.85
X60.38Y-76.45
X60.383Y-122.218
X60.41Y-77.497
X60.51Y-54.49
X60.51Y-55.69
X60.51Y-56.89
X60.57Y-74.29
X60.57Y-79.09
X60.57Y-89.89
X60.57Y-61.09
X60.581Y-68.95
X60.78Y-66.65
X60.78Y-69.95
X61.1Y-97.3
X61.1Y-97.9
X61.11Y-55.09
X61.11Y-56.29
X61.11Y-57.49
X61.17Y-74.89
X61.17Y-79.69
X61.17Y-89.29
X61.17Y-60.49
X61.38Y-76.15
X61.556Y-122.115
X61.77Y-74.29
X61.77Y-79.09
X61.77Y-89.89
X61.77Y-61.09
X62.075Y-100.85
X62.18Y-71.25
X62.3Y-107.825
X62.37Y-74.89
X62.37Y-79.69
X62.37Y-89.29
X62.37Y-60.49
X62.38Y-66.45
X62.48Y-76.65
X62.5Y-94.0
X62.724Y-55.168
X62.724Y-121.972
X62.78Y-69.45
X62.97Y-74.29
X62.97Y-77.89
X62.97Y-79.09
X62.97Y-89.89
X62.97Y-61.09
X63.57Y-74.89
X63.57Y-76.09
X63.57Y-77.29
X63.57Y-79.69
X63.57Y-89.29
X63.57Y-60.49
X63.58Y-66.75
X63.6Y-91.1
X63.68Y-68.75
X63.887Y-55.352
X63.887Y-121.788
X64.02Y-105.59
X64.17Y-74.29
X64.17Y-75.49
X64.17Y-76.69
X64.17Y-77.89
X64.17Y-79.09
X64.17Y-89.89
X64.171Y-61.09
X64.68Y-66.75
X64.68Y-68.75
X64.77Y-74.89
X64.77Y-79.69
X64.77Y-89.29
X64.77Y-60.49
X64.88Y-76.05
X65.043Y-55.577
X65.043Y-121.563
X65.37Y-74.29
X65.37Y-79.09
X65.37Y-89.89
X65.37Y-61.09
X65.88Y-66.85
X65.88Y-68.75
X65.97Y-74.89
X65.97Y-79.69
X65.97Y-89.29
X65.971Y-60.49
X66.19Y-55.842
X66.19Y-121.298
X66.57Y-74.29
X66.57Y-79.09
X66.57Y-89.89
X66.57Y-61.09
X66.94Y-89.32
X67.17Y-74.89
X67.17Y-79.69
X67.17Y-60.49
X67.18Y-65.1
X67.281Y-77.25
X67.327Y-56.147
X67.327Y-120.993
X67.665Y-88.05
X67.77Y-74.29
X67.77Y-79.09
X67.77Y-61.09
X67.9Y-102.25
X67.98Y-63.95
X68.04Y-93.18
X68.281Y-77.25
X68.37Y-74.89
X68.37Y-79.69
X68.37Y-89.29
X68.37Y-60.49
X68.38Y-65.45
X68.453Y-56.491
X68.453Y-120.649
X68.54Y-116.25
X68.97Y-74.29
X68.97Y-79.09
X68.97Y-82.56
X68.97Y-83.89
X68.97Y-85.09
X68.97Y-86.29
X68.97Y-87.49
X68.97Y-88.69
X68.97Y-89.89
X68.971Y-61.09
X69.0Y-102.8
X69.01Y-81.38
X69.017Y-96.082
X69.3Y-104.8
X69.56Y-83.14
X69.566Y-56.874
X69.566Y-120.266
X69.57Y-74.89
X69.57Y-79.69
X69.57Y-82.09
X69.57Y-84.49
X69.57Y-85.69
X69.57Y-86.89
X69.57Y-88.09
X69.57Y-89.29
X69.57Y-60.49
X69.88Y-63.65
X70.0Y-97.3
X70.0Y-103.9
X70.11Y-92.04
X70.17Y-74.29
X70.17Y-79.09
X70.17Y-61.09
X70.21Y-115.13
X70.22Y-94.63
X70.52Y-104.8
X70.62Y-73.03
X70.665Y-57.296
X70.665Y-119.844
X70.77Y-74.89
X70.77Y-79.69
X70.77Y-60.49
X70.98Y-78.05
X71.081Y-71.95
X71.37Y-74.29
X71.37Y-79.09
X71.37Y-61.09
X71.67Y-100.45
X71.749Y-57.756
X71.749Y-119.384
X71.781Y-65.05
X71.97Y-74.89
X71.97Y-79.69
X71.971Y-60.49
X71.98Y-114.2
X72.38Y-78.05
X72.57Y-74.29
X72.57Y-79.09
X72.57Y-61.09
X72.68Y-64.65
X72.816Y-58.254
X72.816Y-118.886
X73.081Y-62.34
X73.17Y-74.89
X73.17Y-79.69
X73.17Y-60.49
X73.18Y-70.75
X73.652Y-113.526
X73.68Y-78.15
X73.77Y-74.29
X73.77Y-79.09
X73.77Y-61.09
X73.865Y-58.788
X73.865Y-118.352
X74.081Y-76.15
X74.25Y-88.0
X74.33Y-72.41
X74.37Y-73.69
X74.37Y-74.89
X74.37Y-79.69
X74.37Y-60.49
X74.61Y-104.07
X74.68Y-78.15
X74.781Y-70.35
X74.895Y-59.359
X74.895Y-117.781
X74.97Y-79.09
X74.971Y-61.09
X75.041Y-68.34
X75.281Y-62.37
X75.531Y-67.84
X75.57Y-73.69
X75.57Y-74.89
X75.57Y-79.69
X75.57Y-60.49
X75.86Y-65.68
X75.904Y-59.965
X75.904Y-117.175
X76.081Y-78.15
X76.11Y-69.53
X76.17Y-74.29
X76.17Y-79.09
X76.17Y-61.09
X76.2Y-89.3
X76.281Y-70.65
X76.38Y-72.75
X76.77Y-74.89
X76.77Y-79.69
X76.77Y-60.49
X76.892Y-116.533
X77.36Y-64.68
X77.37Y-61.09
X77.37Y-62.29
X77.37Y-63.49
X77.37Y-65.89
X77.37Y-67.09
X77.37Y-69.49
X77.37Y-70.69
X77.37Y-73.09
X77.37Y-74.29
X77.37Y-75.49
X77.37Y-76.69
X77.37Y-77.89
X77.37Y-79.09
X77.44Y-71.92
X77.76Y-65.26
X77.79Y-66.49
X77.856Y-115.858
X77.96Y-64.08
X77.96Y-72.48
X77.97Y-62.89
X77.97Y-70.09
X77.97Y-71.29
X77.97Y-73.69
X77.97Y-74.89
X77.97Y-76.09
X77.97Y-77.29
X77.97Y-78.49
X77.97Y-79.69
X77.971Y-61.69
X78.796Y-61.99
X78.796Y-115.15
X78.89Y-82.54
X79.336Y-80.8
X79.5Y-94.5
X79.711Y-62.731
X79.711Y-114.409
X79.9Y-80.3
X80.6Y-113.636
X81.1Y-89.25
X81.461Y-112.833
X82.1Y-88.9
X82.293Y-112.001
X82.6Y-92.5
X82.6Y-94.1
X83.096Y-111.14
X83.2Y-87.9
X83.28Y-95.4
X83.3Y-93.2
X83.4Y-90.2
X83.869Y-66.889
X83.869Y-110.251
X83.9Y-100.8
X84.61Y-67.804
X84.61Y-109.336
X85.25Y-93.4
X85.318Y-68.744
X85.318Y-108.396
X85.993Y-69.708
X85.993Y-107.432
X86.3Y-94.29
X86.635Y-70.696
X86.635Y-106.444
X87.241Y-71.705
X87.241Y-105.435
X87.4Y-96.5
X87.812Y-72.735
X87.9Y-102.25
X88.346Y-73.784
X88.5Y-95.75
X88.844Y-74.851
X89.304Y-75.935
X89.726Y-77.034
X89.726Y-100.106
X90.109Y-78.147
X90.109Y-98.993
X90.453Y-79.273
X90.453Y-97.867
X90.758Y-80.41
X90.758Y-96.73
X91.023Y-81.557
X91.023Y-95.583
X91.248Y-82.713
X91.248Y-94.427
X91.432Y-83.876
X91.432Y-93.264
X91.575Y-85.044
X91.575Y-92.096
X91.678Y-86.217
X91.678Y-90.923
X91.739Y-87.393
X91.739Y-89.747
X91.76Y-88.57
T2
X69.97Y-67.19
X69.97Y-67.79
X69.97Y-68.39
X69.97Y-68.99
X70.57Y-67.19
X70.57Y-67.79
X70.57Y-68.39
X70.57Y-68.99
X71.17Y-67.19
X71.17Y-67.79
X71.17Y-68.39
X71.17Y-68.99
X71.77Y-67.19
X71.77Y-67.79
X71.77Y-68.39
X71.77Y-68.99
T3
X55.39Y-62.39
X55.39Y-66.09
X55.47Y-76.98
X56.35Y-68.89
X56.35Y-72.54
X57.4Y-95.725
X59.081Y-85.45
X59.27Y-76.98
X60.15Y-106.8
X63.9Y-95.575
X64.0Y-106.61
X65.625Y-102.25
X65.8Y-95.575
X65.935Y-77.2
X66.8Y-106.015
X68.85Y-99.67
X69.585Y-77.2
X70.67Y-102.015
X71.67Y-102.015
X72.385Y-76.24
X72.4Y-92.7
X72.4Y-94.2
X72.4Y-95.6
X73.17Y-86.862
X73.2Y-106.015
X73.87Y-89.483
X73.97Y-96.782
X74.07Y-92.582
X74.289Y-86.862
X74.67Y-102.055
X74.67Y-103.015
X74.72Y-82.3
X74.87Y-99.483
X75.63Y-104.07
X75.67Y-103.015
X76.085Y-76.26
X76.32Y-87.05
X76.52Y-106.4
X76.95Y-85.82
X77.83Y-104.61
X78.9Y-108.6
X79.85Y-97.77
X80.81Y-97.77
X82.0Y-96.7
X82.8Y-96.7
X85.87Y-91.46
X87.675Y-91.517
T4
X73.395Y-93.407
X73.395Y-94.682
X73.395Y-95.957
X74.67Y-93.407
X74.67Y-94.682
X74.67Y-95.957
X75.945Y-93.407
X75.945Y-94.682
X75.945Y-95.957
T5
G00X56.06Y-120.11
M15
G01X56.06Y-120.71
M16
G05
G00X64.26Y-120.11
M15
G01X64.26Y-120.71
M16
G05
G00X66.392Y-114.819
M15
G01X66.857Y-115.816
M16
G05
G00X68.264Y-118.834
M15
G01X68.518Y-119.378
M16
G05
G00X74.223Y-111.168
M15
G01X74.688Y-112.165
M16
G05
G00X76.095Y-115.183
M15
G01X76.348Y-115.727
M16
G05
M30
