G04 #@! TF.GenerationSoftware,KiCad,Pcbnew,10.0.5*
G04 #@! TF.CreationDate,2026-08-18T19:09:46-07:00*
G04 #@! TF.ProjectId,PicoFox-PCB,5069636f-466f-4782-9d50-43422e6b6963,REV2*
G04 #@! TF.SameCoordinates,Original*
G04 #@! TF.FileFunction,Soldermask,Top*
G04 #@! TF.FilePolarity,Negative*
%FSLAX46Y46*%
G04 Gerber Fmt 4.6, Leading zero omitted, Abs format (unit mm)*
G04 Created by KiCad (PCBNEW 10.0.5) date 2026-08-18 19:09:46*
%MOMM*%
%LPD*%
G01*
G04 APERTURE LIST*
G04 Aperture macros list*
%AMRoundRect*
0 Rectangle with rounded corners*
0 $1 Rounding radius*
0 $2 $3 $4 $5 $6 $7 $8 $9 X,Y pos of 4 corners*
0 Add a 4 corners polygon primitive as box body*
4,1,4,$2,$3,$4,$5,$6,$7,$8,$9,$2,$3,0*
0 Add four circle primitives for the rounded corners*
1,1,$1+$1,$2,$3*
1,1,$1+$1,$4,$5*
1,1,$1+$1,$6,$7*
1,1,$1+$1,$8,$9*
0 Add four rect primitives between the rounded corners*
20,1,$1+$1,$2,$3,$4,$5,0*
20,1,$1+$1,$4,$5,$6,$7,0*
20,1,$1+$1,$6,$7,$8,$9,0*
20,1,$1+$1,$8,$9,$2,$3,0*%
%AMHorizOval*
0 Thick line with rounded ends*
0 $1 width*
0 $2 $3 position (X,Y) of the first rounded end (center of the circle)*
0 $4 $5 position (X,Y) of the second rounded end (center of the circle)*
0 Add line between two ends*
20,1,$1,$2,$3,$4,$5,0*
0 Add two circle primitives to create the rounded ends*
1,1,$1,$2,$3*
1,1,$1,$4,$5*%
G04 Aperture macros list end*
%ADD10C,0.100000*%
%ADD11C,0.000000*%
%ADD12RoundRect,0.135000X0.135000X0.185000X-0.135000X0.185000X-0.135000X-0.185000X0.135000X-0.185000X0*%
%ADD13R,0.900000X1.300000*%
%ADD14R,0.800000X1.000000*%
%ADD15C,4.300000*%
%ADD16RoundRect,0.140000X-0.170000X0.140000X-0.170000X-0.140000X0.170000X-0.140000X0.170000X0.140000X0*%
%ADD17C,0.650000*%
%ADD18RoundRect,0.150000X0.075363X-0.516547X0.347255X-0.389761X-0.075363X0.516547X-0.347255X0.389761X0*%
%ADD19RoundRect,0.075000X0.175032X-0.552823X0.310979X-0.489431X-0.175032X0.552823X-0.310979X0.489431X0*%
%ADD20HorizOval,1.000000X-0.126785X0.271892X0.126785X-0.271892X0*%
%ADD21HorizOval,1.000000X-0.232440X0.498469X0.232440X-0.498469X0*%
%ADD22RoundRect,0.140000X0.170000X-0.140000X0.170000X0.140000X-0.170000X0.140000X-0.170000X-0.140000X0*%
%ADD23RoundRect,0.140000X0.140000X0.170000X-0.140000X0.170000X-0.140000X-0.170000X0.140000X-0.170000X0*%
%ADD24RoundRect,0.135000X-0.185000X0.135000X-0.185000X-0.135000X0.185000X-0.135000X0.185000X0.135000X0*%
%ADD25RoundRect,0.200000X-0.200000X-0.800000X0.200000X-0.800000X0.200000X0.800000X-0.200000X0.800000X0*%
%ADD26RoundRect,0.135000X0.185000X-0.135000X0.185000X0.135000X-0.185000X0.135000X-0.185000X-0.135000X0*%
%ADD27RoundRect,0.135000X-0.135000X-0.185000X0.135000X-0.185000X0.135000X0.185000X-0.135000X0.185000X0*%
%ADD28RoundRect,0.140000X-0.140000X-0.170000X0.140000X-0.170000X0.140000X0.170000X-0.140000X0.170000X0*%
%ADD29RoundRect,0.150000X-0.587500X-0.150000X0.587500X-0.150000X0.587500X0.150000X-0.587500X0.150000X0*%
%ADD30RoundRect,0.225000X-0.250000X0.225000X-0.250000X-0.225000X0.250000X-0.225000X0.250000X0.225000X0*%
%ADD31RoundRect,0.050000X0.387500X0.050000X-0.387500X0.050000X-0.387500X-0.050000X0.387500X-0.050000X0*%
%ADD32RoundRect,0.050000X0.050000X0.387500X-0.050000X0.387500X-0.050000X-0.387500X0.050000X-0.387500X0*%
%ADD33RoundRect,0.144000X1.456000X1.456000X-1.456000X1.456000X-1.456000X-1.456000X1.456000X-1.456000X0*%
%ADD34RoundRect,0.147500X-0.172500X0.147500X-0.172500X-0.147500X0.172500X-0.147500X0.172500X0.147500X0*%
%ADD35RoundRect,0.147500X0.172500X-0.147500X0.172500X0.147500X-0.172500X0.147500X-0.172500X-0.147500X0*%
%ADD36R,1.100000X0.900000*%
%ADD37RoundRect,0.250000X1.500000X-0.250000X1.500000X0.250000X-1.500000X0.250000X-1.500000X-0.250000X0*%
%ADD38RoundRect,0.234375X1.465625X-0.515625X1.465625X0.515625X-1.465625X0.515625X-1.465625X-0.515625X0*%
%ADD39RoundRect,0.112500X0.112500X-0.187500X0.112500X0.187500X-0.112500X0.187500X-0.112500X-0.187500X0*%
%ADD40RoundRect,0.087500X0.725000X0.087500X-0.725000X0.087500X-0.725000X-0.087500X0.725000X-0.087500X0*%
%ADD41RoundRect,0.150000X0.650000X0.150000X-0.650000X0.150000X-0.650000X-0.150000X0.650000X-0.150000X0*%
%ADD42RoundRect,0.147500X0.147500X0.172500X-0.147500X0.172500X-0.147500X-0.172500X0.147500X-0.172500X0*%
%ADD43RoundRect,0.200000X-0.200000X-1.800000X0.200000X-1.800000X0.200000X1.800000X-0.200000X1.800000X0*%
%ADD44RoundRect,0.133333X-0.266667X-1.866667X0.266667X-1.866667X0.266667X1.866667X-0.266667X1.866667X0*%
%ADD45RoundRect,0.113636X-0.386364X-0.636364X0.386364X-0.636364X0.386364X0.636364X-0.386364X0.636364X0*%
%ADD46RoundRect,0.225000X0.225000X0.250000X-0.225000X0.250000X-0.225000X-0.250000X0.225000X-0.250000X0*%
%ADD47RoundRect,0.250000X0.385000X1.350000X-0.385000X1.350000X-0.385000X-1.350000X0.385000X-1.350000X0*%
%ADD48RoundRect,0.250000X0.425000X1.600000X-0.425000X1.600000X-0.425000X-1.600000X0.425000X-1.600000X0*%
%ADD49RoundRect,0.147500X-0.147500X-0.172500X0.147500X-0.172500X0.147500X0.172500X-0.147500X0.172500X0*%
%ADD50RoundRect,0.062500X0.337500X0.062500X-0.337500X0.062500X-0.337500X-0.062500X0.337500X-0.062500X0*%
%ADD51RoundRect,0.062500X0.062500X0.337500X-0.062500X0.337500X-0.062500X-0.337500X0.062500X-0.337500X0*%
%ADD52C,0.550000*%
%ADD53R,2.500000X2.500000*%
%ADD54RoundRect,0.225000X0.250000X-0.225000X0.250000X0.225000X-0.250000X0.225000X-0.250000X-0.225000X0*%
%ADD55R,1.400000X1.200000*%
%ADD56RoundRect,0.147500X0.226274X0.017678X0.017678X0.226274X-0.226274X-0.017678X-0.017678X-0.226274X0*%
%ADD57R,1.200000X0.600000*%
%ADD58R,0.220000X0.320000*%
%ADD59RoundRect,0.150000X0.150000X-0.512500X0.150000X0.512500X-0.150000X0.512500X-0.150000X-0.512500X0*%
%ADD60RoundRect,0.150000X-0.512500X-0.150000X0.512500X-0.150000X0.512500X0.150000X-0.512500X0.150000X0*%
G04 APERTURE END LIST*
D10*
X53130500Y-60250000D02*
X54210500Y-60250000D01*
X54210500Y-90130000D01*
X53130500Y-90130000D01*
X53130500Y-60250000D01*
G36*
X53130500Y-60250000D02*
G01*
X54210500Y-60250000D01*
X54210500Y-90130000D01*
X53130500Y-90130000D01*
X53130500Y-60250000D01*
G37*
X53130500Y-60250000D02*
X57240500Y-60250000D01*
X57240500Y-61330000D01*
X53130500Y-61330000D01*
X53130500Y-60250000D01*
G36*
X53130500Y-60250000D02*
G01*
X57240500Y-60250000D01*
X57240500Y-61330000D01*
X53130500Y-61330000D01*
X53130500Y-60250000D01*
G37*
X53130500Y-74050000D02*
X74640500Y-74050000D01*
X74640500Y-75130000D01*
X53130500Y-75130000D01*
X53130500Y-74050000D01*
G36*
X53130500Y-74050000D02*
G01*
X74640500Y-74050000D01*
X74640500Y-75130000D01*
X53130500Y-75130000D01*
X53130500Y-74050000D01*
G37*
X53130500Y-78850000D02*
X54840500Y-78850000D01*
X54840500Y-79930000D01*
X53130500Y-79930000D01*
X53130500Y-78850000D01*
G36*
X53130500Y-78850000D02*
G01*
X54840500Y-78850000D01*
X54840500Y-79930000D01*
X53130500Y-79930000D01*
X53130500Y-78850000D01*
G37*
X53140500Y-89050000D02*
X69810500Y-89050000D01*
X69810500Y-90130000D01*
X53140500Y-90130000D01*
X53140500Y-89050000D01*
G36*
X53140500Y-89050000D02*
G01*
X69810500Y-89050000D01*
X69810500Y-90130000D01*
X53140500Y-90130000D01*
X53140500Y-89050000D01*
G37*
X55500500Y-78850000D02*
X78220500Y-78850000D01*
X78220500Y-79930000D01*
X55500500Y-79930000D01*
X55500500Y-78850000D01*
G36*
X55500500Y-78850000D02*
G01*
X78220500Y-78850000D01*
X78220500Y-79930000D01*
X55500500Y-79930000D01*
X55500500Y-78850000D01*
G37*
X57900500Y-60250000D02*
X78210500Y-60250000D01*
X78210500Y-61330000D01*
X57900500Y-61330000D01*
X57900500Y-60250000D01*
G36*
X57900500Y-60250000D02*
G01*
X78210500Y-60250000D01*
X78210500Y-61330000D01*
X57900500Y-61330000D01*
X57900500Y-60250000D01*
G37*
X58530500Y-60250000D02*
X59610500Y-60250000D01*
X59610500Y-65530000D01*
X58530500Y-65530000D01*
X58530500Y-60250000D01*
G36*
X58530500Y-60250000D02*
G01*
X59610500Y-60250000D01*
X59610500Y-65530000D01*
X58530500Y-65530000D01*
X58530500Y-60250000D01*
G37*
X58530500Y-64440000D02*
X59610500Y-64440000D01*
X59610500Y-70965000D01*
X58530500Y-70965000D01*
X58530500Y-64440000D01*
G36*
X58530500Y-64440000D02*
G01*
X59610500Y-64440000D01*
X59610500Y-70965000D01*
X58530500Y-70965000D01*
X58530500Y-64440000D01*
G37*
X58530500Y-71620000D02*
X59610500Y-71620000D01*
X59610500Y-75125000D01*
X58530500Y-75125000D01*
X58530500Y-71620000D01*
G36*
X58530500Y-71620000D02*
G01*
X59610500Y-71620000D01*
X59610500Y-75125000D01*
X58530500Y-75125000D01*
X58530500Y-71620000D01*
G37*
X63330500Y-74047500D02*
X64410500Y-74047500D01*
X64410500Y-78162500D01*
X63330500Y-78162500D01*
X63330500Y-74047500D01*
G36*
X63330500Y-74047500D02*
G01*
X64410500Y-74047500D01*
X64410500Y-78162500D01*
X63330500Y-78162500D01*
X63330500Y-74047500D01*
G37*
X68150000Y-114070000D02*
X68480000Y-114420000D01*
X68730500Y-81070000D02*
X69810500Y-81070000D01*
X69810500Y-90130000D01*
X68730500Y-90130000D01*
X68730500Y-81070000D01*
G36*
X68730500Y-81070000D02*
G01*
X69810500Y-81070000D01*
X69810500Y-90130000D01*
X68730500Y-90130000D01*
X68730500Y-81070000D01*
G37*
X75300500Y-74050000D02*
X78220500Y-74050000D01*
X78220500Y-75130000D01*
X75300500Y-75130000D01*
X75300500Y-74050000D01*
G36*
X75300500Y-74050000D02*
G01*
X78220500Y-74050000D01*
X78220500Y-75130000D01*
X75300500Y-75130000D01*
X75300500Y-74050000D01*
G37*
X77130500Y-60250000D02*
X78210500Y-60250000D01*
X78210500Y-67570000D01*
X77130500Y-67570000D01*
X77130500Y-60250000D01*
G36*
X77130500Y-60250000D02*
G01*
X78210500Y-60250000D01*
X78210500Y-67570000D01*
X77130500Y-67570000D01*
X77130500Y-60250000D01*
G37*
X77140500Y-69280000D02*
X78220500Y-69280000D01*
X78220500Y-79930000D01*
X77140500Y-79930000D01*
X77140500Y-69280000D01*
G36*
X77140500Y-69280000D02*
G01*
X78220500Y-69280000D01*
X78220500Y-79930000D01*
X77140500Y-79930000D01*
X77140500Y-69280000D01*
G37*
D11*
G36*
X35706656Y-78515576D02*
G01*
X35775418Y-78537019D01*
X35805355Y-78551475D01*
X35832907Y-78568338D01*
X35864508Y-78591020D01*
X35896972Y-78616787D01*
X35927114Y-78642903D01*
X35951746Y-78666633D01*
X35967684Y-78685239D01*
X35972033Y-78694600D01*
X35963472Y-78704210D01*
X35938659Y-78712691D01*
X35898904Y-78719853D01*
X35845513Y-78725509D01*
X35779795Y-78729470D01*
X35717066Y-78731331D01*
X35663314Y-78731808D01*
X35612492Y-78731383D01*
X35568548Y-78730152D01*
X35535428Y-78728213D01*
X35520651Y-78726461D01*
X35478262Y-78717450D01*
X35436147Y-78706031D01*
X35397257Y-78693333D01*
X35364547Y-78680482D01*
X35340969Y-78668604D01*
X35329475Y-78658826D01*
X35330233Y-78653807D01*
X35370591Y-78622805D01*
X35418060Y-78590987D01*
X35464934Y-78563339D01*
X35488927Y-78551124D01*
X35565027Y-78522631D01*
X35637065Y-78510781D01*
X35706656Y-78515576D01*
G37*
G36*
X34601876Y-77960694D02*
G01*
X34619596Y-77977746D01*
X34642738Y-78007136D01*
X34670177Y-78047124D01*
X34700784Y-78095969D01*
X34733432Y-78151930D01*
X34766992Y-78213269D01*
X34800338Y-78278243D01*
X34806501Y-78290745D01*
X34831591Y-78339535D01*
X34859415Y-78389697D01*
X34886740Y-78435614D01*
X34910333Y-78471673D01*
X34912272Y-78474395D01*
X34961836Y-78543288D01*
X34931005Y-78580914D01*
X34897500Y-78613900D01*
X34860843Y-78636872D01*
X34825718Y-78647029D01*
X34819995Y-78647281D01*
X34802020Y-78641000D01*
X34780025Y-78624962D01*
X34771568Y-78616730D01*
X34751939Y-78590915D01*
X34728537Y-78552352D01*
X34703256Y-78504936D01*
X34677994Y-78452565D01*
X34654646Y-78399133D01*
X34635109Y-78348538D01*
X34623318Y-78312097D01*
X34612538Y-78268441D01*
X34602971Y-78218714D01*
X34594897Y-78165971D01*
X34588597Y-78113268D01*
X34584353Y-78063658D01*
X34582446Y-78020197D01*
X34583157Y-77985941D01*
X34586767Y-77963942D01*
X34590709Y-77957720D01*
X34601876Y-77960694D01*
G37*
G36*
X35817088Y-77435707D02*
G01*
X35826362Y-77447938D01*
X35838198Y-77470197D01*
X35854452Y-77504697D01*
X35868436Y-77535097D01*
X35918826Y-77654615D01*
X35955465Y-77764119D01*
X35978303Y-77863412D01*
X35987291Y-77952297D01*
X35985752Y-78003638D01*
X35977390Y-78061560D01*
X35963461Y-78119195D01*
X35945674Y-78170538D01*
X35928220Y-78205697D01*
X35916738Y-78226078D01*
X35910741Y-78240121D01*
X35910489Y-78241749D01*
X35916437Y-78250179D01*
X35932800Y-78268472D01*
X35957357Y-78294264D01*
X35987887Y-78325190D01*
X36002127Y-78339309D01*
X36057071Y-78392141D01*
X36106159Y-78435582D01*
X36152187Y-78470875D01*
X36197953Y-78499263D01*
X36246254Y-78521991D01*
X36299888Y-78540302D01*
X36361652Y-78555440D01*
X36434342Y-78568649D01*
X36520757Y-78581172D01*
X36556699Y-78585871D01*
X36641038Y-78598049D01*
X36716816Y-78611714D01*
X36781678Y-78626345D01*
X36833275Y-78641422D01*
X36864418Y-78653941D01*
X36893514Y-78671821D01*
X36918383Y-78693458D01*
X36934842Y-78714700D01*
X36939150Y-78728097D01*
X36935849Y-78745062D01*
X36926789Y-78774846D01*
X36913237Y-78814146D01*
X36896456Y-78859662D01*
X36877713Y-78908091D01*
X36858272Y-78956131D01*
X36839399Y-79000481D01*
X36822359Y-79037840D01*
X36814044Y-79054563D01*
X36753501Y-79152831D01*
X36680410Y-79238912D01*
X36594639Y-79312918D01*
X36496054Y-79374959D01*
X36384521Y-79425147D01*
X36357119Y-79434992D01*
X36325294Y-79444772D01*
X36281197Y-79456741D01*
X36229799Y-79469625D01*
X36176068Y-79482152D01*
X36154719Y-79486846D01*
X36083985Y-79502936D01*
X36028085Y-79517797D01*
X35984408Y-79532412D01*
X35950346Y-79547767D01*
X35923287Y-79564846D01*
X35903809Y-79581488D01*
X35882424Y-79607183D01*
X35868408Y-79637631D01*
X35860600Y-79676776D01*
X35857838Y-79728562D01*
X35857787Y-79737836D01*
X35866320Y-79828518D01*
X35891446Y-79918962D01*
X35932252Y-80007258D01*
X35987826Y-80091497D01*
X36057257Y-80169769D01*
X36069852Y-80181856D01*
X36104426Y-80212620D01*
X36142378Y-80242768D01*
X36186163Y-80273965D01*
X36238238Y-80307876D01*
X36301058Y-80346164D01*
X36377079Y-80390496D01*
X36380860Y-80392665D01*
X36506372Y-80466698D01*
X36617786Y-80537027D01*
X36717675Y-80605536D01*
X36808615Y-80674109D01*
X36893178Y-80744632D01*
X36973939Y-80818987D01*
X37005199Y-80849669D01*
X37126148Y-80981580D01*
X37234759Y-81123756D01*
X37331420Y-81276924D01*
X37416519Y-81441808D01*
X37490446Y-81619135D01*
X37553588Y-81809631D01*
X37588788Y-81939873D01*
X37609502Y-82030238D01*
X37628028Y-82124592D01*
X37643787Y-82219013D01*
X37656197Y-82309580D01*
X37664680Y-82392371D01*
X37668656Y-82463463D01*
X37668883Y-82481659D01*
X37670407Y-82508950D01*
X37677410Y-82526577D01*
X37693541Y-82542365D01*
X37699259Y-82546813D01*
X37725166Y-82563668D01*
X37754898Y-82576772D01*
X37790368Y-82586295D01*
X37833490Y-82592411D01*
X37886176Y-82595290D01*
X37950341Y-82595105D01*
X38027897Y-82592028D01*
X38120759Y-82586230D01*
X38130462Y-82585543D01*
X38316792Y-82579084D01*
X38495960Y-82586678D01*
X38667263Y-82608132D01*
X38830001Y-82643256D01*
X38983472Y-82691860D01*
X39126975Y-82753752D01*
X39259809Y-82828741D01*
X39381272Y-82916638D01*
X39397985Y-82930515D01*
X39492519Y-83021253D01*
X39571809Y-83120663D01*
X39635667Y-83228338D01*
X39683908Y-83343869D01*
X39716344Y-83466849D01*
X39732790Y-83596872D01*
X39734961Y-83667265D01*
X39726485Y-83795320D01*
X39701643Y-83918221D01*
X39661132Y-84035067D01*
X39605646Y-84144961D01*
X39535882Y-84247003D01*
X39452536Y-84340293D01*
X39356303Y-84423933D01*
X39247878Y-84497024D01*
X39127959Y-84558666D01*
X39010326Y-84603760D01*
X38877589Y-84638274D01*
X38737085Y-84657886D01*
X38590556Y-84662482D01*
X38439748Y-84651947D01*
X38385429Y-84644534D01*
X38335589Y-84636843D01*
X38274689Y-84627410D01*
X38209042Y-84617215D01*
X38144959Y-84607238D01*
X38117274Y-84602918D01*
X38060707Y-84594459D01*
X38011591Y-84588181D01*
X37965305Y-84583760D01*
X37917227Y-84580871D01*
X37862735Y-84579191D01*
X37797209Y-84578395D01*
X37765595Y-84578247D01*
X37691687Y-84578364D01*
X37632103Y-84579364D01*
X37583598Y-84581418D01*
X37542926Y-84584701D01*
X37506842Y-84589385D01*
X37484252Y-84593275D01*
X37404050Y-84611732D01*
X37316496Y-84637676D01*
X37228764Y-84668682D01*
X37148027Y-84702328D01*
X37115768Y-84717744D01*
X37072925Y-84741021D01*
X37020149Y-84772417D01*
X36961449Y-84809339D01*
X36900835Y-84849192D01*
X36842316Y-84889382D01*
X36789902Y-84927314D01*
X36778023Y-84936292D01*
X36754004Y-84953534D01*
X36734858Y-84965291D01*
X36726207Y-84968707D01*
X36721259Y-84960306D01*
X36720537Y-84935026D01*
X36722390Y-84908837D01*
X36736426Y-84816974D01*
X36761540Y-84716529D01*
X36792436Y-84622982D01*
X36956734Y-84622982D01*
X36959363Y-84625460D01*
X36969154Y-84622017D01*
X36988965Y-84611372D01*
X37010296Y-84598966D01*
X37141761Y-84531492D01*
X37282484Y-84478391D01*
X37430170Y-84440433D01*
X37519953Y-84426821D01*
X37623044Y-84418892D01*
X37736122Y-84416620D01*
X37855864Y-84419979D01*
X37978949Y-84428942D01*
X38102054Y-84443481D01*
X38119353Y-84445998D01*
X38257984Y-84465395D01*
X38381643Y-84479792D01*
X38492240Y-84489108D01*
X38591685Y-84493262D01*
X38681888Y-84492173D01*
X38764758Y-84485758D01*
X38842207Y-84473937D01*
X38916143Y-84456628D01*
X38988477Y-84433750D01*
X39059434Y-84405939D01*
X39170598Y-84349855D01*
X39269422Y-84282136D01*
X39355343Y-84203925D01*
X39427794Y-84116364D01*
X39486211Y-84020595D01*
X39530028Y-83917761D01*
X39558681Y-83809004D01*
X39571604Y-83695467D01*
X39568232Y-83578290D01*
X39548001Y-83458618D01*
X39541213Y-83431998D01*
X39504823Y-83330747D01*
X39452533Y-83235229D01*
X39385282Y-83146111D01*
X39304009Y-83064060D01*
X39209653Y-82989744D01*
X39103151Y-82923829D01*
X38985444Y-82866983D01*
X38857469Y-82819872D01*
X38720166Y-82783165D01*
X38596436Y-82760584D01*
X38552787Y-82756083D01*
X38491892Y-82752748D01*
X38414050Y-82750581D01*
X38319560Y-82749585D01*
X38208721Y-82749763D01*
X38081832Y-82751120D01*
X37941434Y-82753611D01*
X37752407Y-82757526D01*
X37701894Y-82733854D01*
X37651381Y-82710181D01*
X37647221Y-82729458D01*
X37639926Y-82761897D01*
X37630825Y-82800412D01*
X37620955Y-82840852D01*
X37611351Y-82879069D01*
X37603050Y-82910913D01*
X37597088Y-82932234D01*
X37595085Y-82938204D01*
X37593542Y-82943403D01*
X37594826Y-82948521D01*
X37600660Y-82954450D01*
X37612766Y-82962085D01*
X37632869Y-82972317D01*
X37662689Y-82986041D01*
X37703952Y-83004148D01*
X37758378Y-83027532D01*
X37809555Y-83049361D01*
X37886513Y-83082731D01*
X37949252Y-83111403D01*
X38000095Y-83136649D01*
X38041361Y-83159741D01*
X38075371Y-83181952D01*
X38104448Y-83204554D01*
X38122967Y-83221156D01*
X38166599Y-83271192D01*
X38194173Y-83325063D01*
X38207213Y-83386265D01*
X38208751Y-83418179D01*
X38207640Y-83456233D01*
X38202413Y-83485658D01*
X38190986Y-83515288D01*
X38181167Y-83535139D01*
X38168073Y-83561049D01*
X38161946Y-83577169D01*
X38164593Y-83584019D01*
X38177820Y-83582120D01*
X38203433Y-83571992D01*
X38243238Y-83554157D01*
X38244757Y-83553469D01*
X38306317Y-83517164D01*
X38364126Y-83467331D01*
X38414608Y-83408023D01*
X38454189Y-83343294D01*
X38474916Y-83292533D01*
X38483949Y-83266894D01*
X38491793Y-83249804D01*
X38495599Y-83245481D01*
X38505919Y-83253564D01*
X38515960Y-83275019D01*
X38524562Y-83305658D01*
X38530565Y-83341291D01*
X38532807Y-83377729D01*
X38532798Y-83379770D01*
X38526495Y-83448803D01*
X38507730Y-83508066D01*
X38474727Y-83561756D01*
X38438885Y-83601556D01*
X38399183Y-83637222D01*
X38357310Y-83667419D01*
X38310639Y-83693270D01*
X38256539Y-83715900D01*
X38192380Y-83736432D01*
X38115532Y-83755990D01*
X38038442Y-83772653D01*
X37870775Y-83814064D01*
X37715931Y-83867424D01*
X37573669Y-83932915D01*
X37443746Y-84010719D01*
X37325921Y-84101015D01*
X37219952Y-84203987D01*
X37125596Y-84319815D01*
X37042611Y-84448681D01*
X36983146Y-84563636D01*
X36970150Y-84591809D01*
X36960722Y-84612954D01*
X36956758Y-84622808D01*
X36956734Y-84622982D01*
X36792436Y-84622982D01*
X36796301Y-84611279D01*
X36839282Y-84505004D01*
X36889054Y-84401482D01*
X36944188Y-84304491D01*
X36960707Y-84278537D01*
X36991385Y-84232986D01*
X37020663Y-84193086D01*
X37051980Y-84154656D01*
X37088775Y-84113518D01*
X37134486Y-84065492D01*
X37144251Y-84055460D01*
X37222547Y-83980184D01*
X37304453Y-83911753D01*
X37392582Y-83848468D01*
X37489545Y-83788631D01*
X37597955Y-83730542D01*
X37720422Y-83672505D01*
X37760160Y-83654908D01*
X37834023Y-83621865D01*
X37893245Y-83593349D01*
X37939780Y-83568083D01*
X37975584Y-83544792D01*
X38002615Y-83522199D01*
X38022828Y-83499027D01*
X38038180Y-83474001D01*
X38038531Y-83473316D01*
X38053102Y-83428424D01*
X38050361Y-83385601D01*
X38030534Y-83345604D01*
X37993844Y-83309194D01*
X37989001Y-83305594D01*
X37973611Y-83296672D01*
X37945426Y-83282442D01*
X37907068Y-83264070D01*
X37861161Y-83242724D01*
X37810331Y-83219569D01*
X37757200Y-83195772D01*
X37704393Y-83172498D01*
X37654533Y-83150916D01*
X37610245Y-83132191D01*
X37574153Y-83117489D01*
X37548880Y-83107976D01*
X37537307Y-83104809D01*
X37528557Y-83111555D01*
X37528212Y-83114083D01*
X37524623Y-83124733D01*
X37514675Y-83148467D01*
X37499595Y-83182507D01*
X37480608Y-83224072D01*
X37463209Y-83261349D01*
X37441349Y-83308160D01*
X37421787Y-83350818D01*
X37405924Y-83386205D01*
X37395163Y-83411202D01*
X37391263Y-83421320D01*
X37388507Y-83438431D01*
X37386113Y-83468848D01*
X37384336Y-83508294D01*
X37383430Y-83552494D01*
X37383424Y-83553200D01*
X37382474Y-83604926D01*
X37379361Y-83646309D01*
X37372296Y-83678611D01*
X37359486Y-83703097D01*
X37339139Y-83721030D01*
X37309464Y-83733675D01*
X37268669Y-83742294D01*
X37214963Y-83748152D01*
X37146554Y-83752513D01*
X37097405Y-83754951D01*
X36886107Y-83764126D01*
X36689074Y-83770768D01*
X36503174Y-83774886D01*
X36325273Y-83776486D01*
X36152237Y-83775578D01*
X35980933Y-83772168D01*
X35808227Y-83766264D01*
X35643761Y-83758551D01*
X35586352Y-83754478D01*
X35543469Y-83748350D01*
X35512073Y-83738952D01*
X35489127Y-83725071D01*
X35471593Y-83705494D01*
X35459414Y-83684904D01*
X35445902Y-83640675D01*
X35447644Y-83592350D01*
X35463294Y-83541630D01*
X35491507Y-83490221D01*
X35530937Y-83439825D01*
X35580238Y-83392146D01*
X35638064Y-83348886D01*
X35703070Y-83311750D01*
X35773910Y-83282441D01*
X35778610Y-83280872D01*
X35829724Y-83268319D01*
X35893398Y-83259624D01*
X35930690Y-83256832D01*
X35968220Y-83254095D01*
X35997344Y-83250684D01*
X36014851Y-83247062D01*
X36018188Y-83244159D01*
X36007889Y-83236813D01*
X35985933Y-83222834D01*
X35955857Y-83204433D01*
X35930851Y-83189508D01*
X35844699Y-83134349D01*
X35754148Y-83067866D01*
X35656955Y-82988392D01*
X35639429Y-82973312D01*
X35609737Y-82948108D01*
X35585211Y-82928260D01*
X35568653Y-82915974D01*
X35562928Y-82913130D01*
X35559099Y-82921865D01*
X35549858Y-82944981D01*
X35536008Y-82980407D01*
X35518350Y-83026077D01*
X35497689Y-83079920D01*
X35474826Y-83139868D01*
X35467987Y-83157865D01*
X35432878Y-83250013D01*
X35402192Y-83329744D01*
X35374306Y-83401150D01*
X35347597Y-83468326D01*
X35320442Y-83535364D01*
X35291218Y-83606359D01*
X35268950Y-83659909D01*
X35242308Y-83712287D01*
X35208380Y-83761849D01*
X35170620Y-83804365D01*
X35132481Y-83835606D01*
X35119206Y-83843338D01*
X35091983Y-83853987D01*
X35056384Y-83863787D01*
X35030086Y-83868939D01*
X34994103Y-83873496D01*
X34945921Y-83878144D01*
X34889399Y-83882656D01*
X34828396Y-83886802D01*
X34766773Y-83890355D01*
X34708388Y-83893085D01*
X34657102Y-83894765D01*
X34616773Y-83895165D01*
X34597211Y-83894567D01*
X34541693Y-83884424D01*
X34496844Y-83862335D01*
X34464303Y-83829295D01*
X34452236Y-83806789D01*
X34437834Y-83771795D01*
X34243336Y-83777916D01*
X34179993Y-83779849D01*
X34131859Y-83781044D01*
X34096570Y-83781368D01*
X34071761Y-83780686D01*
X34055068Y-83778865D01*
X34044126Y-83775772D01*
X34036570Y-83771273D01*
X34030702Y-83765901D01*
X34008091Y-83731468D01*
X34001640Y-83706340D01*
X34612538Y-83706340D01*
X34612765Y-83722571D01*
X34627985Y-83731581D01*
X34629060Y-83731810D01*
X34648455Y-83733417D01*
X34681525Y-83733792D01*
X34724417Y-83733089D01*
X34773278Y-83731465D01*
X34824252Y-83729075D01*
X34873488Y-83726075D01*
X34917131Y-83722621D01*
X34951328Y-83718868D01*
X34952165Y-83718753D01*
X34982847Y-83714285D01*
X35008969Y-83709164D01*
X35031532Y-83701961D01*
X35051540Y-83691244D01*
X35069994Y-83675584D01*
X35087896Y-83653550D01*
X35106249Y-83623712D01*
X35126054Y-83584639D01*
X35148314Y-83534902D01*
X35174030Y-83473069D01*
X35204206Y-83397712D01*
X35239147Y-83309164D01*
X35262832Y-83248780D01*
X35286382Y-83188298D01*
X35308335Y-83131508D01*
X35327227Y-83082198D01*
X35341596Y-83044158D01*
X35345187Y-83034474D01*
X35363232Y-82984521D01*
X35385762Y-82920651D01*
X35411830Y-82845672D01*
X35440486Y-82762388D01*
X35470782Y-82673607D01*
X35501770Y-82582135D01*
X35532500Y-82490779D01*
X35562024Y-82402344D01*
X35589393Y-82319638D01*
X35613660Y-82245466D01*
X35633874Y-82182636D01*
X35643870Y-82150881D01*
X35701301Y-81966249D01*
X35695250Y-81887122D01*
X35691483Y-81837844D01*
X35687249Y-81782424D01*
X35683418Y-81732252D01*
X35683159Y-81728866D01*
X35682428Y-81615751D01*
X35698093Y-81508711D01*
X35730300Y-81407101D01*
X35777996Y-81312268D01*
X35806718Y-81267046D01*
X35835072Y-81227000D01*
X35861091Y-81194546D01*
X35882810Y-81172101D01*
X35898262Y-81162084D01*
X35900416Y-81161784D01*
X35907490Y-81169889D01*
X35909147Y-81193267D01*
X35905540Y-81230512D01*
X35896823Y-81280219D01*
X35883147Y-81340983D01*
X35879121Y-81357146D01*
X35860019Y-81433854D01*
X35845406Y-81496630D01*
X35834961Y-81548452D01*
X35828366Y-81592304D01*
X35825301Y-81631164D01*
X35825445Y-81668014D01*
X35828479Y-81705834D01*
X35834084Y-81747606D01*
X35835948Y-81759638D01*
X35846210Y-81828770D01*
X35852700Y-81884300D01*
X35855485Y-81929785D01*
X35854632Y-81968783D01*
X35850205Y-82004853D01*
X35842274Y-82041551D01*
X35841294Y-82045377D01*
X35834266Y-82070185D01*
X35822438Y-82109229D01*
X35806584Y-82160067D01*
X35787479Y-82220258D01*
X35765896Y-82287361D01*
X35742611Y-82358933D01*
X35721407Y-82423432D01*
X35619735Y-82731151D01*
X35701370Y-82809339D01*
X35808313Y-82906720D01*
X35910725Y-82989228D01*
X36010753Y-83058260D01*
X36110544Y-83115209D01*
X36212243Y-83161472D01*
X36282950Y-83187327D01*
X36325458Y-83200878D01*
X36352269Y-83207748D01*
X36364043Y-83207705D01*
X36361443Y-83200519D01*
X36345128Y-83185959D01*
X36326877Y-83171981D01*
X36297953Y-83148485D01*
X36262775Y-83117007D01*
X36226882Y-83082603D01*
X36208857Y-83064279D01*
X36120990Y-82960981D01*
X36049178Y-82851713D01*
X35993582Y-82737484D01*
X35954363Y-82619300D01*
X35931684Y-82498171D01*
X35925705Y-82375102D01*
X35936588Y-82251102D01*
X35964494Y-82127179D01*
X36009584Y-82004340D01*
X36031605Y-81957457D01*
X36093144Y-81848668D01*
X36161101Y-81756135D01*
X36235662Y-81679671D01*
X36317018Y-81619087D01*
X36405357Y-81574195D01*
X36423271Y-81567306D01*
X36452759Y-81557270D01*
X36479207Y-81550619D01*
X36507638Y-81546687D01*
X36543079Y-81544803D01*
X36590555Y-81544300D01*
X36596263Y-81544300D01*
X36661269Y-81546127D01*
X36716538Y-81552481D01*
X36767966Y-81564797D01*
X36821449Y-81584513D01*
X36882883Y-81613063D01*
X36887042Y-81615135D01*
X36971823Y-81665084D01*
X37047760Y-81725012D01*
X37113191Y-81792865D01*
X37166455Y-81866586D01*
X37205891Y-81944122D01*
X37229836Y-82023417D01*
X37233193Y-82043179D01*
X37235429Y-82072038D01*
X37231546Y-82084421D01*
X37229609Y-82084941D01*
X37220373Y-82078906D01*
X37201582Y-82062340D01*
X37175698Y-82037550D01*
X37145181Y-82006842D01*
X37134557Y-81995848D01*
X37041066Y-81905880D01*
X36949262Y-81832743D01*
X36858319Y-81775865D01*
X36767413Y-81734672D01*
X36749941Y-81728526D01*
X36684526Y-81712726D01*
X36614331Y-81706311D01*
X36545638Y-81709389D01*
X36484724Y-81722074D01*
X36479636Y-81723760D01*
X36401948Y-81759640D01*
X36329826Y-81811389D01*
X36264110Y-81877938D01*
X36205638Y-81958221D01*
X36155249Y-82051168D01*
X36113783Y-82155712D01*
X36096993Y-82210787D01*
X36088431Y-82255471D01*
X36083192Y-82312085D01*
X36081257Y-82375295D01*
X36082609Y-82439768D01*
X36087231Y-82500169D01*
X36095103Y-82551165D01*
X36098168Y-82564103D01*
X36114560Y-82614121D01*
X36138839Y-82672901D01*
X36168374Y-82735117D01*
X36200532Y-82795441D01*
X36232681Y-82848547D01*
X36253135Y-82877738D01*
X36325488Y-82961904D01*
X36414825Y-83046529D01*
X36520571Y-83131142D01*
X36642152Y-83215270D01*
X36730630Y-83270203D01*
X36773789Y-83296182D01*
X36803438Y-83314860D01*
X36821336Y-83327656D01*
X36829244Y-83335989D01*
X36828920Y-83341278D01*
X36822945Y-83344644D01*
X36805819Y-83347971D01*
X36772611Y-83351521D01*
X36724823Y-83355212D01*
X36663955Y-83358958D01*
X36591506Y-83362675D01*
X36508979Y-83366281D01*
X36417872Y-83369690D01*
X36319686Y-83372820D01*
X36319316Y-83372831D01*
X36210416Y-83376645D01*
X36117088Y-83381417D01*
X36037332Y-83387431D01*
X35969148Y-83394974D01*
X35910537Y-83404332D01*
X35859500Y-83415789D01*
X35814036Y-83429631D01*
X35772146Y-83446144D01*
X35756744Y-83453181D01*
X35719135Y-83474243D01*
X35683141Y-83500132D01*
X35651265Y-83528281D01*
X35626014Y-83556126D01*
X35609890Y-83581102D01*
X35605400Y-83600643D01*
X35607326Y-83606210D01*
X35618106Y-83610377D01*
X35641611Y-83613416D01*
X35672990Y-83614730D01*
X35676610Y-83614744D01*
X35709956Y-83614304D01*
X35730128Y-83612100D01*
X35741530Y-83606798D01*
X35748567Y-83597068D01*
X35750842Y-83592307D01*
X35768445Y-83571091D01*
X35800642Y-83554074D01*
X35848653Y-83540665D01*
X35863744Y-83537721D01*
X35897689Y-83533098D01*
X35916082Y-83535333D01*
X35920021Y-83545629D01*
X35910605Y-83565191D01*
X35901230Y-83578826D01*
X35886705Y-83600482D01*
X35878565Y-83615846D01*
X35877954Y-83620307D01*
X35887154Y-83623642D01*
X35907798Y-83626253D01*
X35940546Y-83628140D01*
X35986054Y-83629303D01*
X36044980Y-83629741D01*
X36117982Y-83629453D01*
X36205719Y-83628441D01*
X36308847Y-83626702D01*
X36428024Y-83624237D01*
X36563910Y-83621046D01*
X36609451Y-83619911D01*
X36709292Y-83617341D01*
X36804253Y-83614799D01*
X36892822Y-83612331D01*
X36973490Y-83609983D01*
X37044746Y-83607803D01*
X37105080Y-83605836D01*
X37152980Y-83604131D01*
X37186938Y-83602733D01*
X37205442Y-83601689D01*
X37208202Y-83601376D01*
X37216144Y-83598487D01*
X37221672Y-83591739D01*
X37225450Y-83578080D01*
X37228143Y-83554457D01*
X37230416Y-83517818D01*
X37231586Y-83494013D01*
X37234071Y-83451001D01*
X37237707Y-83414387D01*
X37243489Y-83381027D01*
X37252409Y-83347775D01*
X37265460Y-83311486D01*
X37283636Y-83269016D01*
X37307929Y-83217220D01*
X37339230Y-83153165D01*
X37383941Y-83059132D01*
X37419570Y-82975499D01*
X37447157Y-82898289D01*
X37467741Y-82823523D01*
X37482360Y-82747221D01*
X37492053Y-82665407D01*
X37497860Y-82574100D01*
X37499110Y-82540907D01*
X37498487Y-82377283D01*
X37485324Y-82218355D01*
X37459015Y-82059661D01*
X37418955Y-81896740D01*
X37405448Y-81850606D01*
X37348760Y-81682137D01*
X37283624Y-81525216D01*
X37209092Y-81378746D01*
X37124220Y-81241630D01*
X37028062Y-81112773D01*
X36919671Y-80991078D01*
X36798103Y-80875447D01*
X36662410Y-80764785D01*
X36511648Y-80657995D01*
X36344870Y-80553981D01*
X36231396Y-80489518D01*
X36109291Y-80415472D01*
X36004037Y-80336721D01*
X35915513Y-80253153D01*
X35843596Y-80164657D01*
X35802101Y-80097956D01*
X35776684Y-80045248D01*
X35752794Y-79984358D01*
X35732502Y-79921516D01*
X35717879Y-79862951D01*
X35712041Y-79827082D01*
X35705885Y-79771611D01*
X35658268Y-79861305D01*
X35619411Y-79933433D01*
X35582121Y-80000155D01*
X35544355Y-80064825D01*
X35504074Y-80130799D01*
X35459234Y-80201431D01*
X35407795Y-80280075D01*
X35357643Y-80355304D01*
X35295514Y-80448064D01*
X35242297Y-80527924D01*
X35196983Y-80596500D01*
X35158563Y-80655411D01*
X35126025Y-80706271D01*
X35098359Y-80750698D01*
X35074556Y-80790308D01*
X35053605Y-80826717D01*
X35034496Y-80861543D01*
X35016218Y-80896401D01*
X35002016Y-80924401D01*
X34953869Y-81026582D01*
X34917127Y-81118876D01*
X34890872Y-81203939D01*
X34874183Y-81284427D01*
X34871895Y-81300346D01*
X34866935Y-81343074D01*
X34865543Y-81376001D01*
X34867934Y-81406583D01*
X34874324Y-81442282D01*
X34876250Y-81451385D01*
X34885652Y-81491167D01*
X34896460Y-81527039D01*
X34910288Y-81562763D01*
X34928752Y-81602101D01*
X34953468Y-81648816D01*
X34985325Y-81705403D01*
X35029567Y-81785628D01*
X35066639Y-81860381D01*
X35096777Y-81931750D01*
X35120218Y-82001825D01*
X35137197Y-82072693D01*
X35147950Y-82146444D01*
X35152712Y-82225164D01*
X35151719Y-82310944D01*
X35145206Y-82405870D01*
X35133410Y-82512033D01*
X35116567Y-82631520D01*
X35100954Y-82729971D01*
X35076274Y-82868794D01*
X35049550Y-82997639D01*
X35021189Y-83114921D01*
X34991600Y-83219058D01*
X34961189Y-83308467D01*
X34936433Y-83368568D01*
X34901163Y-83435561D01*
X34860178Y-83491256D01*
X34809497Y-83540243D01*
X34749056Y-83584539D01*
X34695563Y-83621986D01*
X34654562Y-83655280D01*
X34626679Y-83683654D01*
X34612538Y-83706340D01*
X34001640Y-83706340D01*
X33996654Y-83686919D01*
X33995904Y-83635300D01*
X33998464Y-83620224D01*
X34143303Y-83620224D01*
X34151519Y-83621925D01*
X34173934Y-83622632D01*
X34207198Y-83622464D01*
X34247961Y-83621542D01*
X34292873Y-83619985D01*
X34338585Y-83617912D01*
X34381746Y-83615443D01*
X34419007Y-83612698D01*
X34447019Y-83609796D01*
X34451022Y-83609236D01*
X34474964Y-83603912D01*
X34493481Y-83593836D01*
X34512318Y-83575115D01*
X34525863Y-83558495D01*
X34553272Y-83529284D01*
X34590442Y-83497314D01*
X34631367Y-83467740D01*
X34680775Y-83433957D01*
X34717934Y-83404238D01*
X34746354Y-83374851D01*
X34769547Y-83342065D01*
X34791025Y-83302149D01*
X34795006Y-83293865D01*
X34832754Y-83202663D01*
X34867467Y-83094921D01*
X34898964Y-82971449D01*
X34927063Y-82833057D01*
X34951581Y-82680556D01*
X34972336Y-82514756D01*
X34974512Y-82494506D01*
X34979526Y-82445122D01*
X34982386Y-82410009D01*
X34983075Y-82385983D01*
X34981578Y-82369862D01*
X34977877Y-82358464D01*
X34973765Y-82351282D01*
X34957977Y-82329239D01*
X34933431Y-82297561D01*
X34901674Y-82258050D01*
X34864255Y-82212511D01*
X34822722Y-82162747D01*
X34778622Y-82110560D01*
X34733503Y-82057753D01*
X34688913Y-82006130D01*
X34646401Y-81957494D01*
X34607513Y-81913648D01*
X34573798Y-81876395D01*
X34546804Y-81847538D01*
X34528078Y-81828881D01*
X34519694Y-81822340D01*
X34514495Y-81826206D01*
X34515920Y-81835527D01*
X34525762Y-81872444D01*
X34536853Y-81923935D01*
X34548752Y-81987071D01*
X34561019Y-82058922D01*
X34573210Y-82136562D01*
X34584886Y-82217059D01*
X34595604Y-82297486D01*
X34604924Y-82374915D01*
X34612404Y-82446415D01*
X34617603Y-82509059D01*
X34617758Y-82511351D01*
X34624318Y-82645226D01*
X34625887Y-82773705D01*
X34622571Y-82894319D01*
X34614473Y-83004600D01*
X34601701Y-83102077D01*
X34590049Y-83161310D01*
X34569382Y-83237444D01*
X34544918Y-83298592D01*
X34514415Y-83347281D01*
X34475630Y-83386041D01*
X34426321Y-83417400D01*
X34364245Y-83443887D01*
X34328979Y-83455699D01*
X34289694Y-83469494D01*
X34253249Y-83484871D01*
X34225487Y-83499271D01*
X34217844Y-83504394D01*
X34200158Y-83522039D01*
X34180450Y-83547738D01*
X34162131Y-83576191D01*
X34148612Y-83602096D01*
X34143304Y-83620154D01*
X34143303Y-83620224D01*
X33998464Y-83620224D01*
X34005354Y-83579657D01*
X34024517Y-83523035D01*
X34052906Y-83468479D01*
X34085319Y-83424384D01*
X34127805Y-83383185D01*
X34178803Y-83349511D01*
X34241787Y-83321310D01*
X34284313Y-83306920D01*
X34322008Y-83294128D01*
X34354431Y-83281003D01*
X34377090Y-83269470D01*
X34384136Y-83264111D01*
X34405775Y-83230567D01*
X34425002Y-83181500D01*
X34441529Y-83118843D01*
X34455072Y-83044529D01*
X34465345Y-82960489D01*
X34472061Y-82868657D01*
X34474935Y-82770964D01*
X34473681Y-82669342D01*
X34473383Y-82660815D01*
X34463819Y-82486751D01*
X34447796Y-82321793D01*
X34424458Y-82159952D01*
X34392949Y-81995241D01*
X34354495Y-81829974D01*
X34332632Y-81745106D01*
X34312828Y-81674494D01*
X34293927Y-81615103D01*
X34274772Y-81563902D01*
X34254205Y-81517858D01*
X34231070Y-81473939D01*
X34204209Y-81429112D01*
X34197529Y-81418584D01*
X34104671Y-81261641D01*
X34027841Y-81105333D01*
X33965864Y-80946660D01*
X33917564Y-80782627D01*
X33882860Y-80616682D01*
X33878026Y-80581007D01*
X33873322Y-80533019D01*
X33869174Y-80477985D01*
X33866011Y-80421172D01*
X33865038Y-80396883D01*
X33865759Y-80329933D01*
X34029219Y-80329933D01*
X34032443Y-80450949D01*
X34037218Y-80506782D01*
X34064756Y-80680840D01*
X34109125Y-80853215D01*
X34169573Y-81021871D01*
X34245352Y-81184769D01*
X34335711Y-81339875D01*
X34354533Y-81368395D01*
X34371368Y-81391548D01*
X34398155Y-81426059D01*
X34433311Y-81470016D01*
X34475250Y-81521506D01*
X34522389Y-81578617D01*
X34573143Y-81639437D01*
X34625929Y-81702053D01*
X34679162Y-81764552D01*
X34731258Y-81825023D01*
X34762370Y-81860746D01*
X34788308Y-81890714D01*
X34821598Y-81929654D01*
X34858364Y-81973007D01*
X34894726Y-82016212D01*
X34902882Y-82025956D01*
X34932921Y-82061381D01*
X34958940Y-82091100D01*
X34978932Y-82112899D01*
X34990890Y-82124559D01*
X34993325Y-82125839D01*
X34993232Y-82116057D01*
X34989285Y-82094195D01*
X34982815Y-82066887D01*
X34949884Y-81966266D01*
X34901472Y-81859139D01*
X34884550Y-81826851D01*
X34838983Y-81740563D01*
X34802326Y-81666646D01*
X34773765Y-81602819D01*
X34752489Y-81546801D01*
X34737684Y-81496311D01*
X34728536Y-81449068D01*
X34724235Y-81402791D01*
X34723640Y-81375360D01*
X34729702Y-81292596D01*
X34747193Y-81199314D01*
X34775365Y-81097685D01*
X34813474Y-80989882D01*
X34860774Y-80878076D01*
X34916519Y-80764437D01*
X34961513Y-80682622D01*
X34981078Y-80649929D01*
X35008093Y-80606594D01*
X35040082Y-80556490D01*
X35074574Y-80503492D01*
X35109093Y-80451475D01*
X35109300Y-80451167D01*
X35167000Y-80364967D01*
X35216130Y-80291012D01*
X35258102Y-80227071D01*
X35294332Y-80170916D01*
X35326234Y-80120315D01*
X35355220Y-80073041D01*
X35382706Y-80026862D01*
X35410105Y-79979549D01*
X35425280Y-79952888D01*
X35487256Y-79845134D01*
X35543157Y-79752113D01*
X35594247Y-79672578D01*
X35641790Y-79605283D01*
X35687050Y-79548981D01*
X35731290Y-79502424D01*
X35775774Y-79464368D01*
X35821766Y-79433564D01*
X35870529Y-79408767D01*
X35923328Y-79388729D01*
X35981426Y-79372205D01*
X36023748Y-79362520D01*
X36098389Y-79346616D01*
X36158269Y-79333594D01*
X36205855Y-79322827D01*
X36243616Y-79313687D01*
X36274021Y-79305545D01*
X36299537Y-79297773D01*
X36322633Y-79289743D01*
X36345777Y-79280827D01*
X36347610Y-79280094D01*
X36450670Y-79230523D01*
X36545837Y-79166920D01*
X36572640Y-79145431D01*
X36600430Y-79120583D01*
X36613612Y-79104747D01*
X36612300Y-79098277D01*
X36596610Y-79101526D01*
X36566656Y-79114847D01*
X36563213Y-79116578D01*
X36507875Y-79141454D01*
X36445493Y-79163181D01*
X36373905Y-79182270D01*
X36290953Y-79199234D01*
X36194476Y-79214587D01*
X36097471Y-79227077D01*
X36041567Y-79234016D01*
X35986002Y-79241542D01*
X35935552Y-79248963D01*
X35894994Y-79255591D01*
X35877671Y-79258843D01*
X35738331Y-79295980D01*
X35605620Y-79349236D01*
X35479495Y-79418650D01*
X35359912Y-79504261D01*
X35246827Y-79606107D01*
X35140197Y-79724227D01*
X35039977Y-79858659D01*
X34946126Y-80009442D01*
X34873392Y-80146312D01*
X34820378Y-80257639D01*
X34775341Y-80362476D01*
X34736228Y-80466401D01*
X34700987Y-80574991D01*
X34667565Y-80693828D01*
X34657198Y-80733832D01*
X34646109Y-80776124D01*
X34636073Y-80812116D01*
X34628075Y-80838438D01*
X34623097Y-80851720D01*
X34622556Y-80852509D01*
X34613256Y-80852933D01*
X34603559Y-80838841D01*
X34594735Y-80813220D01*
X34588054Y-80779059D01*
X34586725Y-80768221D01*
X34584762Y-80696865D01*
X34592363Y-80612899D01*
X34609062Y-80518155D01*
X34634392Y-80414467D01*
X34667888Y-80303666D01*
X34709083Y-80187585D01*
X34757509Y-80068056D01*
X34775235Y-80027636D01*
X34841948Y-79894408D01*
X34920157Y-79766212D01*
X35008170Y-79644919D01*
X35104293Y-79532404D01*
X35206830Y-79430538D01*
X35314090Y-79341196D01*
X35424378Y-79266249D01*
X35502694Y-79223246D01*
X35575469Y-79189759D01*
X35648108Y-79161828D01*
X35723703Y-79138703D01*
X35805349Y-79119631D01*
X35896137Y-79103858D01*
X35999163Y-79090633D01*
X36081933Y-79082332D01*
X36191021Y-79070620D01*
X36284914Y-79056514D01*
X36365907Y-79039436D01*
X36436296Y-79018812D01*
X36498375Y-78994064D01*
X36554439Y-78964617D01*
X36556949Y-78963117D01*
X36587596Y-78943201D01*
X36618874Y-78920404D01*
X36647379Y-78897527D01*
X36669709Y-78877371D01*
X36682462Y-78862737D01*
X36684183Y-78858404D01*
X36676203Y-78853779D01*
X36655385Y-78848813D01*
X36629233Y-78844963D01*
X36599456Y-78841083D01*
X36576923Y-78837247D01*
X36567469Y-78834653D01*
X36568426Y-78826163D01*
X36578409Y-78808983D01*
X36587251Y-78797022D01*
X36602707Y-78776734D01*
X36612300Y-78762652D01*
X36613847Y-78759315D01*
X36605319Y-78755010D01*
X36580540Y-78748829D01*
X36540713Y-78741000D01*
X36487046Y-78731757D01*
X36420741Y-78721329D01*
X36398444Y-78717987D01*
X36314847Y-78703598D01*
X36242757Y-78686112D01*
X36178739Y-78663763D01*
X36119360Y-78634788D01*
X36061188Y-78597424D01*
X36000787Y-78549906D01*
X35934726Y-78490470D01*
X35910396Y-78467264D01*
X35833624Y-78396483D01*
X35763661Y-78339432D01*
X35698205Y-78294804D01*
X35634954Y-78261291D01*
X35571603Y-78237586D01*
X35505851Y-78222380D01*
X35470498Y-78217459D01*
X35384973Y-78214157D01*
X35293632Y-78223158D01*
X35193534Y-78244765D01*
X35185712Y-78246870D01*
X35148846Y-78256549D01*
X35117472Y-78264117D01*
X35096070Y-78268527D01*
X35090159Y-78269226D01*
X35080390Y-78262059D01*
X35063815Y-78242314D01*
X35042449Y-78212622D01*
X35018310Y-78175614D01*
X35017748Y-78174712D01*
X34958070Y-78082780D01*
X34901567Y-78004281D01*
X34845572Y-77936067D01*
X34787420Y-77874985D01*
X34724444Y-77817885D01*
X34695726Y-77794181D01*
X34649685Y-77757874D01*
X34605664Y-77724540D01*
X34565993Y-77695823D01*
X34533001Y-77673365D01*
X34509018Y-77658807D01*
X34496547Y-77653788D01*
X34488449Y-77661652D01*
X34476465Y-77683186D01*
X34462038Y-77715303D01*
X34446613Y-77754918D01*
X34438633Y-77777585D01*
X34408231Y-77888229D01*
X34389076Y-78005333D01*
X34381634Y-78123617D01*
X34386371Y-78237802D01*
X34393309Y-78290829D01*
X34418442Y-78403698D01*
X34455817Y-78515288D01*
X34503523Y-78620874D01*
X34559647Y-78715731D01*
X34573001Y-78734783D01*
X34593444Y-78763248D01*
X34610249Y-78787063D01*
X34620407Y-78801950D01*
X34621502Y-78803688D01*
X34619012Y-78816332D01*
X34602974Y-78839549D01*
X34573629Y-78872998D01*
X34570176Y-78876676D01*
X34477419Y-78985468D01*
X34390055Y-79108649D01*
X34309499Y-79243481D01*
X34237167Y-79387224D01*
X34174477Y-79537140D01*
X34122843Y-79690488D01*
X34094437Y-79796726D01*
X34067085Y-79929083D01*
X34046875Y-80064841D01*
X34034141Y-80199844D01*
X34029219Y-80329933D01*
X33865759Y-80329933D01*
X33866983Y-80216183D01*
X33884656Y-80032219D01*
X33917313Y-79847294D01*
X33964208Y-79663707D01*
X34024597Y-79483760D01*
X34097736Y-79309753D01*
X34182878Y-79143988D01*
X34279280Y-78988765D01*
X34353931Y-78886501D01*
X34380266Y-78852474D01*
X34402151Y-78823564D01*
X34417559Y-78802497D01*
X34424463Y-78791997D01*
X34424646Y-78791431D01*
X34420604Y-78782422D01*
X34409582Y-78761218D01*
X34393241Y-78730940D01*
X34373241Y-78694708D01*
X34372223Y-78692882D01*
X34316671Y-78577613D01*
X34273531Y-78454728D01*
X34244932Y-78330374D01*
X34243516Y-78321686D01*
X34236327Y-78256145D01*
X34233027Y-78179117D01*
X34233499Y-78096237D01*
X34237624Y-78013141D01*
X34245286Y-77935462D01*
X34252591Y-77887868D01*
X34263888Y-77835394D01*
X34279165Y-77777857D01*
X34297435Y-77717839D01*
X34317711Y-77657924D01*
X34339007Y-77600696D01*
X34360336Y-77548738D01*
X34380712Y-77504633D01*
X34399148Y-77470966D01*
X34414659Y-77450319D01*
X34421527Y-77445471D01*
X34439111Y-77446480D01*
X34468200Y-77457112D01*
X34506565Y-77476010D01*
X34551978Y-77501814D01*
X34602210Y-77533167D01*
X34655034Y-77568710D01*
X34708219Y-77607085D01*
X34759539Y-77646935D01*
X34780721Y-77664390D01*
X34867676Y-77741668D01*
X34943942Y-77819176D01*
X35014113Y-77902049D01*
X35082782Y-77995422D01*
X35101874Y-78023416D01*
X35123975Y-78055459D01*
X35142801Y-78081218D01*
X35156084Y-78097685D01*
X35161201Y-78102146D01*
X35176305Y-78096431D01*
X35201215Y-78080779D01*
X35228044Y-78060893D01*
X35444813Y-78060893D01*
X35450617Y-78065383D01*
X35458168Y-78063653D01*
X35476526Y-78061793D01*
X35507002Y-78063913D01*
X35544780Y-78069252D01*
X35585044Y-78077051D01*
X35622980Y-78086548D01*
X35642847Y-78092824D01*
X35679395Y-78107941D01*
X35717133Y-78126968D01*
X35732748Y-78136173D01*
X35756523Y-78150750D01*
X35774096Y-78160573D01*
X35780091Y-78163111D01*
X35785607Y-78155759D01*
X35794652Y-78135821D01*
X35805365Y-78107444D01*
X35806431Y-78104377D01*
X35821669Y-78040247D01*
X35827681Y-77967047D01*
X35824542Y-77890627D01*
X35812326Y-77816840D01*
X35802300Y-77781111D01*
X35787453Y-77736640D01*
X35775685Y-77707667D01*
X35764585Y-77693939D01*
X35751743Y-77695201D01*
X35734748Y-77711202D01*
X35711191Y-77741687D01*
X35691025Y-77769414D01*
X35658551Y-77812907D01*
X35622833Y-77858623D01*
X35585989Y-77904068D01*
X35550135Y-77946747D01*
X35517387Y-77984167D01*
X35489860Y-78013833D01*
X35469672Y-78033252D01*
X35462710Y-78038511D01*
X35449130Y-78050349D01*
X35444813Y-78060893D01*
X35228044Y-78060893D01*
X35232914Y-78057283D01*
X35268385Y-78028037D01*
X35270012Y-78026627D01*
X35316897Y-77982117D01*
X35371190Y-77923816D01*
X35431606Y-77853223D01*
X35496862Y-77771832D01*
X35561640Y-77686588D01*
X35619707Y-77609912D01*
X35669341Y-77547856D01*
X35711023Y-77499884D01*
X35745236Y-77465462D01*
X35772462Y-77444053D01*
X35786047Y-77437078D01*
X35798789Y-77432488D01*
X35808517Y-77431294D01*
X35817088Y-77435707D01*
G37*
D12*
X58210000Y-99200000D03*
X57190000Y-99200000D03*
D13*
X88487500Y-100800000D03*
X88487500Y-97600000D03*
D14*
X87937500Y-99200000D03*
D15*
X80500000Y-65750000D03*
D16*
X73080500Y-62340000D03*
X73080500Y-63300000D03*
D17*
X68131993Y-115166704D03*
X73370452Y-112723972D03*
D18*
X67369252Y-114264527D03*
X68094298Y-113926432D03*
D19*
X69136552Y-113440421D03*
X70042862Y-113017803D03*
X70496014Y-112806493D03*
X71402322Y-112383875D03*
D18*
X72444576Y-111897864D03*
X73169621Y-111559769D03*
X73169621Y-111559769D03*
X72444576Y-111897864D03*
D19*
X71855474Y-112172566D03*
X70949169Y-112595185D03*
X69589705Y-113229111D03*
X68683399Y-113651730D03*
D18*
X68094298Y-113926432D03*
X67369252Y-114264527D03*
D20*
X68391207Y-119106263D03*
D21*
X66624664Y-115317896D03*
D20*
X76221707Y-115454841D03*
D21*
X74455163Y-111666474D03*
D22*
X67900500Y-73130000D03*
X67900500Y-72170000D03*
X65560500Y-73090000D03*
X65560500Y-72130000D03*
D23*
X65160500Y-88050000D03*
X64200500Y-88050000D03*
D24*
X64000000Y-105590000D03*
X64000000Y-106610000D03*
D25*
X57800000Y-92300000D03*
X62000000Y-92300000D03*
D26*
X56120000Y-105799999D03*
X56120000Y-104780001D03*
D27*
X56860000Y-77940000D03*
X57880000Y-77940000D03*
D24*
X86300000Y-94290000D03*
X86300000Y-95310000D03*
D16*
X74670000Y-102055000D03*
X74670000Y-103015000D03*
D25*
X78900000Y-108600000D03*
X83100000Y-108600000D03*
D28*
X55390000Y-72540000D03*
X56350000Y-72540000D03*
D23*
X69810000Y-99670000D03*
X68850000Y-99670000D03*
D12*
X62330500Y-81130000D03*
X61310500Y-81130000D03*
D22*
X74289000Y-87821984D03*
X74289000Y-86861984D03*
D28*
X78240000Y-85500000D03*
X79200000Y-85500000D03*
D12*
X60900000Y-109600000D03*
X59880000Y-109600000D03*
D29*
X60200000Y-99900000D03*
X60200000Y-101800000D03*
X62075000Y-100850000D03*
D28*
X79850000Y-97770000D03*
X80810000Y-97770000D03*
D26*
X73670000Y-102045000D03*
X73670000Y-101025000D03*
D23*
X69810000Y-98270000D03*
X68850000Y-98270000D03*
D30*
X62300000Y-107825000D03*
X62300000Y-109375000D03*
D26*
X75330000Y-87780000D03*
X75330000Y-86760000D03*
D13*
X88487500Y-90600000D03*
X88487500Y-87400000D03*
D14*
X87937500Y-89000000D03*
D22*
X76085000Y-77220000D03*
X76085000Y-76260000D03*
D23*
X73600000Y-71790000D03*
X72640000Y-71790000D03*
D31*
X78107500Y-97282500D03*
X78107500Y-96882500D03*
X78107500Y-96482500D03*
X78107500Y-96082500D03*
X78107500Y-95682500D03*
X78107500Y-95282500D03*
X78107500Y-94882500D03*
X78107500Y-94482500D03*
X78107500Y-94082500D03*
X78107500Y-93682500D03*
X78107500Y-93282500D03*
X78107500Y-92882500D03*
X78107500Y-92482500D03*
X78107500Y-92082500D03*
D32*
X77270000Y-91245000D03*
X76870000Y-91245000D03*
X76470000Y-91245000D03*
X76070000Y-91245000D03*
X75670000Y-91245000D03*
X75270000Y-91245000D03*
X74870000Y-91245000D03*
X74470000Y-91245000D03*
X74070000Y-91245000D03*
X73670000Y-91245000D03*
X73270000Y-91245000D03*
X72870000Y-91245000D03*
X72470000Y-91245000D03*
X72070000Y-91245000D03*
D31*
X71232500Y-92082500D03*
X71232500Y-92482500D03*
X71232500Y-92882500D03*
X71232500Y-93282500D03*
X71232500Y-93682500D03*
X71232500Y-94082500D03*
X71232500Y-94482500D03*
X71232500Y-94882500D03*
X71232500Y-95282500D03*
X71232500Y-95682500D03*
X71232500Y-96082500D03*
X71232500Y-96482500D03*
X71232500Y-96882500D03*
X71232500Y-97282500D03*
D32*
X72070000Y-98120000D03*
X72470000Y-98120000D03*
X72870000Y-98120000D03*
X73270000Y-98120000D03*
X73670000Y-98120000D03*
X74070000Y-98120000D03*
X74470000Y-98120000D03*
X74870000Y-98120000D03*
X75270000Y-98120000D03*
X75670000Y-98120000D03*
X76070000Y-98120000D03*
X76470000Y-98120000D03*
X76870000Y-98120000D03*
X77270000Y-98120000D03*
D33*
X74670000Y-94682500D03*
D26*
X63600000Y-92110000D03*
X63600000Y-91090000D03*
D34*
X67030500Y-67845000D03*
X67030500Y-68815000D03*
D35*
X55420000Y-71190000D03*
X55420000Y-70220000D03*
D36*
X66882500Y-84620000D03*
X65082500Y-84620000D03*
X65082500Y-85990000D03*
X66882500Y-85990000D03*
D37*
X53320000Y-112910000D03*
X53320000Y-114910000D03*
D38*
X47770000Y-117260000D03*
X47770000Y-110560000D03*
D39*
X84700000Y-97500000D03*
X84700000Y-95400000D03*
D23*
X64600000Y-67790000D03*
X63640000Y-67790000D03*
D16*
X70670000Y-101055000D03*
X70670000Y-102015000D03*
D26*
X55470000Y-78000000D03*
X55470000Y-76980000D03*
D28*
X57220000Y-101900000D03*
X58180000Y-101900000D03*
D12*
X62330000Y-82270000D03*
X61310000Y-82270000D03*
D40*
X61682500Y-86120000D03*
X61682500Y-85620000D03*
X61682500Y-85120000D03*
X61682500Y-84620000D03*
X61682500Y-84120000D03*
X57457500Y-84120000D03*
X57457500Y-84620000D03*
X57457500Y-85120000D03*
X57457500Y-85620000D03*
X57457500Y-86120000D03*
D16*
X69585000Y-76240000D03*
X69585000Y-77200000D03*
D41*
X85030000Y-104610000D03*
X85030000Y-103340000D03*
X85030000Y-102070000D03*
X85030000Y-100800000D03*
X77830000Y-100800000D03*
X77830000Y-102070000D03*
X77830000Y-103340000D03*
X77830000Y-104610000D03*
D13*
X88487500Y-95700000D03*
X88487500Y-92500000D03*
D14*
X87937500Y-94100000D03*
D42*
X70545500Y-73040000D03*
X69575500Y-73040000D03*
D24*
X86297500Y-91470000D03*
X86297500Y-92490000D03*
D43*
X58160000Y-118910000D03*
D44*
X60160000Y-118910000D03*
D43*
X62160000Y-118910000D03*
D45*
X56060000Y-120410000D03*
X64260000Y-120410000D03*
D46*
X59175000Y-103700000D03*
X57625000Y-103700000D03*
D47*
X58030000Y-55820000D03*
D48*
X55205001Y-56069999D03*
X60855000Y-56069999D03*
D49*
X55385000Y-67490000D03*
X56355000Y-67490000D03*
D23*
X56350000Y-66090000D03*
X55390000Y-66090000D03*
D50*
X72820000Y-69340000D03*
X72820000Y-68840000D03*
X72820000Y-68340000D03*
X72820000Y-67840000D03*
X72820000Y-67340000D03*
X72820000Y-66840000D03*
D51*
X72120000Y-66140000D03*
X71620000Y-66140000D03*
X71120000Y-66140000D03*
X70620000Y-66140000D03*
X70120000Y-66140000D03*
X69620000Y-66140000D03*
D50*
X68920000Y-66840000D03*
X68920000Y-67340000D03*
X68920000Y-67840000D03*
X68920000Y-68340000D03*
X68920000Y-68840000D03*
X68920000Y-69340000D03*
D51*
X69620000Y-70040000D03*
X70120000Y-70040000D03*
X70620000Y-70040000D03*
X71120000Y-70040000D03*
X71620000Y-70040000D03*
X72120000Y-70040000D03*
D52*
X71770000Y-68990000D03*
X71770000Y-68390000D03*
X71770000Y-67790000D03*
X71770000Y-67190000D03*
X71170000Y-68990000D03*
X71170000Y-68390000D03*
X71170000Y-67790000D03*
X71170000Y-67190000D03*
D53*
X70870000Y-68090000D03*
D52*
X70570000Y-68990000D03*
X70570000Y-68390000D03*
X70570000Y-67790000D03*
X70570000Y-67190000D03*
X69970000Y-68990000D03*
X69970000Y-68390000D03*
X69970000Y-67790000D03*
X69970000Y-67190000D03*
D28*
X79830000Y-93482500D03*
X80790000Y-93482500D03*
D23*
X75700000Y-85500000D03*
X74740000Y-85500000D03*
X56350000Y-62390000D03*
X55390000Y-62390000D03*
D54*
X63900000Y-95575000D03*
X63900000Y-94025000D03*
D22*
X72385000Y-77200000D03*
X72385000Y-76240000D03*
D27*
X74610000Y-104070000D03*
X75630000Y-104070000D03*
D26*
X72670000Y-102045000D03*
X72670000Y-101025000D03*
D27*
X83190000Y-106200000D03*
X84210000Y-106200000D03*
D16*
X71670000Y-101055000D03*
X71670000Y-102015000D03*
D55*
X76920000Y-82300000D03*
X74720000Y-82300000D03*
X74720000Y-84000000D03*
X76920000Y-84000000D03*
D54*
X57400000Y-97275000D03*
X57400000Y-95725000D03*
D16*
X75280500Y-62370000D03*
X75280500Y-63330000D03*
D54*
X65800000Y-95575000D03*
X65800000Y-94025000D03*
D42*
X67665500Y-88050000D03*
X66695500Y-88050000D03*
D12*
X67180000Y-65040000D03*
X66160000Y-65040000D03*
D56*
X75870000Y-65610000D03*
X75184106Y-64924106D03*
D34*
X70985000Y-76235000D03*
X70985000Y-77205000D03*
D24*
X86400000Y-87590000D03*
X86400000Y-88610000D03*
D26*
X59270000Y-78000000D03*
X59270000Y-76980000D03*
D23*
X68280000Y-94700000D03*
X67320000Y-94700000D03*
D49*
X67285000Y-76270000D03*
X68255000Y-76270000D03*
D57*
X57650000Y-105850000D03*
X57650000Y-106800000D03*
X57650000Y-107750000D03*
X60150000Y-107750000D03*
X60150000Y-106800000D03*
X60150000Y-105850000D03*
D23*
X71710500Y-64200000D03*
X70750500Y-64200000D03*
D15*
X36000000Y-65750000D03*
D16*
X65935000Y-76240000D03*
X65935000Y-77200000D03*
D58*
X58089999Y-59030000D03*
X57670001Y-59030000D03*
D24*
X86347500Y-96570000D03*
X86347500Y-97590000D03*
D23*
X77480000Y-106400000D03*
X76520000Y-106400000D03*
D28*
X55390000Y-68890000D03*
X56350000Y-68890000D03*
D16*
X75670000Y-102055000D03*
X75670000Y-103015000D03*
D35*
X56320000Y-64775000D03*
X56320000Y-63805000D03*
D59*
X60150000Y-97600000D03*
X61100000Y-97600000D03*
X62050000Y-97600000D03*
X62050000Y-95325000D03*
X60150000Y-95325000D03*
D49*
X73700000Y-77170000D03*
X74670000Y-77170000D03*
D60*
X65625000Y-101300000D03*
X65625000Y-102250000D03*
X65625000Y-103200000D03*
X67900000Y-103200000D03*
X67900000Y-102250000D03*
X67900000Y-101300000D03*
D12*
X58210000Y-100700000D03*
X57190000Y-100700000D03*
D22*
X73170000Y-87821984D03*
X73170000Y-86861984D03*
D28*
X61100500Y-87650000D03*
X62060500Y-87650000D03*
M02*
