G04 #@! TF.GenerationSoftware,KiCad,Pcbnew,10.0.5*
G04 #@! TF.CreationDate,2026-08-18T19:09:46-07:00*
G04 #@! TF.ProjectId,PicoFox-PCB,5069636f-466f-4782-9d50-43422e6b6963,REV2*
G04 #@! TF.SameCoordinates,Original*
G04 #@! TF.FileFunction,Copper,L2,Inr*
G04 #@! TF.FilePolarity,Positive*
%FSLAX46Y46*%
G04 Gerber Fmt 4.6, Leading zero omitted, Abs format (unit mm)*
G04 Created by KiCad (PCBNEW 10.0.5) date 2026-08-18 19:09:46*
%MOMM*%
%LPD*%
G01*
G04 APERTURE LIST*
G04 Aperture macros list*
%AMRoundRect*
0 Rectangle with rounded corners*
0 $1 Rounding radius*
0 $2 $3 $4 $5 $6 $7 $8 $9 X,Y pos of 4 corners*
0 Add a 4 corners polygon primitive as box body*
4,1,4,$2,$3,$4,$5,$6,$7,$8,$9,$2,$3,0*
0 Add four circle primitives for the rounded corners*
1,1,$1+$1,$2,$3*
1,1,$1+$1,$4,$5*
1,1,$1+$1,$6,$7*
1,1,$1+$1,$8,$9*
0 Add four rect primitives between the rounded corners*
20,1,$1+$1,$2,$3,$4,$5,0*
20,1,$1+$1,$4,$5,$6,$7,0*
20,1,$1+$1,$6,$7,$8,$9,0*
20,1,$1+$1,$8,$9,$2,$3,0*%
%AMHorizOval*
0 Thick line with rounded ends*
0 $1 width*
0 $2 $3 position (X,Y) of the first rounded end (center of the circle)*
0 $4 $5 position (X,Y) of the second rounded end (center of the circle)*
0 Add line between two ends*
20,1,$1,$2,$3,$4,$5,0*
0 Add two circle primitives to create the rounded ends*
1,1,$1,$2,$3*
1,1,$1,$4,$5*%
G04 Aperture macros list end*
G04 #@! TA.AperFunction,HeatsinkPad*
%ADD10HorizOval,1.000000X-0.126785X0.271892X0.126785X-0.271892X0*%
G04 #@! TD*
G04 #@! TA.AperFunction,HeatsinkPad*
%ADD11HorizOval,1.000000X-0.232440X0.498469X0.232440X-0.498469X0*%
G04 #@! TD*
G04 #@! TA.AperFunction,ComponentPad*
%ADD12C,0.600000*%
G04 #@! TD*
G04 #@! TA.AperFunction,ComponentPad*
%ADD13RoundRect,0.113636X-0.386364X-0.636364X0.386364X-0.636364X0.386364X0.636364X-0.386364X0.636364X0*%
G04 #@! TD*
G04 #@! TA.AperFunction,ComponentPad*
%ADD14C,0.550000*%
G04 #@! TD*
G04 #@! TA.AperFunction,ViaPad*
%ADD15C,0.550000*%
G04 #@! TD*
G04 #@! TA.AperFunction,ViaPad*
%ADD16C,0.600000*%
G04 #@! TD*
G04 APERTURE END LIST*
D10*
X68391207Y-119106263D03*
D11*
X66624664Y-115317896D03*
D10*
X76221707Y-115454841D03*
D11*
X74455163Y-111666474D03*
D12*
X75945000Y-95957500D03*
X75945000Y-94682500D03*
X75945000Y-93407500D03*
X74670000Y-95957500D03*
X74670000Y-94682500D03*
X74670000Y-93407500D03*
X73395000Y-95957500D03*
X73395000Y-94682500D03*
X73395000Y-93407500D03*
D13*
X56060000Y-120410000D03*
X64260000Y-120410000D03*
D14*
X71770000Y-68990000D03*
X71770000Y-68390000D03*
X71770000Y-67790000D03*
X71770000Y-67190000D03*
X71170000Y-68990000D03*
X71170000Y-68390000D03*
X71170000Y-67790000D03*
X71170000Y-67190000D03*
X70570000Y-68990000D03*
X70570000Y-68390000D03*
X70570000Y-67790000D03*
X70570000Y-67190000D03*
X69970000Y-68990000D03*
X69970000Y-68390000D03*
X69970000Y-67790000D03*
X69970000Y-67190000D03*
D15*
X58110000Y-118970000D03*
X57180000Y-99210000D03*
X62300000Y-107825000D03*
X67900000Y-102250000D03*
X48732752Y-120993357D03*
X83096275Y-111139775D03*
D16*
X80810000Y-97770000D03*
D15*
X65970000Y-89290000D03*
X56970000Y-74290000D03*
X62370000Y-74890000D03*
X24628258Y-93264309D03*
X77790000Y-66490000D03*
X89725832Y-77033661D03*
X25950864Y-98993143D03*
X74370500Y-60490000D03*
X91575224Y-85044255D03*
X30741857Y-68744003D03*
X76280500Y-70650000D03*
X71970500Y-60490000D03*
X47606857Y-120649136D03*
X31450397Y-109336262D03*
X77970000Y-62890000D03*
X56370000Y-89290000D03*
X30066563Y-107431577D03*
X57280500Y-67450000D03*
X75904177Y-59965338D03*
X53370000Y-74290000D03*
X55820500Y-81480000D03*
X53370000Y-65890000D03*
X74680500Y-78150000D03*
X76080500Y-78150000D03*
X56920500Y-82670000D03*
X74370000Y-79690000D03*
X59370000Y-79090000D03*
X77760000Y-65260000D03*
X69570000Y-86890000D03*
X60780500Y-66650000D03*
X82100000Y-88900000D03*
X70170000Y-79090000D03*
X69570000Y-74890000D03*
X57880500Y-76950000D03*
X67327248Y-120993357D03*
X91431742Y-93264309D03*
X53970000Y-78490000D03*
X53370000Y-67090000D03*
X68540000Y-116250000D03*
X27713677Y-73783741D03*
X53370000Y-89890000D03*
X59207160Y-122279453D03*
X60510000Y-56890000D03*
D16*
X57400000Y-95725000D03*
D15*
X68970000Y-86290000D03*
X68970500Y-61090000D03*
X73770000Y-74290000D03*
X53370000Y-86290000D03*
X61110000Y-57490000D03*
X67980500Y-63950000D03*
X64880500Y-76050000D03*
D16*
X68850000Y-99670000D03*
D15*
X63580500Y-66750000D03*
X61170000Y-79690000D03*
X68040000Y-93180000D03*
X65042861Y-121562919D03*
X88843888Y-74850773D03*
X57790000Y-122390000D03*
X55770000Y-74290000D03*
X61110000Y-56290000D03*
X68970000Y-89890000D03*
X79711226Y-62731321D03*
X90758075Y-96730026D03*
X30066563Y-69708423D03*
X25301925Y-96730026D03*
X64680500Y-66750000D03*
X59370000Y-64690000D03*
D16*
X71670000Y-102015000D03*
D15*
X72816259Y-58253677D03*
X59370000Y-67090000D03*
X25037081Y-81557139D03*
X65970500Y-60490000D03*
X69010000Y-81380000D03*
X59370000Y-69490000D03*
X90453357Y-79272752D03*
X27713677Y-103356259D03*
X56680500Y-76950000D03*
X60570000Y-79090000D03*
X77970000Y-79690000D03*
X90109136Y-78146857D03*
X25037081Y-95582861D03*
X28818963Y-105435000D03*
X57280500Y-64750000D03*
X24484776Y-92095745D03*
X59207160Y-54860547D03*
X77370000Y-67090000D03*
X70665480Y-57296089D03*
X27216112Y-102289227D03*
X62970000Y-74290000D03*
X25301925Y-80409974D03*
X91431742Y-83875691D03*
X69880500Y-63650000D03*
X53970000Y-76090000D03*
X74895000Y-59358963D03*
X63887153Y-55352434D03*
X54570000Y-61090000D03*
X67770500Y-61090000D03*
X63570000Y-89290000D03*
X57570000Y-89290000D03*
X58770000Y-89290000D03*
X30741857Y-108395997D03*
X91247566Y-82712847D03*
X65880500Y-66850000D03*
X60570000Y-74290000D03*
X61110000Y-55090000D03*
X77970000Y-76090000D03*
X66570000Y-79090000D03*
X59370000Y-74290000D03*
X91739453Y-87392840D03*
X28248178Y-104405276D03*
X53370000Y-64690000D03*
X83868679Y-110251226D03*
X83400000Y-90200000D03*
X71970000Y-79690000D03*
X53370000Y-85090000D03*
X24320547Y-89747160D03*
X75570500Y-60490000D03*
X53370000Y-75490000D03*
X73652092Y-113525957D03*
X62970000Y-77890000D03*
X77970000Y-74890000D03*
X53970000Y-62890000D03*
X24382165Y-86217114D03*
X85318143Y-108395997D03*
X59970000Y-74890000D03*
X91739453Y-89747160D03*
X61380500Y-76150000D03*
X52172847Y-55352434D03*
X70000000Y-103900000D03*
X53970000Y-77290000D03*
X70210000Y-115130000D03*
X61770000Y-74290000D03*
X49869974Y-121298075D03*
X55470000Y-56380000D03*
X73170000Y-74890000D03*
X56970000Y-89890000D03*
X55170000Y-74890000D03*
X70220000Y-94630000D03*
D16*
X69585000Y-77200000D03*
D15*
X77970000Y-77290000D03*
X53970000Y-65290000D03*
X58770000Y-67690000D03*
X29425338Y-70695823D03*
X53335691Y-55168258D03*
X62370500Y-60490000D03*
X60570000Y-89890000D03*
X73170500Y-60490000D03*
X53370000Y-76690000D03*
X62370000Y-89290000D03*
X77960000Y-72480000D03*
D16*
X59080500Y-85450000D03*
D15*
X25606643Y-79272752D03*
X77970000Y-78490000D03*
X33766669Y-112000827D03*
X91247566Y-94427153D03*
X59970000Y-79690000D03*
D16*
X60150000Y-106800000D03*
D15*
X79711226Y-114408679D03*
X76891577Y-116533437D03*
X70770500Y-60490000D03*
X60580500Y-68950000D03*
X68970000Y-85090000D03*
X62180500Y-71250000D03*
X82293331Y-112000827D03*
X91760000Y-88570000D03*
X63570000Y-77290000D03*
X56970500Y-59890000D03*
X64170000Y-76690000D03*
X62970000Y-89890000D03*
X74780500Y-70350000D03*
X72680500Y-64650000D03*
X61770500Y-61090000D03*
X66570000Y-74290000D03*
X77370000Y-76690000D03*
X55380500Y-73450000D03*
X70170000Y-74290000D03*
X53970000Y-80890000D03*
X56970000Y-79090000D03*
X62970000Y-79090000D03*
X61170500Y-60490000D03*
X65370000Y-89890000D03*
X60570500Y-61090000D03*
X55860500Y-82450000D03*
X91022919Y-95582861D03*
X53970000Y-74890000D03*
X59370000Y-63490000D03*
X75570000Y-74890000D03*
X67770000Y-74290000D03*
X27216112Y-74850773D03*
X77370000Y-70690000D03*
X86634662Y-106444177D03*
X87811822Y-72734724D03*
X75904177Y-117174662D03*
X53970000Y-73690000D03*
X74370000Y-73690000D03*
X77370000Y-69490000D03*
X42194724Y-118351822D03*
X53370000Y-71890000D03*
X24812434Y-82712847D03*
D16*
X76950000Y-85820000D03*
D15*
X80599775Y-113636275D03*
X69570000Y-82090000D03*
X32963725Y-66000225D03*
X61100000Y-97300000D03*
X62370000Y-79690000D03*
X24382165Y-90922886D03*
X55380500Y-63750000D03*
X32191321Y-110251226D03*
X58770000Y-68890000D03*
X84609603Y-67803738D03*
X77960000Y-64080000D03*
X51017139Y-55577081D03*
X69566339Y-56874168D03*
X76770000Y-79690000D03*
X53370000Y-82690000D03*
X59500000Y-108800000D03*
X64170000Y-89890000D03*
X72570000Y-74290000D03*
X66940000Y-89320000D03*
X56590000Y-122390000D03*
X73680500Y-78150000D03*
X53970000Y-68890000D03*
X53370000Y-77890000D03*
X53970000Y-83290000D03*
X55180001Y-122140000D03*
X65880500Y-68750000D03*
X58170000Y-70690000D03*
X77970500Y-61690000D03*
D16*
X65935000Y-77200000D03*
D15*
X58770500Y-60490000D03*
X77370000Y-61090000D03*
X73180500Y-70750000D03*
D16*
X65625000Y-102250000D03*
D15*
X39168423Y-60606563D03*
X54570000Y-74290000D03*
X38204003Y-115858143D03*
X73865276Y-118351822D03*
X60380500Y-76450000D03*
X68970000Y-88690000D03*
X32963725Y-111139775D03*
X59370000Y-73090000D03*
X85993437Y-107431577D03*
X76380500Y-72750000D03*
X60410500Y-77496750D03*
X62970500Y-61090000D03*
X73865276Y-58788178D03*
X53970000Y-71290000D03*
X52172847Y-121787566D03*
X70170500Y-61090000D03*
X71749227Y-57756112D03*
X69570000Y-89290000D03*
X68380500Y-65450000D03*
X61100000Y-97900000D03*
X56370500Y-60490000D03*
D16*
X73170000Y-86861984D03*
D15*
X69570000Y-88090000D03*
X58770000Y-65290000D03*
X64770500Y-60490000D03*
X58170000Y-79090000D03*
D16*
X74670000Y-103015000D03*
X75670000Y-103015000D03*
D15*
X55770000Y-61090000D03*
X54870000Y-55780000D03*
X73080500Y-62340000D03*
X66570000Y-89890000D03*
X68280500Y-77250000D03*
X70665480Y-119843911D03*
X89725832Y-100106339D03*
X87900000Y-102250000D03*
X62724309Y-55168258D03*
X45394520Y-119843911D03*
X71370500Y-61090000D03*
X65370000Y-79090000D03*
X71370000Y-79090000D03*
X53370500Y-61090000D03*
X53970000Y-72490000D03*
X53370500Y-73090000D03*
X54880500Y-85650000D03*
X77970000Y-71290000D03*
X53370000Y-68290000D03*
X37263738Y-61990397D03*
X53970000Y-86890000D03*
X90758075Y-80409974D03*
X58170000Y-74290000D03*
X78796262Y-115149603D03*
D16*
X74289000Y-86861984D03*
D15*
X24628258Y-83875691D03*
X53970000Y-67690000D03*
X54570000Y-80290000D03*
X77970000Y-70090000D03*
X81460827Y-112833331D03*
X84609603Y-109336262D03*
X53370000Y-63490000D03*
X91022919Y-81557139D03*
X58770000Y-62890000D03*
X60780500Y-69950000D03*
D16*
X73200000Y-106015000D03*
D15*
X90109136Y-98993143D03*
X54570000Y-79090000D03*
X89303911Y-75934520D03*
X60510000Y-55690000D03*
X37263738Y-115149603D03*
X74330000Y-72410000D03*
X59370000Y-68290000D03*
X75570000Y-73690000D03*
X77370000Y-62290000D03*
X55170000Y-60490000D03*
X68370500Y-60490000D03*
X58770000Y-73690000D03*
X53970000Y-85690000D03*
X74970500Y-61090000D03*
X55170000Y-89290000D03*
X58170000Y-89890000D03*
X51017139Y-121562919D03*
X59370500Y-62290000D03*
X77370000Y-63490000D03*
X61170000Y-74890000D03*
X90453357Y-97867248D03*
X68970000Y-79090000D03*
X48732752Y-56146643D03*
X77360000Y-64680000D03*
X60510000Y-54490000D03*
X68970000Y-82560000D03*
X63570000Y-76090000D03*
X38204003Y-61281857D03*
X67770000Y-79090000D03*
X40155823Y-59965338D03*
X61770000Y-79090000D03*
X44310773Y-57756112D03*
X64170000Y-79090000D03*
X63570000Y-74890000D03*
X86634662Y-70695823D03*
X71749227Y-119383888D03*
X54870000Y-56980000D03*
X53970000Y-79690000D03*
X67327248Y-56146643D03*
D16*
X76320000Y-87050000D03*
D15*
X69570500Y-60490000D03*
X60382886Y-122217835D03*
X65042861Y-55577081D03*
X61770000Y-89890000D03*
X83300000Y-93200000D03*
X78796262Y-61990397D03*
X71780500Y-65050000D03*
X73770000Y-79090000D03*
X69570000Y-85690000D03*
X43243741Y-58253677D03*
X77370000Y-75490000D03*
X83200000Y-87900000D03*
X26334168Y-77033661D03*
X64770000Y-79690000D03*
X58770000Y-61690000D03*
D16*
X87675400Y-91517180D03*
D15*
X53370000Y-88690000D03*
X79500000Y-94500000D03*
X59370000Y-89890000D03*
X58770000Y-74890000D03*
X24300000Y-88570000D03*
X77970000Y-73690000D03*
X53370000Y-69490000D03*
X68970000Y-87490000D03*
X71080500Y-71950000D03*
D16*
X70670000Y-102015000D03*
X55390000Y-62390000D03*
X72385000Y-76240000D03*
D15*
X77370000Y-65890000D03*
X58170000Y-71890000D03*
X70110000Y-92040000D03*
X65970000Y-79690000D03*
X46493661Y-120265832D03*
X73170000Y-79690000D03*
X68970000Y-83890000D03*
X70980500Y-78050000D03*
X74970000Y-79090000D03*
X62724309Y-121971742D03*
X28818963Y-71705000D03*
X55880500Y-86650000D03*
X56370000Y-79690000D03*
X25950864Y-78146857D03*
X74080500Y-76150000D03*
X66190026Y-55841925D03*
X71370000Y-74290000D03*
X53370000Y-87490000D03*
X67170000Y-79690000D03*
X53335691Y-121971742D03*
X75570000Y-79690000D03*
X66190026Y-121298075D03*
X61170000Y-89290000D03*
X64170000Y-74290000D03*
X73770500Y-61090000D03*
X72570500Y-61090000D03*
X65370000Y-74290000D03*
X46493661Y-56874168D03*
X29425338Y-106444177D03*
D16*
X56350000Y-68890000D03*
D15*
X54570000Y-89890000D03*
X53370000Y-79090000D03*
X63887153Y-121787566D03*
X82600000Y-92500000D03*
X53370000Y-62290000D03*
X65370500Y-61090000D03*
X59370000Y-65890000D03*
X55980500Y-83350000D03*
X56980500Y-87250000D03*
X53970000Y-70090000D03*
D16*
X76520000Y-106400000D03*
D15*
X77370000Y-74290000D03*
X53970000Y-64090000D03*
X32191321Y-66888774D03*
X69560000Y-83140000D03*
D16*
X75630000Y-104070000D03*
D15*
X53370000Y-70690000D03*
X91677835Y-90922886D03*
X40155823Y-117174662D03*
X68453143Y-56490864D03*
X64680500Y-68750000D03*
X47606857Y-56490864D03*
X53970000Y-61690000D03*
X53970000Y-89290000D03*
X41165000Y-117781037D03*
X76770500Y-60490000D03*
X26334168Y-100106339D03*
X70770000Y-79690000D03*
X24484776Y-85044255D03*
X63570500Y-60490000D03*
X64770000Y-74890000D03*
X68370000Y-89290000D03*
X55980500Y-84350000D03*
X87241037Y-71705000D03*
X69000000Y-102800000D03*
X72570000Y-79090000D03*
X42194724Y-58788178D03*
X49869974Y-55841925D03*
X64170000Y-77890000D03*
X91575224Y-92095745D03*
X54870000Y-54580000D03*
X34599173Y-112833331D03*
X76170000Y-74290000D03*
X53370000Y-83890000D03*
X45394520Y-57296089D03*
X77440000Y-71920000D03*
X58770000Y-66490000D03*
X59370000Y-61090000D03*
X24320547Y-87392840D03*
X63570000Y-79690000D03*
X71970000Y-74890000D03*
X56852840Y-54860547D03*
X77855997Y-115858143D03*
X58770000Y-64090000D03*
X83868679Y-66888774D03*
X62380500Y-66450000D03*
D16*
X56350000Y-72540000D03*
D15*
X35460225Y-113636275D03*
X57570000Y-79690000D03*
D16*
X66800000Y-106015000D03*
D15*
X63680500Y-68750000D03*
X53970000Y-88090000D03*
X62780500Y-69450000D03*
X75280500Y-62370000D03*
X25606643Y-97867248D03*
X58080500Y-87250000D03*
X67170500Y-60490000D03*
X58770000Y-79690000D03*
X55540000Y-57530000D03*
X56380500Y-70150000D03*
X56370000Y-74890000D03*
X59970000Y-89290000D03*
D16*
X55470000Y-76980000D03*
D15*
X58170000Y-61090000D03*
X53970000Y-84490000D03*
X64170000Y-75490000D03*
X44310773Y-119383888D03*
X88346323Y-73783741D03*
X64170500Y-61090000D03*
X76170000Y-79090000D03*
X57570000Y-74890000D03*
X65970000Y-74890000D03*
X28248178Y-72734724D03*
X87241037Y-105435000D03*
X36348774Y-62731321D03*
D16*
X59270000Y-76980000D03*
D15*
X59970500Y-60490000D03*
X26756089Y-75934520D03*
D16*
X74720000Y-82300000D03*
D15*
X66570500Y-61090000D03*
X67170000Y-74890000D03*
D16*
X76085000Y-76260000D03*
D15*
X83900000Y-100800000D03*
X55770000Y-80290000D03*
X91677835Y-86217114D03*
X53970000Y-82090000D03*
X39168423Y-116533437D03*
X59370000Y-71890000D03*
X76170500Y-61090000D03*
X68370000Y-79690000D03*
X58770000Y-70090000D03*
X57280500Y-66050000D03*
X58770000Y-72490000D03*
X68370000Y-74890000D03*
X26756089Y-101205480D03*
X68970000Y-74290000D03*
X72816259Y-118886323D03*
X55770000Y-79090000D03*
X74895000Y-117781037D03*
X76770000Y-74890000D03*
X60280500Y-67850000D03*
X71980000Y-114200000D03*
X69566339Y-120265832D03*
D16*
X85870000Y-91460000D03*
D15*
X85993437Y-69708423D03*
D16*
X78900000Y-108600000D03*
D15*
X64770000Y-89290000D03*
X82600000Y-94100000D03*
X43243741Y-118886323D03*
X68453143Y-120649136D03*
X53370000Y-80290000D03*
X53970000Y-60490000D03*
X58170500Y-59890000D03*
X55380500Y-64750000D03*
X77370000Y-73090000D03*
X36348774Y-114408679D03*
X62480500Y-76650000D03*
X41165000Y-59358963D03*
X77370000Y-79090000D03*
X24812434Y-94427153D03*
X59370000Y-70690000D03*
X76200000Y-89300000D03*
X70770000Y-74890000D03*
X31450397Y-67803738D03*
X77370000Y-77890000D03*
X56970000Y-61090000D03*
X69570000Y-79690000D03*
X74370000Y-74890000D03*
X72380500Y-78050000D03*
X53370000Y-81490000D03*
X55470000Y-55180000D03*
X69570000Y-84490000D03*
X57180500Y-63150000D03*
X53970000Y-66490000D03*
X85318143Y-68744003D03*
X67280500Y-77250000D03*
X61555745Y-122115224D03*
D16*
X55390000Y-66090000D03*
X64000000Y-106610000D03*
D15*
X55770000Y-89890000D03*
X69017500Y-96082500D03*
X64020000Y-105590000D03*
X69300000Y-104800000D03*
X70520000Y-104800000D03*
X74610000Y-104070000D03*
X70000000Y-97300000D03*
D16*
X63900000Y-95575000D03*
D15*
X74250000Y-88000000D03*
D16*
X79850000Y-97770000D03*
D15*
X63600000Y-91100000D03*
X86300000Y-94290000D03*
D16*
X72400000Y-94200000D03*
D15*
X88500000Y-95750000D03*
D16*
X65800000Y-95575000D03*
D15*
X75860000Y-65680000D03*
D16*
X77830000Y-104610000D03*
X72400000Y-95600000D03*
X74670000Y-102055000D03*
D15*
X67665500Y-88050000D03*
X62500000Y-94000000D03*
X59750000Y-93500000D03*
D16*
X72400000Y-92700000D03*
D15*
X60150000Y-95325000D03*
X85250000Y-93400000D03*
X81100000Y-89250000D03*
X79336192Y-80800000D03*
D16*
X82000000Y-96700000D03*
D15*
X75040603Y-68340000D03*
X76110000Y-69530000D03*
X70620000Y-73030000D03*
X78890000Y-82540000D03*
X62075000Y-100850000D03*
X79900000Y-80300000D03*
X75530500Y-67840000D03*
D16*
X82800000Y-96700000D03*
D15*
X83280000Y-95400000D03*
X67180000Y-65100000D03*
D16*
X73970000Y-96782500D03*
D15*
X71670000Y-100450000D03*
D16*
X74870000Y-99482506D03*
X73870000Y-89482500D03*
X74070030Y-92582500D03*
D15*
X87400000Y-96500000D03*
X58000000Y-109600000D03*
G04 #@! TA.AperFunction,Conductor*
G36*
X61664378Y-54050459D02*
G01*
X61679217Y-54051374D01*
X62819690Y-54190753D01*
X62823790Y-54191324D01*
X63729926Y-54333253D01*
X63977355Y-54372008D01*
X63981479Y-54372725D01*
X64095775Y-54394603D01*
X65128303Y-54592245D01*
X65132363Y-54593093D01*
X66110206Y-54814725D01*
X66271131Y-54851200D01*
X66275197Y-54852194D01*
X67404623Y-55148596D01*
X67408564Y-55149702D01*
X68521197Y-55482222D01*
X68527333Y-55484056D01*
X68531323Y-55485322D01*
X69638196Y-55857256D01*
X69642065Y-55858630D01*
X70735723Y-56267703D01*
X70739566Y-56269215D01*
X71818784Y-56714967D01*
X71822624Y-56716629D01*
X72886202Y-57198563D01*
X72889927Y-57200328D01*
X73657947Y-57580088D01*
X73936629Y-57717887D01*
X73940349Y-57719806D01*
X74968922Y-58272366D01*
X74972576Y-58274409D01*
X75981928Y-58861382D01*
X75985504Y-58863543D01*
X76974519Y-59484283D01*
X76977986Y-59486542D01*
X77857075Y-60080569D01*
X77945443Y-60140282D01*
X77948865Y-60142679D01*
X78805780Y-60764864D01*
X78893715Y-60828711D01*
X78897060Y-60831227D01*
X79818201Y-61548749D01*
X79821460Y-61551377D01*
X80636328Y-62231532D01*
X80717870Y-62299593D01*
X80721003Y-62302299D01*
X81591687Y-63080381D01*
X81594738Y-63083203D01*
X82438618Y-63890189D01*
X82441560Y-63893098D01*
X83183737Y-64652417D01*
X83257749Y-64728138D01*
X83260585Y-64731138D01*
X84048149Y-65593280D01*
X84050891Y-65596386D01*
X84750006Y-66415602D01*
X84808833Y-66484534D01*
X84811497Y-66487764D01*
X85539076Y-67401051D01*
X85541628Y-67404368D01*
X86237912Y-68341620D01*
X86240352Y-68345022D01*
X86904632Y-69305284D01*
X86906955Y-69308766D01*
X87538445Y-70290903D01*
X87540649Y-70294462D01*
X88138613Y-71297331D01*
X88140696Y-71300962D01*
X88653692Y-72231352D01*
X88704485Y-72323471D01*
X88706444Y-72327171D01*
X89235383Y-73368101D01*
X89237216Y-73371864D01*
X89730725Y-74430068D01*
X89732430Y-74433891D01*
X90189941Y-75508154D01*
X90191516Y-75512033D01*
X90612503Y-76601117D01*
X90613946Y-76605046D01*
X90997931Y-77707716D01*
X90999241Y-77711692D01*
X91345798Y-78826731D01*
X91346972Y-78830749D01*
X91655677Y-79956782D01*
X91656716Y-79960837D01*
X91927250Y-81096705D01*
X91928151Y-81100793D01*
X92160189Y-82245141D01*
X92160951Y-82249257D01*
X92354227Y-83400761D01*
X92354850Y-83404900D01*
X92509148Y-84562255D01*
X92509632Y-84566414D01*
X92624781Y-85728382D01*
X92625123Y-85732554D01*
X92700983Y-86897709D01*
X92701184Y-86901890D01*
X92737672Y-88068907D01*
X92737733Y-88073093D01*
X92734809Y-89240761D01*
X92734727Y-89244946D01*
X92692394Y-90411765D01*
X92692172Y-90415945D01*
X92610476Y-91580708D01*
X92610113Y-91584878D01*
X92489146Y-92746229D01*
X92488642Y-92750385D01*
X92328546Y-93906984D01*
X92327902Y-93911120D01*
X92128859Y-95061644D01*
X92128076Y-95065756D01*
X91890308Y-96208928D01*
X91889386Y-96213012D01*
X91613177Y-97347460D01*
X91612119Y-97351510D01*
X91297760Y-98476046D01*
X91296565Y-98480058D01*
X90944433Y-99593329D01*
X90943103Y-99597298D01*
X90553600Y-100698030D01*
X90552137Y-100701952D01*
X90125707Y-101788897D01*
X90124113Y-101792768D01*
X89661221Y-102864738D01*
X89659497Y-102868552D01*
X89160693Y-103924270D01*
X89158841Y-103928024D01*
X88624687Y-104966303D01*
X88622709Y-104969993D01*
X88053819Y-105989642D01*
X88051718Y-105993263D01*
X87448722Y-106993150D01*
X87446500Y-106996697D01*
X86810121Y-107975625D01*
X86807781Y-107979096D01*
X86138702Y-108936013D01*
X86136246Y-108939403D01*
X85435226Y-109873222D01*
X85432656Y-109876526D01*
X84700579Y-110786072D01*
X84697900Y-110789289D01*
X83935479Y-111673676D01*
X83932692Y-111676800D01*
X83140888Y-112534911D01*
X83137998Y-112537939D01*
X82317668Y-113368848D01*
X82314677Y-113371777D01*
X81466767Y-114174524D01*
X81463679Y-114177350D01*
X80589166Y-114951010D01*
X80585985Y-114953730D01*
X79685852Y-115697435D01*
X79682580Y-115700047D01*
X78757839Y-116412959D01*
X78754481Y-116415458D01*
X77806241Y-117096724D01*
X77802801Y-117099109D01*
X76832066Y-117748006D01*
X76828547Y-117750273D01*
X75836477Y-118366025D01*
X75832883Y-118368172D01*
X74820627Y-118950067D01*
X74816964Y-118952092D01*
X73785589Y-119499519D01*
X73781858Y-119501419D01*
X72732630Y-120013701D01*
X72728838Y-120015474D01*
X71662902Y-120492056D01*
X71659052Y-120493700D01*
X70577640Y-120934029D01*
X70573737Y-120935542D01*
X69478066Y-121339124D01*
X69474114Y-121340504D01*
X68365464Y-121706866D01*
X68361468Y-121708112D01*
X67241091Y-122036842D01*
X67237055Y-122037953D01*
X66106175Y-122328689D01*
X66102104Y-122329662D01*
X64962112Y-122582050D01*
X64958010Y-122582886D01*
X63810119Y-122796656D01*
X63805991Y-122797353D01*
X62651536Y-122972254D01*
X62647388Y-122972811D01*
X61487705Y-123108645D01*
X61483539Y-123109062D01*
X60319914Y-123205675D01*
X60315737Y-123205951D01*
X59149495Y-123263234D01*
X59145311Y-123263368D01*
X57977864Y-123281251D01*
X57973678Y-123281245D01*
X56806232Y-123259712D01*
X56802049Y-123259564D01*
X55636021Y-123198639D01*
X55631845Y-123198350D01*
X54468527Y-123098100D01*
X54464363Y-123097670D01*
X53305107Y-122958212D01*
X53300960Y-122957642D01*
X52147086Y-122779136D01*
X52142960Y-122778427D01*
X50995709Y-122561066D01*
X50991610Y-122560217D01*
X49852411Y-122304267D01*
X49848343Y-122303281D01*
X48718378Y-122009011D01*
X48714345Y-122007887D01*
X47700146Y-121706866D01*
X47595011Y-121675661D01*
X47591037Y-121674408D01*
X47173796Y-121535080D01*
X46483503Y-121304571D01*
X46479555Y-121303178D01*
X45385167Y-120896180D01*
X45381269Y-120894655D01*
X44964260Y-120723336D01*
X44301239Y-120450948D01*
X44297394Y-120449292D01*
X43232940Y-119969376D01*
X43229154Y-119967591D01*
X42930244Y-119820490D01*
X42709129Y-119711674D01*
X42709103Y-119711661D01*
X55060000Y-119711661D01*
X55060000Y-120160000D01*
X55760000Y-120160000D01*
X55760000Y-120660000D01*
X55060000Y-120660000D01*
X55060000Y-121108338D01*
X55062737Y-121143119D01*
X55062738Y-121143125D01*
X55105991Y-121292000D01*
X55105992Y-121292003D01*
X55184913Y-121425452D01*
X55184919Y-121425460D01*
X55294539Y-121535080D01*
X55294547Y-121535086D01*
X55427996Y-121614007D01*
X55427999Y-121614008D01*
X55576874Y-121657261D01*
X55576880Y-121657262D01*
X55611661Y-121659999D01*
X55611674Y-121660000D01*
X55810000Y-121660000D01*
X55810000Y-120876988D01*
X55819940Y-120894205D01*
X55875795Y-120950060D01*
X55944204Y-120989556D01*
X56020504Y-121010000D01*
X56099496Y-121010000D01*
X56175796Y-120989556D01*
X56244205Y-120950060D01*
X56300060Y-120894205D01*
X56310000Y-120876988D01*
X56310000Y-121660000D01*
X56508326Y-121660000D01*
X56508338Y-121659999D01*
X56543119Y-121657262D01*
X56543125Y-121657261D01*
X56692000Y-121614008D01*
X56692003Y-121614007D01*
X56825452Y-121535086D01*
X56825460Y-121535080D01*
X56935080Y-121425460D01*
X56935086Y-121425452D01*
X57014007Y-121292003D01*
X57014008Y-121292000D01*
X57057261Y-121143125D01*
X57057262Y-121143119D01*
X57059999Y-121108338D01*
X57060000Y-121108325D01*
X57060000Y-120660000D01*
X56360000Y-120660000D01*
X56360000Y-120160000D01*
X57060000Y-120160000D01*
X57060000Y-119711674D01*
X57059999Y-119711661D01*
X63260000Y-119711661D01*
X63260000Y-120160000D01*
X63960000Y-120160000D01*
X63960000Y-120660000D01*
X63260000Y-120660000D01*
X63260000Y-121108338D01*
X63262737Y-121143119D01*
X63262738Y-121143125D01*
X63305991Y-121292000D01*
X63305992Y-121292003D01*
X63384913Y-121425452D01*
X63384919Y-121425460D01*
X63494539Y-121535080D01*
X63494547Y-121535086D01*
X63627996Y-121614007D01*
X63627999Y-121614008D01*
X63776874Y-121657261D01*
X63776880Y-121657262D01*
X63811661Y-121659999D01*
X63811674Y-121660000D01*
X64010000Y-121660000D01*
X64010000Y-120876988D01*
X64019940Y-120894205D01*
X64075795Y-120950060D01*
X64144204Y-120989556D01*
X64220504Y-121010000D01*
X64299496Y-121010000D01*
X64375796Y-120989556D01*
X64444205Y-120950060D01*
X64500060Y-120894205D01*
X64510000Y-120876988D01*
X64510000Y-121660000D01*
X64708326Y-121660000D01*
X64708338Y-121659999D01*
X64743119Y-121657262D01*
X64743125Y-121657261D01*
X64892000Y-121614008D01*
X64892003Y-121614007D01*
X65025452Y-121535086D01*
X65025460Y-121535080D01*
X65135080Y-121425460D01*
X65135086Y-121425452D01*
X65214007Y-121292003D01*
X65214008Y-121292000D01*
X65257261Y-121143125D01*
X65257262Y-121143119D01*
X65259999Y-121108338D01*
X65260000Y-121108325D01*
X65260000Y-120660000D01*
X64560000Y-120660000D01*
X64560000Y-120160000D01*
X65260000Y-120160000D01*
X65260000Y-119711674D01*
X65259999Y-119711661D01*
X65257262Y-119676880D01*
X65257261Y-119676874D01*
X65214008Y-119527999D01*
X65214007Y-119527996D01*
X65135086Y-119394547D01*
X65135080Y-119394539D01*
X65025460Y-119284919D01*
X65025452Y-119284913D01*
X64892003Y-119205992D01*
X64892000Y-119205991D01*
X64743125Y-119162738D01*
X64743119Y-119162737D01*
X64708338Y-119160000D01*
X64510000Y-119160000D01*
X64510000Y-119943011D01*
X64500060Y-119925795D01*
X64444205Y-119869940D01*
X64375796Y-119830444D01*
X64299496Y-119810000D01*
X64220504Y-119810000D01*
X64144204Y-119830444D01*
X64075795Y-119869940D01*
X64019940Y-119925795D01*
X64010000Y-119943011D01*
X64010000Y-119160000D01*
X63811661Y-119160000D01*
X63776880Y-119162737D01*
X63776874Y-119162738D01*
X63627999Y-119205991D01*
X63627996Y-119205992D01*
X63494547Y-119284913D01*
X63494539Y-119284919D01*
X63384919Y-119394539D01*
X63384913Y-119394547D01*
X63305992Y-119527996D01*
X63305991Y-119527999D01*
X63262738Y-119676874D01*
X63262737Y-119676880D01*
X63260000Y-119711661D01*
X57059999Y-119711661D01*
X57057262Y-119676880D01*
X57057261Y-119676874D01*
X57014008Y-119527999D01*
X57014007Y-119527996D01*
X56935086Y-119394547D01*
X56935080Y-119394539D01*
X56825460Y-119284919D01*
X56825452Y-119284913D01*
X56692003Y-119205992D01*
X56692000Y-119205991D01*
X56543125Y-119162738D01*
X56543119Y-119162737D01*
X56508338Y-119160000D01*
X56310000Y-119160000D01*
X56310000Y-119943011D01*
X56300060Y-119925795D01*
X56244205Y-119869940D01*
X56175796Y-119830444D01*
X56099496Y-119810000D01*
X56020504Y-119810000D01*
X55944204Y-119830444D01*
X55875795Y-119869940D01*
X55819940Y-119925795D01*
X55810000Y-119943011D01*
X55810000Y-119160000D01*
X55611661Y-119160000D01*
X55576880Y-119162737D01*
X55576874Y-119162738D01*
X55427999Y-119205991D01*
X55427996Y-119205992D01*
X55294547Y-119284913D01*
X55294539Y-119284919D01*
X55184919Y-119394539D01*
X55184913Y-119394547D01*
X55105992Y-119527996D01*
X55105991Y-119527999D01*
X55062738Y-119676874D01*
X55062737Y-119676880D01*
X55060000Y-119711661D01*
X42709103Y-119711661D01*
X42181526Y-119452028D01*
X42177861Y-119450148D01*
X41175281Y-118913982D01*
X57684500Y-118913982D01*
X57684500Y-119026018D01*
X57713497Y-119134237D01*
X57769515Y-119231263D01*
X57848737Y-119310485D01*
X57945763Y-119366503D01*
X58053982Y-119395500D01*
X58053984Y-119395500D01*
X58166016Y-119395500D01*
X58166018Y-119395500D01*
X58274237Y-119366503D01*
X58371263Y-119310485D01*
X58450485Y-119231263D01*
X58506503Y-119134237D01*
X58535500Y-119026018D01*
X58535500Y-118913982D01*
X58506503Y-118805763D01*
X58491392Y-118779590D01*
X67261076Y-118779590D01*
X67261076Y-118779593D01*
X67269669Y-118976387D01*
X67316489Y-119167723D01*
X67316492Y-119167731D01*
X67379244Y-119302304D01*
X67768787Y-119120657D01*
X68013659Y-119006469D01*
X68224968Y-119459624D01*
X67590552Y-119755458D01*
X67653304Y-119890029D01*
X67769789Y-120048897D01*
X67915009Y-120181967D01*
X67915023Y-120181977D01*
X68083414Y-120284158D01*
X68083415Y-120284159D01*
X68268524Y-120351533D01*
X68463213Y-120381500D01*
X68660009Y-120372907D01*
X68701296Y-120362804D01*
X68361985Y-119635151D01*
X68378272Y-119646555D01*
X68452499Y-119673572D01*
X68531190Y-119680456D01*
X68608982Y-119666739D01*
X68680573Y-119633356D01*
X68741084Y-119582582D01*
X68786392Y-119517875D01*
X68813409Y-119443648D01*
X68815141Y-119423843D01*
X69154450Y-120151494D01*
X69154451Y-120151494D01*
X69188725Y-120126364D01*
X69188736Y-120126354D01*
X69321804Y-119981137D01*
X69321814Y-119981123D01*
X69423995Y-119812732D01*
X69423996Y-119812731D01*
X69491370Y-119627622D01*
X69521337Y-119432935D01*
X69521337Y-119432932D01*
X69512744Y-119236138D01*
X69465924Y-119044802D01*
X69465921Y-119044794D01*
X69403167Y-118910220D01*
X68768753Y-119206053D01*
X68557444Y-118752898D01*
X69191859Y-118457066D01*
X69191860Y-118457066D01*
X69129109Y-118322497D01*
X69129109Y-118322496D01*
X69012624Y-118163628D01*
X68867404Y-118030558D01*
X68867390Y-118030548D01*
X68698999Y-117928367D01*
X68698998Y-117928366D01*
X68513889Y-117860992D01*
X68319200Y-117831025D01*
X68122405Y-117839618D01*
X68122401Y-117839618D01*
X68081116Y-117849720D01*
X68420426Y-118577373D01*
X68404142Y-118565971D01*
X68329915Y-118538954D01*
X68251224Y-118532070D01*
X68173432Y-118545787D01*
X68101841Y-118579170D01*
X68041330Y-118629945D01*
X67996022Y-118694651D01*
X67969005Y-118768878D01*
X67967272Y-118788684D01*
X67627961Y-118061030D01*
X67593686Y-118086163D01*
X67593681Y-118086167D01*
X67460609Y-118231389D01*
X67460599Y-118231402D01*
X67358418Y-118399793D01*
X67358417Y-118399794D01*
X67291043Y-118584903D01*
X67261076Y-118779590D01*
X58491392Y-118779590D01*
X58450485Y-118708737D01*
X58371263Y-118629515D01*
X58274237Y-118573497D01*
X58166018Y-118544500D01*
X58053982Y-118544500D01*
X57945763Y-118573497D01*
X57945760Y-118573498D01*
X57848740Y-118629513D01*
X57848734Y-118629517D01*
X57769517Y-118708734D01*
X57769513Y-118708740D01*
X57713498Y-118805760D01*
X57713497Y-118805763D01*
X57684500Y-118913982D01*
X41175281Y-118913982D01*
X41148182Y-118899490D01*
X41144527Y-118897456D01*
X40134048Y-118312372D01*
X40130461Y-118310213D01*
X39560727Y-117954123D01*
X39393685Y-117849720D01*
X39140331Y-117691370D01*
X39136829Y-117689099D01*
X38168129Y-117037172D01*
X38164696Y-117034776D01*
X37467476Y-116530545D01*
X37218589Y-116350549D01*
X37215245Y-116348044D01*
X36858098Y-116070924D01*
X36858084Y-116070914D01*
X36292721Y-115632234D01*
X36289458Y-115629612D01*
X35391669Y-114883110D01*
X35388496Y-114880380D01*
X35361771Y-114856588D01*
X35347049Y-114843482D01*
X35258497Y-114764647D01*
X65388878Y-114764647D01*
X65388878Y-114764649D01*
X65397472Y-114961446D01*
X65444291Y-115152779D01*
X65444294Y-115152789D01*
X65612700Y-115513937D01*
X66247116Y-115218102D01*
X66458425Y-115671257D01*
X65824009Y-115967091D01*
X65992418Y-116328243D01*
X65992420Y-116328247D01*
X66108898Y-116487103D01*
X66108900Y-116487105D01*
X66254122Y-116620177D01*
X66254136Y-116620187D01*
X66422527Y-116722368D01*
X66422529Y-116722369D01*
X66607635Y-116789743D01*
X66607634Y-116789743D01*
X66802326Y-116819710D01*
X66999120Y-116811116D01*
X67040407Y-116801012D01*
X66701097Y-116073360D01*
X66717384Y-116084765D01*
X66791611Y-116111781D01*
X66870303Y-116118666D01*
X66948094Y-116104949D01*
X67019685Y-116071565D01*
X67080196Y-116020791D01*
X67125504Y-115956084D01*
X67152520Y-115881857D01*
X67154252Y-115862052D01*
X67493561Y-116589703D01*
X67493562Y-116589703D01*
X67527838Y-116564573D01*
X67660921Y-116419339D01*
X67660927Y-116419331D01*
X67763108Y-116250940D01*
X67763109Y-116250939D01*
X67829883Y-116067480D01*
X67829883Y-116067479D01*
X67830482Y-116065832D01*
X67860449Y-115871144D01*
X67860449Y-115871142D01*
X67859812Y-115856552D01*
X67876553Y-115788717D01*
X67927311Y-115740702D01*
X67995969Y-115727751D01*
X68015779Y-115731366D01*
X68056227Y-115742204D01*
X68056229Y-115742204D01*
X68207757Y-115742204D01*
X68207759Y-115742204D01*
X68354128Y-115702985D01*
X68485358Y-115627219D01*
X68592508Y-115520069D01*
X68668274Y-115388839D01*
X68707493Y-115242470D01*
X68707493Y-115128168D01*
X75091576Y-115128168D01*
X75091576Y-115128171D01*
X75100169Y-115324965D01*
X75146989Y-115516301D01*
X75146992Y-115516309D01*
X75209744Y-115650882D01*
X75599287Y-115469235D01*
X75844159Y-115355047D01*
X76055468Y-115808202D01*
X75421052Y-116104036D01*
X75483804Y-116238607D01*
X75600289Y-116397475D01*
X75745509Y-116530545D01*
X75745523Y-116530555D01*
X75913914Y-116632736D01*
X75913915Y-116632737D01*
X76099024Y-116700111D01*
X76293713Y-116730078D01*
X76490509Y-116721485D01*
X76531796Y-116711382D01*
X76192485Y-115983729D01*
X76208772Y-115995133D01*
X76282999Y-116022150D01*
X76361690Y-116029034D01*
X76439482Y-116015317D01*
X76511073Y-115981934D01*
X76571584Y-115931160D01*
X76616892Y-115866453D01*
X76643909Y-115792226D01*
X76645641Y-115772421D01*
X76984950Y-116500072D01*
X76984951Y-116500072D01*
X77019225Y-116474942D01*
X77019236Y-116474932D01*
X77152304Y-116329715D01*
X77152314Y-116329701D01*
X77254495Y-116161310D01*
X77254496Y-116161309D01*
X77321870Y-115976200D01*
X77351837Y-115781513D01*
X77351837Y-115781510D01*
X77343244Y-115584716D01*
X77296424Y-115393380D01*
X77296421Y-115393372D01*
X77233667Y-115258798D01*
X76599253Y-115554631D01*
X76387944Y-115101476D01*
X77022359Y-114805644D01*
X77022360Y-114805644D01*
X76959609Y-114671075D01*
X76959609Y-114671074D01*
X76843124Y-114512206D01*
X76697904Y-114379136D01*
X76697890Y-114379126D01*
X76529499Y-114276945D01*
X76529498Y-114276944D01*
X76344389Y-114209570D01*
X76149700Y-114179603D01*
X75952905Y-114188196D01*
X75952901Y-114188196D01*
X75911616Y-114198298D01*
X76250926Y-114925951D01*
X76234642Y-114914549D01*
X76160415Y-114887532D01*
X76081724Y-114880648D01*
X76003932Y-114894365D01*
X75932341Y-114927748D01*
X75871830Y-114978523D01*
X75826522Y-115043229D01*
X75799505Y-115117456D01*
X75797772Y-115137262D01*
X75458461Y-114409608D01*
X75424186Y-114434741D01*
X75424181Y-114434745D01*
X75291109Y-114579967D01*
X75291099Y-114579980D01*
X75188918Y-114748371D01*
X75188917Y-114748372D01*
X75121543Y-114933481D01*
X75091576Y-115128168D01*
X68707493Y-115128168D01*
X68707493Y-115090938D01*
X68668274Y-114944569D01*
X68592508Y-114813339D01*
X68485358Y-114706189D01*
X68399894Y-114656846D01*
X68354129Y-114630423D01*
X68226908Y-114596335D01*
X68207759Y-114591204D01*
X68056227Y-114591204D01*
X67909856Y-114630423D01*
X67778628Y-114706189D01*
X67674819Y-114809998D01*
X67613496Y-114843482D01*
X67543804Y-114838498D01*
X67487871Y-114796626D01*
X67474756Y-114774721D01*
X67256910Y-114307548D01*
X67230018Y-114270872D01*
X67230017Y-114270871D01*
X67140426Y-114148684D01*
X66995205Y-114015613D01*
X66995191Y-114015603D01*
X66826800Y-113913422D01*
X66826796Y-113913420D01*
X66641691Y-113846048D01*
X66641693Y-113846048D01*
X66447002Y-113816081D01*
X66250203Y-113824675D01*
X66208919Y-113834776D01*
X66548229Y-114562430D01*
X66531944Y-114551027D01*
X66457717Y-114524010D01*
X66379025Y-114517126D01*
X66301234Y-114530843D01*
X66229643Y-114564226D01*
X66169132Y-114615001D01*
X66123824Y-114679707D01*
X66096807Y-114753934D01*
X66095074Y-114773740D01*
X65755763Y-114046086D01*
X65721484Y-114071222D01*
X65588410Y-114216446D01*
X65588400Y-114216459D01*
X65486219Y-114384850D01*
X65486217Y-114384854D01*
X65418845Y-114569958D01*
X65388878Y-114764647D01*
X35258497Y-114764647D01*
X34516390Y-114103977D01*
X34513311Y-114101141D01*
X34327170Y-113923808D01*
X33667915Y-113295748D01*
X33664933Y-113292810D01*
X33558653Y-113184484D01*
X33058283Y-112674483D01*
X33032502Y-112648206D01*
X72794952Y-112648206D01*
X72794952Y-112799737D01*
X72834171Y-112946108D01*
X72858424Y-112988114D01*
X72909937Y-113077337D01*
X73017087Y-113184487D01*
X73148317Y-113260253D01*
X73294686Y-113299472D01*
X73294688Y-113299472D01*
X73446216Y-113299472D01*
X73446218Y-113299472D01*
X73592587Y-113260253D01*
X73723817Y-113184487D01*
X73830967Y-113077337D01*
X73882480Y-112988113D01*
X73933047Y-112939898D01*
X74001654Y-112926675D01*
X74066519Y-112952643D01*
X74073641Y-112958692D01*
X74084627Y-112968759D01*
X74084635Y-112968765D01*
X74253026Y-113070946D01*
X74253028Y-113070947D01*
X74438134Y-113138321D01*
X74438133Y-113138321D01*
X74632825Y-113168288D01*
X74829619Y-113159694D01*
X74870906Y-113149590D01*
X74531596Y-112421939D01*
X74547883Y-112433343D01*
X74622110Y-112460359D01*
X74700802Y-112467244D01*
X74778593Y-112453527D01*
X74850184Y-112420143D01*
X74910695Y-112369369D01*
X74956003Y-112304662D01*
X74983019Y-112230435D01*
X74984751Y-112210631D01*
X75324060Y-112938281D01*
X75324061Y-112938281D01*
X75358337Y-112913151D01*
X75491420Y-112767917D01*
X75491426Y-112767909D01*
X75593607Y-112599518D01*
X75593609Y-112599514D01*
X75660981Y-112414411D01*
X75690948Y-112219722D01*
X75690948Y-112219720D01*
X75682354Y-112022927D01*
X75635534Y-111831585D01*
X75635533Y-111831582D01*
X75467124Y-111470431D01*
X74832709Y-111766264D01*
X74621400Y-111313110D01*
X75255815Y-111017277D01*
X75255816Y-111017277D01*
X75087410Y-110656129D01*
X75087406Y-110656121D01*
X74970928Y-110497265D01*
X74970926Y-110497263D01*
X74825704Y-110364191D01*
X74825690Y-110364181D01*
X74657299Y-110262000D01*
X74657295Y-110261998D01*
X74472190Y-110194626D01*
X74472192Y-110194626D01*
X74277501Y-110164659D01*
X74080702Y-110173253D01*
X74039418Y-110183354D01*
X74378728Y-110911008D01*
X74362443Y-110899605D01*
X74288216Y-110872588D01*
X74209524Y-110865704D01*
X74131733Y-110879421D01*
X74060142Y-110912804D01*
X73999631Y-110963579D01*
X73954323Y-111028285D01*
X73927306Y-111102512D01*
X73925573Y-111122318D01*
X73586262Y-110394664D01*
X73551983Y-110419800D01*
X73418909Y-110565024D01*
X73418899Y-110565037D01*
X73316718Y-110733428D01*
X73316716Y-110733432D01*
X73249344Y-110918536D01*
X73219377Y-111113225D01*
X73219377Y-111113227D01*
X73227971Y-111310024D01*
X73274790Y-111501357D01*
X73274793Y-111501367D01*
X73443199Y-111862515D01*
X73832742Y-111680868D01*
X74077615Y-111566680D01*
X74288924Y-112019834D01*
X73801381Y-112247181D01*
X73732303Y-112257673D01*
X73686976Y-112242186D01*
X73592590Y-112187692D01*
X73592587Y-112187691D01*
X73446218Y-112148472D01*
X73294686Y-112148472D01*
X73148315Y-112187691D01*
X73017087Y-112263457D01*
X73017084Y-112263459D01*
X72909939Y-112370604D01*
X72909937Y-112370607D01*
X72834171Y-112501835D01*
X72794952Y-112648206D01*
X33032502Y-112648206D01*
X32847219Y-112459356D01*
X32844338Y-112456319D01*
X32424723Y-111998704D01*
X32055199Y-111595716D01*
X32052459Y-111592625D01*
X31474997Y-110918536D01*
X31292789Y-110705839D01*
X31290120Y-110702614D01*
X30936184Y-110260053D01*
X30560861Y-109790750D01*
X30558302Y-109787437D01*
X30425957Y-109609989D01*
X30376727Y-109543982D01*
X57574500Y-109543982D01*
X57574500Y-109656017D01*
X57603497Y-109764236D01*
X57603498Y-109764239D01*
X57617861Y-109789117D01*
X57659515Y-109861263D01*
X57738737Y-109940485D01*
X57835763Y-109996503D01*
X57943982Y-110025500D01*
X57943984Y-110025500D01*
X58056016Y-110025500D01*
X58056018Y-110025500D01*
X58164237Y-109996503D01*
X58261263Y-109940485D01*
X58340485Y-109861263D01*
X58396503Y-109764237D01*
X58425500Y-109656018D01*
X58425500Y-109543982D01*
X58396503Y-109435763D01*
X58340485Y-109338737D01*
X58261263Y-109259515D01*
X58164237Y-109203497D01*
X58056018Y-109174500D01*
X57943982Y-109174500D01*
X57835763Y-109203497D01*
X57835760Y-109203498D01*
X57738740Y-109259513D01*
X57738734Y-109259517D01*
X57659517Y-109338734D01*
X57659513Y-109338740D01*
X57603498Y-109435760D01*
X57603497Y-109435763D01*
X57574500Y-109543982D01*
X30376727Y-109543982D01*
X29860226Y-108851461D01*
X29857781Y-108848064D01*
X29191710Y-107889080D01*
X29189380Y-107885603D01*
X29186420Y-107881018D01*
X29114085Y-107768982D01*
X61874500Y-107768982D01*
X61874500Y-107881018D01*
X61903497Y-107989237D01*
X61959515Y-108086263D01*
X62038737Y-108165485D01*
X62135763Y-108221503D01*
X62243982Y-108250500D01*
X62243984Y-108250500D01*
X62356016Y-108250500D01*
X62356018Y-108250500D01*
X62464237Y-108221503D01*
X62561263Y-108165485D01*
X62640485Y-108086263D01*
X62696503Y-107989237D01*
X62725500Y-107881018D01*
X62725500Y-107768982D01*
X62696503Y-107660763D01*
X62640485Y-107563737D01*
X62561263Y-107484515D01*
X62464237Y-107428497D01*
X62356018Y-107399500D01*
X62243982Y-107399500D01*
X62135763Y-107428497D01*
X62135760Y-107428498D01*
X62038740Y-107484513D01*
X62038734Y-107484517D01*
X61959517Y-107563734D01*
X61959513Y-107563740D01*
X61903498Y-107660760D01*
X61903497Y-107660763D01*
X61874500Y-107768982D01*
X29114085Y-107768982D01*
X28556039Y-106904651D01*
X28553831Y-106901101D01*
X27953967Y-105899342D01*
X27951889Y-105895735D01*
X27873523Y-105754239D01*
X27751537Y-105533982D01*
X63594500Y-105533982D01*
X63594500Y-105646018D01*
X63623497Y-105754237D01*
X63679515Y-105851263D01*
X63758737Y-105930485D01*
X63855763Y-105986503D01*
X63963982Y-106015500D01*
X63963984Y-106015500D01*
X64076016Y-106015500D01*
X64076018Y-106015500D01*
X64184237Y-105986503D01*
X64281263Y-105930485D01*
X64360485Y-105851263D01*
X64416503Y-105754237D01*
X64445500Y-105646018D01*
X64445500Y-105533982D01*
X64416503Y-105425763D01*
X64360485Y-105328737D01*
X64281263Y-105249515D01*
X64184237Y-105193497D01*
X64076018Y-105164500D01*
X63963982Y-105164500D01*
X63855763Y-105193497D01*
X63855760Y-105193498D01*
X63758740Y-105249513D01*
X63758734Y-105249517D01*
X63679517Y-105328734D01*
X63679513Y-105328740D01*
X63623498Y-105425760D01*
X63623497Y-105425763D01*
X63594500Y-105533982D01*
X27751537Y-105533982D01*
X27386182Y-104874301D01*
X27384217Y-104870606D01*
X27344208Y-104792237D01*
X27344207Y-104792236D01*
X27319573Y-104743982D01*
X68874500Y-104743982D01*
X68874500Y-104856018D01*
X68882699Y-104886615D01*
X68903497Y-104964236D01*
X68903498Y-104964239D01*
X68922169Y-104996579D01*
X68959515Y-105061263D01*
X69038737Y-105140485D01*
X69135763Y-105196503D01*
X69243982Y-105225500D01*
X69243984Y-105225500D01*
X69356016Y-105225500D01*
X69356018Y-105225500D01*
X69464237Y-105196503D01*
X69561263Y-105140485D01*
X69640485Y-105061263D01*
X69696503Y-104964237D01*
X69725500Y-104856018D01*
X69725500Y-104743982D01*
X70094500Y-104743982D01*
X70094500Y-104856018D01*
X70102699Y-104886615D01*
X70123497Y-104964236D01*
X70123498Y-104964239D01*
X70142169Y-104996579D01*
X70179515Y-105061263D01*
X70258737Y-105140485D01*
X70355763Y-105196503D01*
X70463982Y-105225500D01*
X70463984Y-105225500D01*
X70576016Y-105225500D01*
X70576018Y-105225500D01*
X70684237Y-105196503D01*
X70781263Y-105140485D01*
X70860485Y-105061263D01*
X70916503Y-104964237D01*
X70945500Y-104856018D01*
X70945500Y-104743982D01*
X70916503Y-104635763D01*
X70867387Y-104550691D01*
X77379500Y-104550691D01*
X77379500Y-104669309D01*
X77410201Y-104783886D01*
X77469511Y-104886613D01*
X77553387Y-104970489D01*
X77656114Y-105029799D01*
X77770691Y-105060500D01*
X77770694Y-105060500D01*
X77889306Y-105060500D01*
X77889309Y-105060500D01*
X78003886Y-105029799D01*
X78106613Y-104970489D01*
X78190489Y-104886613D01*
X78249799Y-104783886D01*
X78280500Y-104669309D01*
X78280500Y-104550691D01*
X78249799Y-104436114D01*
X78190489Y-104333387D01*
X78106613Y-104249511D01*
X78003886Y-104190201D01*
X77889309Y-104159500D01*
X77770691Y-104159500D01*
X77656114Y-104190201D01*
X77656112Y-104190201D01*
X77656112Y-104190202D01*
X77553387Y-104249511D01*
X77553384Y-104249513D01*
X77469513Y-104333384D01*
X77469511Y-104333387D01*
X77429033Y-104403497D01*
X77410201Y-104436114D01*
X77379500Y-104550691D01*
X70867387Y-104550691D01*
X70860485Y-104538737D01*
X70781263Y-104459515D01*
X70696341Y-104410485D01*
X70684239Y-104403498D01*
X70684238Y-104403497D01*
X70684237Y-104403497D01*
X70576018Y-104374500D01*
X70463982Y-104374500D01*
X70355763Y-104403497D01*
X70355760Y-104403498D01*
X70258740Y-104459513D01*
X70258734Y-104459517D01*
X70179517Y-104538734D01*
X70179513Y-104538740D01*
X70123498Y-104635760D01*
X70123497Y-104635763D01*
X70094500Y-104743982D01*
X69725500Y-104743982D01*
X69696503Y-104635763D01*
X69640485Y-104538737D01*
X69561263Y-104459515D01*
X69476341Y-104410485D01*
X69464239Y-104403498D01*
X69464238Y-104403497D01*
X69464237Y-104403497D01*
X69356018Y-104374500D01*
X69243982Y-104374500D01*
X69135763Y-104403497D01*
X69135760Y-104403498D01*
X69038740Y-104459513D01*
X69038734Y-104459517D01*
X68959517Y-104538734D01*
X68959513Y-104538740D01*
X68903498Y-104635760D01*
X68903497Y-104635763D01*
X68874500Y-104743982D01*
X27319573Y-104743982D01*
X26971533Y-104062238D01*
X26971532Y-104062237D01*
X26946897Y-104013982D01*
X74184500Y-104013982D01*
X74184500Y-104126018D01*
X74213497Y-104234237D01*
X74269515Y-104331263D01*
X74348737Y-104410485D01*
X74445763Y-104466503D01*
X74553982Y-104495500D01*
X74553984Y-104495500D01*
X74666016Y-104495500D01*
X74666018Y-104495500D01*
X74774237Y-104466503D01*
X74871263Y-104410485D01*
X74950485Y-104331263D01*
X75006503Y-104234237D01*
X75035500Y-104126018D01*
X75035500Y-104013982D01*
X75006503Y-103905763D01*
X74950485Y-103808737D01*
X74871263Y-103729515D01*
X74774237Y-103673497D01*
X74666018Y-103644500D01*
X74553982Y-103644500D01*
X74445763Y-103673497D01*
X74445760Y-103673498D01*
X74348740Y-103729513D01*
X74348734Y-103729517D01*
X74269517Y-103808734D01*
X74269513Y-103808740D01*
X74213498Y-103905760D01*
X74213497Y-103905763D01*
X74184500Y-104013982D01*
X26946897Y-104013982D01*
X26853303Y-103830649D01*
X26851463Y-103826889D01*
X26842956Y-103808737D01*
X26355955Y-102769603D01*
X26354250Y-102765798D01*
X26109449Y-102193982D01*
X67474500Y-102193982D01*
X67474500Y-102306018D01*
X67503497Y-102414237D01*
X67559515Y-102511263D01*
X67638737Y-102590485D01*
X67735763Y-102646503D01*
X67843982Y-102675500D01*
X67843984Y-102675500D01*
X67956016Y-102675500D01*
X67956018Y-102675500D01*
X68064237Y-102646503D01*
X68161263Y-102590485D01*
X68240485Y-102511263D01*
X68296503Y-102414237D01*
X68325500Y-102306018D01*
X68325500Y-102193982D01*
X68296503Y-102085763D01*
X68244500Y-101995691D01*
X74219500Y-101995691D01*
X74219500Y-102114309D01*
X74250201Y-102228886D01*
X74309511Y-102331613D01*
X74393387Y-102415489D01*
X74496114Y-102474799D01*
X74610691Y-102505500D01*
X74610694Y-102505500D01*
X74729306Y-102505500D01*
X74729309Y-102505500D01*
X74843886Y-102474799D01*
X74946613Y-102415489D01*
X75030489Y-102331613D01*
X75089799Y-102228886D01*
X75120500Y-102114309D01*
X75120500Y-101995691D01*
X75089799Y-101881114D01*
X75030489Y-101778387D01*
X74946613Y-101694511D01*
X74843886Y-101635201D01*
X74729309Y-101604500D01*
X74610691Y-101604500D01*
X74496114Y-101635201D01*
X74496112Y-101635201D01*
X74496112Y-101635202D01*
X74393387Y-101694511D01*
X74393384Y-101694513D01*
X74309513Y-101778384D01*
X74309511Y-101778387D01*
X74250201Y-101881114D01*
X74219500Y-101995691D01*
X68244500Y-101995691D01*
X68240485Y-101988737D01*
X68161263Y-101909515D01*
X68064237Y-101853497D01*
X67956018Y-101824500D01*
X67843982Y-101824500D01*
X67735763Y-101853497D01*
X67735760Y-101853498D01*
X67638740Y-101909513D01*
X67638734Y-101909517D01*
X67559517Y-101988734D01*
X67559513Y-101988740D01*
X67503498Y-102085760D01*
X67503497Y-102085763D01*
X67474500Y-102193982D01*
X26109449Y-102193982D01*
X25894703Y-101692370D01*
X25893144Y-101688550D01*
X25545409Y-100793982D01*
X61649500Y-100793982D01*
X61649500Y-100906018D01*
X61678497Y-101014237D01*
X61734515Y-101111263D01*
X61813737Y-101190485D01*
X61910763Y-101246503D01*
X62018982Y-101275500D01*
X62018984Y-101275500D01*
X62131016Y-101275500D01*
X62131018Y-101275500D01*
X62239237Y-101246503D01*
X62336263Y-101190485D01*
X62415485Y-101111263D01*
X62471503Y-101014237D01*
X62500500Y-100906018D01*
X62500500Y-100793982D01*
X62471503Y-100685763D01*
X62415485Y-100588737D01*
X62336263Y-100509515D01*
X62239237Y-100453497D01*
X62131018Y-100424500D01*
X62018982Y-100424500D01*
X61910763Y-100453497D01*
X61910760Y-100453498D01*
X61813740Y-100509513D01*
X61813734Y-100509517D01*
X61734517Y-100588734D01*
X61734513Y-100588740D01*
X61678498Y-100685760D01*
X61678497Y-100685763D01*
X61649500Y-100793982D01*
X25545409Y-100793982D01*
X25470092Y-100600224D01*
X25468661Y-100596350D01*
X25397762Y-100393982D01*
X71244500Y-100393982D01*
X71244500Y-100506018D01*
X71273497Y-100614237D01*
X71329515Y-100711263D01*
X71408737Y-100790485D01*
X71505763Y-100846503D01*
X71613982Y-100875500D01*
X71613984Y-100875500D01*
X71726016Y-100875500D01*
X71726018Y-100875500D01*
X71834237Y-100846503D01*
X71931263Y-100790485D01*
X72010485Y-100711263D01*
X72066503Y-100614237D01*
X72095500Y-100506018D01*
X72095500Y-100393982D01*
X72066503Y-100285763D01*
X72010485Y-100188737D01*
X71931263Y-100109515D01*
X71834237Y-100053497D01*
X71726018Y-100024500D01*
X71613982Y-100024500D01*
X71505763Y-100053497D01*
X71505760Y-100053498D01*
X71408740Y-100109513D01*
X71408734Y-100109517D01*
X71329517Y-100188734D01*
X71329513Y-100188740D01*
X71273498Y-100285760D01*
X71273497Y-100285763D01*
X71244500Y-100393982D01*
X25397762Y-100393982D01*
X25082580Y-99494348D01*
X25081268Y-99490388D01*
X25075285Y-99471265D01*
X24976017Y-99153982D01*
X56754500Y-99153982D01*
X56754500Y-99266018D01*
X56783497Y-99374237D01*
X56839515Y-99471263D01*
X56918737Y-99550485D01*
X57015763Y-99606503D01*
X57123982Y-99635500D01*
X57123984Y-99635500D01*
X57236016Y-99635500D01*
X57236018Y-99635500D01*
X57344237Y-99606503D01*
X57441263Y-99550485D01*
X57520485Y-99471263D01*
X57548236Y-99423197D01*
X74419500Y-99423197D01*
X74419500Y-99541815D01*
X74450201Y-99656392D01*
X74509511Y-99759119D01*
X74593387Y-99842995D01*
X74696114Y-99902305D01*
X74810691Y-99933006D01*
X74810694Y-99933006D01*
X74929306Y-99933006D01*
X74929309Y-99933006D01*
X75043886Y-99902305D01*
X75146613Y-99842995D01*
X75230489Y-99759119D01*
X75289799Y-99656392D01*
X75320500Y-99541815D01*
X75320500Y-99423197D01*
X75289799Y-99308620D01*
X75230489Y-99205893D01*
X75146613Y-99122017D01*
X75043886Y-99062707D01*
X74929309Y-99032006D01*
X74810691Y-99032006D01*
X74696114Y-99062707D01*
X74696112Y-99062707D01*
X74696112Y-99062708D01*
X74593387Y-99122017D01*
X74593384Y-99122019D01*
X74509513Y-99205890D01*
X74509511Y-99205893D01*
X74450201Y-99308620D01*
X74419500Y-99423197D01*
X57548236Y-99423197D01*
X57576503Y-99374237D01*
X57605500Y-99266018D01*
X57605500Y-99153982D01*
X57576503Y-99045763D01*
X57520485Y-98948737D01*
X57441263Y-98869515D01*
X57344237Y-98813497D01*
X57236018Y-98784500D01*
X57123982Y-98784500D01*
X57015763Y-98813497D01*
X57015760Y-98813498D01*
X56918740Y-98869513D01*
X56918734Y-98869517D01*
X56839517Y-98948734D01*
X56839513Y-98948740D01*
X56783498Y-99045760D01*
X56783497Y-99045763D01*
X56754500Y-99153982D01*
X24976017Y-99153982D01*
X24732615Y-98376019D01*
X24731434Y-98372006D01*
X24664732Y-98130488D01*
X24420581Y-97246457D01*
X24419942Y-97243982D01*
X69574500Y-97243982D01*
X69574500Y-97356018D01*
X69603497Y-97464237D01*
X69659515Y-97561263D01*
X69738737Y-97640485D01*
X69835763Y-97696503D01*
X69943982Y-97725500D01*
X69943984Y-97725500D01*
X70056016Y-97725500D01*
X70056018Y-97725500D01*
X70111286Y-97710691D01*
X79399500Y-97710691D01*
X79399500Y-97829309D01*
X79430201Y-97943886D01*
X79489511Y-98046613D01*
X79573387Y-98130489D01*
X79676114Y-98189799D01*
X79790691Y-98220500D01*
X79790694Y-98220500D01*
X79909306Y-98220500D01*
X79909309Y-98220500D01*
X80023886Y-98189799D01*
X80126613Y-98130489D01*
X80210489Y-98046613D01*
X80269799Y-97943886D01*
X80300500Y-97829309D01*
X80300500Y-97710691D01*
X80269799Y-97596114D01*
X80210489Y-97493387D01*
X80126613Y-97409511D01*
X80023886Y-97350201D01*
X79909309Y-97319500D01*
X79790691Y-97319500D01*
X79676114Y-97350201D01*
X79676112Y-97350201D01*
X79676112Y-97350202D01*
X79573387Y-97409511D01*
X79573384Y-97409513D01*
X79489513Y-97493384D01*
X79489511Y-97493387D01*
X79430201Y-97596114D01*
X79399500Y-97710691D01*
X70111286Y-97710691D01*
X70164237Y-97696503D01*
X70261263Y-97640485D01*
X70340485Y-97561263D01*
X70396503Y-97464237D01*
X70425500Y-97356018D01*
X70425500Y-97243982D01*
X70396503Y-97135763D01*
X70340485Y-97038737D01*
X70261263Y-96959515D01*
X70164237Y-96903497D01*
X70056018Y-96874500D01*
X69943982Y-96874500D01*
X69835763Y-96903497D01*
X69835760Y-96903498D01*
X69738740Y-96959513D01*
X69738734Y-96959517D01*
X69659517Y-97038734D01*
X69659513Y-97038740D01*
X69603498Y-97135760D01*
X69603497Y-97135763D01*
X69574500Y-97243982D01*
X24419942Y-97243982D01*
X24419579Y-97242574D01*
X24294841Y-96723191D01*
X73519500Y-96723191D01*
X73519500Y-96841809D01*
X73550201Y-96956386D01*
X73609511Y-97059113D01*
X73693387Y-97142989D01*
X73796114Y-97202299D01*
X73910691Y-97233000D01*
X73910694Y-97233000D01*
X74029306Y-97233000D01*
X74029309Y-97233000D01*
X74143886Y-97202299D01*
X74246613Y-97142989D01*
X74330489Y-97059113D01*
X74389799Y-96956386D01*
X74420500Y-96841809D01*
X74420500Y-96723191D01*
X74398394Y-96640691D01*
X81549500Y-96640691D01*
X81549500Y-96759309D01*
X81580201Y-96873886D01*
X81639511Y-96976613D01*
X81723387Y-97060489D01*
X81826114Y-97119799D01*
X81940691Y-97150500D01*
X81940694Y-97150500D01*
X82059306Y-97150500D01*
X82059309Y-97150500D01*
X82173886Y-97119799D01*
X82276613Y-97060489D01*
X82312319Y-97024783D01*
X82373642Y-96991298D01*
X82443334Y-96996282D01*
X82487681Y-97024783D01*
X82523387Y-97060489D01*
X82626114Y-97119799D01*
X82740691Y-97150500D01*
X82740694Y-97150500D01*
X82859306Y-97150500D01*
X82859309Y-97150500D01*
X82973886Y-97119799D01*
X83076613Y-97060489D01*
X83160489Y-96976613D01*
X83219799Y-96873886D01*
X83250500Y-96759309D01*
X83250500Y-96640691D01*
X83219799Y-96526114D01*
X83172380Y-96443982D01*
X86974500Y-96443982D01*
X86974500Y-96556018D01*
X87003497Y-96664237D01*
X87059515Y-96761263D01*
X87138737Y-96840485D01*
X87235763Y-96896503D01*
X87343982Y-96925500D01*
X87343984Y-96925500D01*
X87456016Y-96925500D01*
X87456018Y-96925500D01*
X87564237Y-96896503D01*
X87661263Y-96840485D01*
X87740485Y-96761263D01*
X87796503Y-96664237D01*
X87825500Y-96556018D01*
X87825500Y-96443982D01*
X87796503Y-96335763D01*
X87740485Y-96238737D01*
X87661263Y-96159515D01*
X87564237Y-96103497D01*
X87456018Y-96074500D01*
X87343982Y-96074500D01*
X87235763Y-96103497D01*
X87235760Y-96103498D01*
X87138740Y-96159513D01*
X87138734Y-96159517D01*
X87059517Y-96238734D01*
X87059513Y-96238740D01*
X87003498Y-96335760D01*
X87003497Y-96335763D01*
X86974500Y-96443982D01*
X83172380Y-96443982D01*
X83160489Y-96423387D01*
X83076613Y-96339511D01*
X82973886Y-96280201D01*
X82859309Y-96249500D01*
X82740691Y-96249500D01*
X82626114Y-96280201D01*
X82626112Y-96280201D01*
X82626112Y-96280202D01*
X82523387Y-96339511D01*
X82523384Y-96339513D01*
X82487681Y-96375217D01*
X82426358Y-96408702D01*
X82356666Y-96403718D01*
X82312319Y-96375217D01*
X82276615Y-96339513D01*
X82276613Y-96339511D01*
X82173886Y-96280201D01*
X82059309Y-96249500D01*
X81940691Y-96249500D01*
X81826114Y-96280201D01*
X81826112Y-96280201D01*
X81826112Y-96280202D01*
X81723387Y-96339511D01*
X81723384Y-96339513D01*
X81639513Y-96423384D01*
X81639511Y-96423387D01*
X81580201Y-96526114D01*
X81549500Y-96640691D01*
X74398394Y-96640691D01*
X74389799Y-96608614D01*
X74330489Y-96505887D01*
X74246613Y-96422011D01*
X74143886Y-96362701D01*
X74029309Y-96332000D01*
X73910691Y-96332000D01*
X73796114Y-96362701D01*
X73796112Y-96362701D01*
X73796112Y-96362702D01*
X73693387Y-96422011D01*
X73693384Y-96422013D01*
X73609513Y-96505884D01*
X73609511Y-96505887D01*
X73550201Y-96608614D01*
X73519500Y-96723191D01*
X24294841Y-96723191D01*
X24146887Y-96107140D01*
X24145980Y-96103062D01*
X24143405Y-96090485D01*
X24130301Y-96026482D01*
X68592000Y-96026482D01*
X68592000Y-96138518D01*
X68620997Y-96246737D01*
X68677015Y-96343763D01*
X68756237Y-96422985D01*
X68853263Y-96479003D01*
X68961482Y-96508000D01*
X68961484Y-96508000D01*
X69073516Y-96508000D01*
X69073518Y-96508000D01*
X69181737Y-96479003D01*
X69278763Y-96422985D01*
X69357985Y-96343763D01*
X69414003Y-96246737D01*
X69443000Y-96138518D01*
X69443000Y-96026482D01*
X69414003Y-95918263D01*
X69357985Y-95821237D01*
X69278763Y-95742015D01*
X69195571Y-95693984D01*
X69181739Y-95685998D01*
X69181738Y-95685997D01*
X69181737Y-95685997D01*
X69073518Y-95657000D01*
X68961482Y-95657000D01*
X68853263Y-95685997D01*
X68853260Y-95685998D01*
X68756240Y-95742013D01*
X68756234Y-95742017D01*
X68677017Y-95821234D01*
X68677013Y-95821240D01*
X68620998Y-95918260D01*
X68620997Y-95918263D01*
X68592000Y-96026482D01*
X24130301Y-96026482D01*
X23975216Y-95268982D01*
X59724500Y-95268982D01*
X59724500Y-95381018D01*
X59753497Y-95489237D01*
X59809515Y-95586263D01*
X59888737Y-95665485D01*
X59985763Y-95721503D01*
X60093982Y-95750500D01*
X60093984Y-95750500D01*
X60206016Y-95750500D01*
X60206018Y-95750500D01*
X60314237Y-95721503D01*
X60411263Y-95665485D01*
X60490485Y-95586263D01*
X60531230Y-95515691D01*
X63449500Y-95515691D01*
X63449500Y-95634309D01*
X63480201Y-95748886D01*
X63539511Y-95851613D01*
X63623387Y-95935489D01*
X63726114Y-95994799D01*
X63840691Y-96025500D01*
X63840694Y-96025500D01*
X63959306Y-96025500D01*
X63959309Y-96025500D01*
X64073886Y-95994799D01*
X64176613Y-95935489D01*
X64260489Y-95851613D01*
X64319799Y-95748886D01*
X64350500Y-95634309D01*
X64350500Y-95515691D01*
X65349500Y-95515691D01*
X65349500Y-95634309D01*
X65380201Y-95748886D01*
X65439511Y-95851613D01*
X65523387Y-95935489D01*
X65626114Y-95994799D01*
X65740691Y-96025500D01*
X65740694Y-96025500D01*
X65859306Y-96025500D01*
X65859309Y-96025500D01*
X65973886Y-95994799D01*
X66076613Y-95935489D01*
X66160489Y-95851613D01*
X66219799Y-95748886D01*
X66250500Y-95634309D01*
X66250500Y-95540691D01*
X71949500Y-95540691D01*
X71949500Y-95659309D01*
X71980201Y-95773886D01*
X72039511Y-95876613D01*
X72123387Y-95960489D01*
X72226114Y-96019799D01*
X72340691Y-96050500D01*
X72340694Y-96050500D01*
X72459306Y-96050500D01*
X72459309Y-96050500D01*
X72573886Y-96019799D01*
X72676613Y-95960489D01*
X72760489Y-95876613D01*
X72819799Y-95773886D01*
X72850500Y-95659309D01*
X72850500Y-95540691D01*
X72819799Y-95426114D01*
X72772380Y-95343982D01*
X82854500Y-95343982D01*
X82854500Y-95456018D01*
X82883497Y-95564237D01*
X82939515Y-95661263D01*
X83018737Y-95740485D01*
X83115763Y-95796503D01*
X83223982Y-95825500D01*
X83223984Y-95825500D01*
X83336016Y-95825500D01*
X83336018Y-95825500D01*
X83444237Y-95796503D01*
X83541263Y-95740485D01*
X83587766Y-95693982D01*
X88074500Y-95693982D01*
X88074500Y-95806018D01*
X88103497Y-95914237D01*
X88159515Y-96011263D01*
X88238737Y-96090485D01*
X88335763Y-96146503D01*
X88443982Y-96175500D01*
X88443984Y-96175500D01*
X88556016Y-96175500D01*
X88556018Y-96175500D01*
X88664237Y-96146503D01*
X88761263Y-96090485D01*
X88840485Y-96011263D01*
X88896503Y-95914237D01*
X88925500Y-95806018D01*
X88925500Y-95693982D01*
X88896503Y-95585763D01*
X88840485Y-95488737D01*
X88761263Y-95409515D01*
X88664237Y-95353497D01*
X88556018Y-95324500D01*
X88443982Y-95324500D01*
X88335763Y-95353497D01*
X88335760Y-95353498D01*
X88238740Y-95409513D01*
X88238734Y-95409517D01*
X88159517Y-95488734D01*
X88159513Y-95488740D01*
X88103498Y-95585760D01*
X88103497Y-95585763D01*
X88074500Y-95693982D01*
X83587766Y-95693982D01*
X83620485Y-95661263D01*
X83676503Y-95564237D01*
X83705500Y-95456018D01*
X83705500Y-95343982D01*
X83676503Y-95235763D01*
X83620485Y-95138737D01*
X83541263Y-95059515D01*
X83444237Y-95003497D01*
X83336018Y-94974500D01*
X83223982Y-94974500D01*
X83115763Y-95003497D01*
X83115760Y-95003498D01*
X83018740Y-95059513D01*
X83018734Y-95059517D01*
X82939517Y-95138734D01*
X82939513Y-95138740D01*
X82883498Y-95235760D01*
X82883497Y-95235763D01*
X82854500Y-95343982D01*
X72772380Y-95343982D01*
X72760489Y-95323387D01*
X72676613Y-95239511D01*
X72573886Y-95180201D01*
X72459309Y-95149500D01*
X72340691Y-95149500D01*
X72226114Y-95180201D01*
X72226112Y-95180201D01*
X72226112Y-95180202D01*
X72123387Y-95239511D01*
X72123384Y-95239513D01*
X72039513Y-95323384D01*
X72039511Y-95323387D01*
X71989785Y-95409515D01*
X71980201Y-95426114D01*
X71949500Y-95540691D01*
X66250500Y-95540691D01*
X66250500Y-95515691D01*
X66219799Y-95401114D01*
X66160489Y-95298387D01*
X66076613Y-95214511D01*
X65973886Y-95155201D01*
X65859309Y-95124500D01*
X65740691Y-95124500D01*
X65626114Y-95155201D01*
X65626112Y-95155201D01*
X65626112Y-95155202D01*
X65523387Y-95214511D01*
X65523384Y-95214513D01*
X65439513Y-95298384D01*
X65439511Y-95298387D01*
X65391804Y-95381018D01*
X65380201Y-95401114D01*
X65349500Y-95515691D01*
X64350500Y-95515691D01*
X64319799Y-95401114D01*
X64260489Y-95298387D01*
X64176613Y-95214511D01*
X64073886Y-95155201D01*
X63959309Y-95124500D01*
X63840691Y-95124500D01*
X63726114Y-95155201D01*
X63726112Y-95155201D01*
X63726112Y-95155202D01*
X63623387Y-95214511D01*
X63623384Y-95214513D01*
X63539513Y-95298384D01*
X63539511Y-95298387D01*
X63491804Y-95381018D01*
X63480201Y-95401114D01*
X63449500Y-95515691D01*
X60531230Y-95515691D01*
X60546503Y-95489237D01*
X60575500Y-95381018D01*
X60575500Y-95268982D01*
X60546503Y-95160763D01*
X60490485Y-95063737D01*
X60411263Y-94984515D01*
X60314237Y-94928497D01*
X60206018Y-94899500D01*
X60093982Y-94899500D01*
X59985763Y-94928497D01*
X59985760Y-94928498D01*
X59888740Y-94984513D01*
X59888734Y-94984517D01*
X59809517Y-95063734D01*
X59809513Y-95063740D01*
X59753498Y-95160760D01*
X59753497Y-95160763D01*
X59724500Y-95268982D01*
X23975216Y-95268982D01*
X23911773Y-94959098D01*
X23911022Y-94955082D01*
X23739353Y-93943982D01*
X62074500Y-93943982D01*
X62074500Y-94056018D01*
X62103497Y-94164237D01*
X62159515Y-94261263D01*
X62238737Y-94340485D01*
X62335763Y-94396503D01*
X62443982Y-94425500D01*
X62443984Y-94425500D01*
X62556016Y-94425500D01*
X62556018Y-94425500D01*
X62664237Y-94396503D01*
X62761263Y-94340485D01*
X62840485Y-94261263D01*
X62896503Y-94164237D01*
X62902812Y-94140691D01*
X71949500Y-94140691D01*
X71949500Y-94259309D01*
X71980201Y-94373886D01*
X72039511Y-94476613D01*
X72123387Y-94560489D01*
X72226114Y-94619799D01*
X72340691Y-94650500D01*
X72340694Y-94650500D01*
X72459306Y-94650500D01*
X72459309Y-94650500D01*
X72573886Y-94619799D01*
X72676613Y-94560489D01*
X72760489Y-94476613D01*
X72819799Y-94373886D01*
X72850500Y-94259309D01*
X72850500Y-94233982D01*
X85874500Y-94233982D01*
X85874500Y-94346018D01*
X85903497Y-94454237D01*
X85959515Y-94551263D01*
X86038737Y-94630485D01*
X86135763Y-94686503D01*
X86243982Y-94715500D01*
X86243984Y-94715500D01*
X86356016Y-94715500D01*
X86356018Y-94715500D01*
X86464237Y-94686503D01*
X86561263Y-94630485D01*
X86640485Y-94551263D01*
X86696503Y-94454237D01*
X86725500Y-94346018D01*
X86725500Y-94233982D01*
X86696503Y-94125763D01*
X86640485Y-94028737D01*
X86561263Y-93949515D01*
X86464237Y-93893497D01*
X86356018Y-93864500D01*
X86243982Y-93864500D01*
X86135763Y-93893497D01*
X86135760Y-93893498D01*
X86038740Y-93949513D01*
X86038734Y-93949517D01*
X85959517Y-94028734D01*
X85959513Y-94028740D01*
X85903498Y-94125760D01*
X85903497Y-94125763D01*
X85874500Y-94233982D01*
X72850500Y-94233982D01*
X72850500Y-94140691D01*
X72819799Y-94026114D01*
X72760489Y-93923387D01*
X72676613Y-93839511D01*
X72573886Y-93780201D01*
X72459309Y-93749500D01*
X72340691Y-93749500D01*
X72226114Y-93780201D01*
X72226112Y-93780201D01*
X72226112Y-93780202D01*
X72123387Y-93839511D01*
X72123384Y-93839513D01*
X72039513Y-93923384D01*
X72039511Y-93923387D01*
X72016404Y-93963410D01*
X71980201Y-94026114D01*
X71949500Y-94140691D01*
X62902812Y-94140691D01*
X62925500Y-94056018D01*
X62925500Y-93943982D01*
X62896503Y-93835763D01*
X62840485Y-93738737D01*
X62761263Y-93659515D01*
X62664237Y-93603497D01*
X62556018Y-93574500D01*
X62443982Y-93574500D01*
X62335763Y-93603497D01*
X62335760Y-93603498D01*
X62238740Y-93659513D01*
X62238734Y-93659517D01*
X62159517Y-93738734D01*
X62159513Y-93738740D01*
X62103498Y-93835760D01*
X62103497Y-93835763D01*
X62074500Y-93943982D01*
X23739353Y-93943982D01*
X23715561Y-93803851D01*
X23714943Y-93799803D01*
X23666823Y-93443982D01*
X59324500Y-93443982D01*
X59324500Y-93556018D01*
X59353497Y-93664237D01*
X59409515Y-93761263D01*
X59488737Y-93840485D01*
X59585763Y-93896503D01*
X59693982Y-93925500D01*
X59693984Y-93925500D01*
X59806016Y-93925500D01*
X59806018Y-93925500D01*
X59914237Y-93896503D01*
X60011263Y-93840485D01*
X60090485Y-93761263D01*
X60146503Y-93664237D01*
X60175500Y-93556018D01*
X60175500Y-93443982D01*
X60148705Y-93343982D01*
X84824500Y-93343982D01*
X84824500Y-93456018D01*
X84853497Y-93564237D01*
X84909515Y-93661263D01*
X84988737Y-93740485D01*
X85085763Y-93796503D01*
X85193982Y-93825500D01*
X85193984Y-93825500D01*
X85306016Y-93825500D01*
X85306018Y-93825500D01*
X85414237Y-93796503D01*
X85511263Y-93740485D01*
X85590485Y-93661263D01*
X85646503Y-93564237D01*
X85675500Y-93456018D01*
X85675500Y-93343982D01*
X85646503Y-93235763D01*
X85590485Y-93138737D01*
X85511263Y-93059515D01*
X85414237Y-93003497D01*
X85306018Y-92974500D01*
X85193982Y-92974500D01*
X85085763Y-93003497D01*
X85085760Y-93003498D01*
X84988740Y-93059513D01*
X84988734Y-93059517D01*
X84909517Y-93138734D01*
X84909513Y-93138740D01*
X84853498Y-93235760D01*
X84853497Y-93235763D01*
X84824500Y-93343982D01*
X60148705Y-93343982D01*
X60146503Y-93335763D01*
X60090485Y-93238737D01*
X60011263Y-93159515D01*
X59914237Y-93103497D01*
X59806018Y-93074500D01*
X59693982Y-93074500D01*
X59585763Y-93103497D01*
X59585760Y-93103498D01*
X59488740Y-93159513D01*
X59488734Y-93159517D01*
X59409517Y-93238734D01*
X59409513Y-93238740D01*
X59353498Y-93335760D01*
X59353497Y-93335763D01*
X59324500Y-93443982D01*
X23666823Y-93443982D01*
X23558457Y-92642667D01*
X23558224Y-92640691D01*
X71949500Y-92640691D01*
X71949500Y-92759309D01*
X71980201Y-92873886D01*
X72039511Y-92976613D01*
X72123387Y-93060489D01*
X72226114Y-93119799D01*
X72340691Y-93150500D01*
X72340694Y-93150500D01*
X72459306Y-93150500D01*
X72459309Y-93150500D01*
X72573886Y-93119799D01*
X72676613Y-93060489D01*
X72760489Y-92976613D01*
X72819799Y-92873886D01*
X72850500Y-92759309D01*
X72850500Y-92640691D01*
X72819799Y-92526114D01*
X72818111Y-92523191D01*
X73619530Y-92523191D01*
X73619530Y-92641809D01*
X73650231Y-92756386D01*
X73709541Y-92859113D01*
X73793417Y-92942989D01*
X73896144Y-93002299D01*
X74010721Y-93033000D01*
X74010724Y-93033000D01*
X74129336Y-93033000D01*
X74129339Y-93033000D01*
X74243916Y-93002299D01*
X74346643Y-92942989D01*
X74430519Y-92859113D01*
X74489829Y-92756386D01*
X74520530Y-92641809D01*
X74520530Y-92523191D01*
X74489829Y-92408614D01*
X74430519Y-92305887D01*
X74346643Y-92222011D01*
X74243916Y-92162701D01*
X74129339Y-92132000D01*
X74010721Y-92132000D01*
X73896144Y-92162701D01*
X73896142Y-92162701D01*
X73896142Y-92162702D01*
X73793417Y-92222011D01*
X73793414Y-92222013D01*
X73709543Y-92305884D01*
X73709541Y-92305887D01*
X73650231Y-92408614D01*
X73619530Y-92523191D01*
X72818111Y-92523191D01*
X72811851Y-92512348D01*
X72760489Y-92423387D01*
X72676613Y-92339511D01*
X72573886Y-92280201D01*
X72459309Y-92249500D01*
X72340691Y-92249500D01*
X72226114Y-92280201D01*
X72226112Y-92280201D01*
X72226112Y-92280202D01*
X72123387Y-92339511D01*
X72123384Y-92339513D01*
X72039513Y-92423384D01*
X72039511Y-92423387D01*
X71981889Y-92523191D01*
X71980201Y-92526114D01*
X71949500Y-92640691D01*
X23558224Y-92640691D01*
X23557967Y-92638511D01*
X23527768Y-92339511D01*
X23440632Y-91476796D01*
X23440283Y-91472644D01*
X23411562Y-91043982D01*
X63174500Y-91043982D01*
X63174500Y-91156018D01*
X63203497Y-91264237D01*
X63259515Y-91361263D01*
X63338737Y-91440485D01*
X63435763Y-91496503D01*
X63543982Y-91525500D01*
X63543984Y-91525500D01*
X63656016Y-91525500D01*
X63656018Y-91525500D01*
X63764237Y-91496503D01*
X63861263Y-91440485D01*
X63940485Y-91361263D01*
X63996503Y-91264237D01*
X64025500Y-91156018D01*
X64025500Y-91043982D01*
X63996503Y-90935763D01*
X63940485Y-90838737D01*
X63861263Y-90759515D01*
X63764237Y-90703497D01*
X63656018Y-90674500D01*
X63543982Y-90674500D01*
X63435763Y-90703497D01*
X63435760Y-90703498D01*
X63338740Y-90759513D01*
X63338734Y-90759517D01*
X63259517Y-90838734D01*
X63259513Y-90838740D01*
X63203498Y-90935760D01*
X63203497Y-90935763D01*
X63174500Y-91043982D01*
X23411562Y-91043982D01*
X23362223Y-90307583D01*
X23362016Y-90303424D01*
X23343971Y-89759113D01*
X23332835Y-89423191D01*
X73419500Y-89423191D01*
X73419500Y-89541809D01*
X73450201Y-89656386D01*
X73509511Y-89759113D01*
X73593387Y-89842989D01*
X73696114Y-89902299D01*
X73810691Y-89933000D01*
X73810694Y-89933000D01*
X73929306Y-89933000D01*
X73929309Y-89933000D01*
X74043886Y-89902299D01*
X74146613Y-89842989D01*
X74230489Y-89759113D01*
X74289799Y-89656386D01*
X74320500Y-89541809D01*
X74320500Y-89423191D01*
X74289799Y-89308614D01*
X74289797Y-89308610D01*
X74254720Y-89247855D01*
X74254719Y-89247853D01*
X74230493Y-89205893D01*
X74230490Y-89205890D01*
X74230489Y-89205887D01*
X74218584Y-89193982D01*
X80674500Y-89193982D01*
X80674500Y-89306017D01*
X80703497Y-89414236D01*
X80703498Y-89414239D01*
X80708668Y-89423193D01*
X80759515Y-89511263D01*
X80838737Y-89590485D01*
X80935763Y-89646503D01*
X81043982Y-89675500D01*
X81043984Y-89675500D01*
X81156016Y-89675500D01*
X81156018Y-89675500D01*
X81264237Y-89646503D01*
X81361263Y-89590485D01*
X81440485Y-89511263D01*
X81496503Y-89414237D01*
X81525500Y-89306018D01*
X81525500Y-89193982D01*
X81496503Y-89085763D01*
X81440485Y-88988737D01*
X81361263Y-88909515D01*
X81264237Y-88853497D01*
X81156018Y-88824500D01*
X81043982Y-88824500D01*
X80935763Y-88853497D01*
X80935760Y-88853498D01*
X80838740Y-88909513D01*
X80838734Y-88909517D01*
X80759517Y-88988734D01*
X80759513Y-88988740D01*
X80703498Y-89085760D01*
X80703497Y-89085763D01*
X80674500Y-89193982D01*
X74218584Y-89193982D01*
X74146613Y-89122011D01*
X74043886Y-89062701D01*
X73929309Y-89032000D01*
X73810691Y-89032000D01*
X73696114Y-89062701D01*
X73696112Y-89062701D01*
X73696112Y-89062702D01*
X73593387Y-89122011D01*
X73593384Y-89122013D01*
X73509513Y-89205884D01*
X73509511Y-89205887D01*
X73485281Y-89247855D01*
X73450201Y-89308614D01*
X73419500Y-89423191D01*
X23332835Y-89423191D01*
X23323328Y-89136432D01*
X23323261Y-89132263D01*
X23323968Y-87993982D01*
X67240000Y-87993982D01*
X67240000Y-88106018D01*
X67268997Y-88214237D01*
X67325015Y-88311263D01*
X67404237Y-88390485D01*
X67501263Y-88446503D01*
X67609482Y-88475500D01*
X67609484Y-88475500D01*
X67721516Y-88475500D01*
X67721518Y-88475500D01*
X67829737Y-88446503D01*
X67926763Y-88390485D01*
X68005985Y-88311263D01*
X68062003Y-88214237D01*
X68091000Y-88106018D01*
X68091000Y-87993982D01*
X68077603Y-87943982D01*
X73824500Y-87943982D01*
X73824500Y-88056018D01*
X73853497Y-88164237D01*
X73909515Y-88261263D01*
X73988737Y-88340485D01*
X74085763Y-88396503D01*
X74193982Y-88425500D01*
X74193984Y-88425500D01*
X74306016Y-88425500D01*
X74306018Y-88425500D01*
X74414237Y-88396503D01*
X74511263Y-88340485D01*
X74590485Y-88261263D01*
X74646503Y-88164237D01*
X74675500Y-88056018D01*
X74675500Y-87943982D01*
X74646503Y-87835763D01*
X74590485Y-87738737D01*
X74511263Y-87659515D01*
X74414237Y-87603497D01*
X74306018Y-87574500D01*
X74193982Y-87574500D01*
X74085763Y-87603497D01*
X74085760Y-87603498D01*
X73988740Y-87659513D01*
X73988734Y-87659517D01*
X73909517Y-87738734D01*
X73909513Y-87738740D01*
X73853498Y-87835760D01*
X73853497Y-87835763D01*
X73824500Y-87943982D01*
X68077603Y-87943982D01*
X68062003Y-87885763D01*
X68005985Y-87788737D01*
X67926763Y-87709515D01*
X67840164Y-87659517D01*
X67829739Y-87653498D01*
X67829738Y-87653497D01*
X67829737Y-87653497D01*
X67721518Y-87624500D01*
X67609482Y-87624500D01*
X67501263Y-87653497D01*
X67501260Y-87653498D01*
X67404240Y-87709513D01*
X67404234Y-87709517D01*
X67325017Y-87788734D01*
X67325013Y-87788740D01*
X67268998Y-87885760D01*
X67268997Y-87885763D01*
X67240000Y-87993982D01*
X23323968Y-87993982D01*
X23323986Y-87964609D01*
X23324058Y-87960507D01*
X23364197Y-86793476D01*
X23364409Y-86789364D01*
X23443913Y-85624412D01*
X23444263Y-85620307D01*
X23563049Y-84458650D01*
X23563534Y-84454588D01*
X23721465Y-83297590D01*
X23722085Y-83293557D01*
X23860572Y-82483982D01*
X78464500Y-82483982D01*
X78464500Y-82596018D01*
X78493497Y-82704237D01*
X78549515Y-82801263D01*
X78628737Y-82880485D01*
X78725763Y-82936503D01*
X78833982Y-82965500D01*
X78833984Y-82965500D01*
X78946016Y-82965500D01*
X78946018Y-82965500D01*
X79054237Y-82936503D01*
X79151263Y-82880485D01*
X79230485Y-82801263D01*
X79286503Y-82704237D01*
X79315500Y-82596018D01*
X79315500Y-82483982D01*
X79286503Y-82375763D01*
X79230485Y-82278737D01*
X79151263Y-82199515D01*
X79054237Y-82143497D01*
X78946018Y-82114500D01*
X78833982Y-82114500D01*
X78725763Y-82143497D01*
X78725760Y-82143498D01*
X78628740Y-82199513D01*
X78628734Y-82199517D01*
X78549517Y-82278734D01*
X78549513Y-82278740D01*
X78493498Y-82375760D01*
X78493497Y-82375763D01*
X78464500Y-82483982D01*
X23860572Y-82483982D01*
X23918980Y-82142536D01*
X23919738Y-82138519D01*
X24155360Y-80994869D01*
X24156273Y-80990790D01*
X24215872Y-80743982D01*
X78910692Y-80743982D01*
X78910692Y-80856018D01*
X78939689Y-80964237D01*
X78995707Y-81061263D01*
X79074929Y-81140485D01*
X79171955Y-81196503D01*
X79280174Y-81225500D01*
X79280176Y-81225500D01*
X79392208Y-81225500D01*
X79392210Y-81225500D01*
X79500429Y-81196503D01*
X79597455Y-81140485D01*
X79676677Y-81061263D01*
X79732695Y-80964237D01*
X79761692Y-80856018D01*
X79761692Y-80849500D01*
X79781377Y-80782461D01*
X79834181Y-80736706D01*
X79885692Y-80725500D01*
X79956016Y-80725500D01*
X79956018Y-80725500D01*
X80064237Y-80696503D01*
X80161263Y-80640485D01*
X80240485Y-80561263D01*
X80296503Y-80464237D01*
X80325500Y-80356018D01*
X80325500Y-80243982D01*
X80296503Y-80135763D01*
X80240485Y-80038737D01*
X80161263Y-79959515D01*
X80064237Y-79903497D01*
X79956018Y-79874500D01*
X79843982Y-79874500D01*
X79735763Y-79903497D01*
X79735760Y-79903498D01*
X79638740Y-79959513D01*
X79638734Y-79959517D01*
X79559517Y-80038734D01*
X79559513Y-80038740D01*
X79503498Y-80135760D01*
X79503497Y-80135763D01*
X79474500Y-80243982D01*
X79474500Y-80250500D01*
X79454815Y-80317539D01*
X79402011Y-80363294D01*
X79350500Y-80374500D01*
X79280174Y-80374500D01*
X79171955Y-80403497D01*
X79171952Y-80403498D01*
X79074932Y-80459513D01*
X79074926Y-80459517D01*
X78995709Y-80538734D01*
X78995705Y-80538740D01*
X78939690Y-80635760D01*
X78939689Y-80635763D01*
X78910692Y-80743982D01*
X24215872Y-80743982D01*
X24430357Y-79855767D01*
X24431389Y-79851785D01*
X24743637Y-78726634D01*
X24744819Y-78722637D01*
X24758696Y-78678476D01*
X25094866Y-77608665D01*
X25096155Y-77604791D01*
X25483615Y-76503239D01*
X25485067Y-76499327D01*
X25909468Y-75411529D01*
X25911022Y-75407736D01*
X26371912Y-74334854D01*
X26373607Y-74331086D01*
X26870449Y-73274371D01*
X26872266Y-73270671D01*
X27024195Y-72973982D01*
X70194500Y-72973982D01*
X70194500Y-73086018D01*
X70223497Y-73194237D01*
X70279515Y-73291263D01*
X70358737Y-73370485D01*
X70455763Y-73426503D01*
X70563982Y-73455500D01*
X70563984Y-73455500D01*
X70676016Y-73455500D01*
X70676018Y-73455500D01*
X70784237Y-73426503D01*
X70881263Y-73370485D01*
X70960485Y-73291263D01*
X71016503Y-73194237D01*
X71045500Y-73086018D01*
X71045500Y-72973982D01*
X71016503Y-72865763D01*
X70960485Y-72768737D01*
X70881263Y-72689515D01*
X70784237Y-72633497D01*
X70676018Y-72604500D01*
X70563982Y-72604500D01*
X70455763Y-72633497D01*
X70455760Y-72633498D01*
X70358740Y-72689513D01*
X70358734Y-72689517D01*
X70279517Y-72768734D01*
X70279513Y-72768740D01*
X70223498Y-72865760D01*
X70223497Y-72865763D01*
X70194500Y-72973982D01*
X27024195Y-72973982D01*
X27404508Y-72231299D01*
X27406422Y-72227712D01*
X27973428Y-71206926D01*
X27975515Y-71203315D01*
X28576637Y-70202275D01*
X28578825Y-70198768D01*
X29048052Y-69473982D01*
X75684500Y-69473982D01*
X75684500Y-69586018D01*
X75713497Y-69694237D01*
X75769515Y-69791263D01*
X75848737Y-69870485D01*
X75945763Y-69926503D01*
X76053982Y-69955500D01*
X76053984Y-69955500D01*
X76166016Y-69955500D01*
X76166018Y-69955500D01*
X76274237Y-69926503D01*
X76371263Y-69870485D01*
X76450485Y-69791263D01*
X76506503Y-69694237D01*
X76535500Y-69586018D01*
X76535500Y-69473982D01*
X76506503Y-69365763D01*
X76450485Y-69268737D01*
X76371263Y-69189515D01*
X76274237Y-69133497D01*
X76166018Y-69104500D01*
X76053982Y-69104500D01*
X75945763Y-69133497D01*
X75945760Y-69133498D01*
X75848740Y-69189513D01*
X75848734Y-69189517D01*
X75769517Y-69268734D01*
X75769513Y-69268740D01*
X75713498Y-69365760D01*
X75713497Y-69365763D01*
X75684500Y-69473982D01*
X29048052Y-69473982D01*
X29213418Y-69218552D01*
X29215677Y-69215189D01*
X29864170Y-68283982D01*
X74615103Y-68283982D01*
X74615103Y-68396018D01*
X74644100Y-68504237D01*
X74700118Y-68601263D01*
X74779340Y-68680485D01*
X74876366Y-68736503D01*
X74984585Y-68765500D01*
X74984587Y-68765500D01*
X75096619Y-68765500D01*
X75096621Y-68765500D01*
X75204840Y-68736503D01*
X75301866Y-68680485D01*
X75381088Y-68601263D01*
X75437106Y-68504237D01*
X75466103Y-68396018D01*
X75466103Y-68389500D01*
X75485788Y-68322461D01*
X75538592Y-68276706D01*
X75578646Y-68267992D01*
X75578458Y-68266561D01*
X75586509Y-68265500D01*
X75586518Y-68265500D01*
X75694737Y-68236503D01*
X75791763Y-68180485D01*
X75870985Y-68101263D01*
X75927003Y-68004237D01*
X75956000Y-67896018D01*
X75956000Y-67783982D01*
X75927003Y-67675763D01*
X75870985Y-67578737D01*
X75791763Y-67499515D01*
X75694737Y-67443497D01*
X75586518Y-67414500D01*
X75474482Y-67414500D01*
X75366263Y-67443497D01*
X75366260Y-67443498D01*
X75269240Y-67499513D01*
X75269234Y-67499517D01*
X75190017Y-67578734D01*
X75190013Y-67578740D01*
X75133998Y-67675760D01*
X75133997Y-67675763D01*
X75105000Y-67783982D01*
X75105000Y-67790500D01*
X75085315Y-67857539D01*
X75032511Y-67903294D01*
X74992456Y-67912007D01*
X74992645Y-67913439D01*
X74984585Y-67914500D01*
X74876366Y-67943497D01*
X74876363Y-67943498D01*
X74779343Y-67999513D01*
X74779337Y-67999517D01*
X74700120Y-68078734D01*
X74700116Y-68078740D01*
X74644101Y-68175760D01*
X74644100Y-68175763D01*
X74615103Y-68283982D01*
X29864170Y-68283982D01*
X29883007Y-68256933D01*
X29885429Y-68253579D01*
X29898198Y-68236503D01*
X30584716Y-67318404D01*
X30587222Y-67315169D01*
X31104445Y-66670079D01*
X31317631Y-66404190D01*
X31320289Y-66400985D01*
X31995142Y-65615186D01*
X33599500Y-65615186D01*
X33599500Y-65884813D01*
X33629686Y-66152719D01*
X33629688Y-66152731D01*
X33689684Y-66415594D01*
X33689687Y-66415602D01*
X33778734Y-66670082D01*
X33895714Y-66912994D01*
X33895716Y-66912997D01*
X34039162Y-67141289D01*
X34207266Y-67352085D01*
X34397915Y-67542734D01*
X34608711Y-67710838D01*
X34837003Y-67854284D01*
X35079921Y-67971267D01*
X35271049Y-68038145D01*
X35334397Y-68060312D01*
X35334405Y-68060315D01*
X35334408Y-68060315D01*
X35334409Y-68060316D01*
X35597268Y-68120312D01*
X35865187Y-68150499D01*
X35865188Y-68150500D01*
X35865191Y-68150500D01*
X36134812Y-68150500D01*
X36134812Y-68150499D01*
X36402732Y-68120312D01*
X36665591Y-68060316D01*
X36920079Y-67971267D01*
X37162997Y-67854284D01*
X37391289Y-67710838D01*
X37602085Y-67542734D01*
X37792734Y-67352085D01*
X37960838Y-67141289D01*
X38104284Y-66912997D01*
X38221267Y-66670079D01*
X38310316Y-66415591D01*
X38370312Y-66152732D01*
X38400500Y-65884809D01*
X38400500Y-65623982D01*
X75434500Y-65623982D01*
X75434500Y-65736018D01*
X75463497Y-65844237D01*
X75519515Y-65941263D01*
X75598737Y-66020485D01*
X75695763Y-66076503D01*
X75803982Y-66105500D01*
X75803984Y-66105500D01*
X75916016Y-66105500D01*
X75916018Y-66105500D01*
X76024237Y-66076503D01*
X76121263Y-66020485D01*
X76200485Y-65941263D01*
X76256503Y-65844237D01*
X76285500Y-65736018D01*
X76285500Y-65623982D01*
X76283143Y-65615186D01*
X78099500Y-65615186D01*
X78099500Y-65884813D01*
X78129686Y-66152719D01*
X78129688Y-66152731D01*
X78189684Y-66415594D01*
X78189687Y-66415602D01*
X78278734Y-66670082D01*
X78395714Y-66912994D01*
X78395716Y-66912997D01*
X78539162Y-67141289D01*
X78707266Y-67352085D01*
X78897915Y-67542734D01*
X79108711Y-67710838D01*
X79337003Y-67854284D01*
X79579921Y-67971267D01*
X79771049Y-68038145D01*
X79834397Y-68060312D01*
X79834405Y-68060315D01*
X79834408Y-68060315D01*
X79834409Y-68060316D01*
X80097268Y-68120312D01*
X80365187Y-68150499D01*
X80365188Y-68150500D01*
X80365191Y-68150500D01*
X80634812Y-68150500D01*
X80634812Y-68150499D01*
X80902732Y-68120312D01*
X81165591Y-68060316D01*
X81420079Y-67971267D01*
X81662997Y-67854284D01*
X81891289Y-67710838D01*
X82102085Y-67542734D01*
X82292734Y-67352085D01*
X82460838Y-67141289D01*
X82604284Y-66912997D01*
X82721267Y-66670079D01*
X82810316Y-66415591D01*
X82870312Y-66152732D01*
X82900500Y-65884809D01*
X82900500Y-65615191D01*
X82870312Y-65347268D01*
X82810316Y-65084409D01*
X82721267Y-64829921D01*
X82604284Y-64587003D01*
X82460838Y-64358711D01*
X82292734Y-64147915D01*
X82102085Y-63957266D01*
X81891289Y-63789162D01*
X81662997Y-63645716D01*
X81662994Y-63645714D01*
X81420082Y-63528734D01*
X81165602Y-63439687D01*
X81165594Y-63439684D01*
X80968446Y-63394687D01*
X80902732Y-63379688D01*
X80902728Y-63379687D01*
X80902719Y-63379686D01*
X80634813Y-63349500D01*
X80634809Y-63349500D01*
X80365191Y-63349500D01*
X80365186Y-63349500D01*
X80097280Y-63379686D01*
X80097268Y-63379688D01*
X79834405Y-63439684D01*
X79834397Y-63439687D01*
X79579917Y-63528734D01*
X79337005Y-63645714D01*
X79108712Y-63789161D01*
X78897915Y-63957265D01*
X78707265Y-64147915D01*
X78539161Y-64358712D01*
X78395714Y-64587005D01*
X78278734Y-64829917D01*
X78189687Y-65084397D01*
X78189684Y-65084405D01*
X78129688Y-65347268D01*
X78129686Y-65347280D01*
X78099500Y-65615186D01*
X76283143Y-65615186D01*
X76256503Y-65515763D01*
X76200485Y-65418737D01*
X76121263Y-65339515D01*
X76024237Y-65283497D01*
X75916018Y-65254500D01*
X75803982Y-65254500D01*
X75695763Y-65283497D01*
X75695760Y-65283498D01*
X75598740Y-65339513D01*
X75598734Y-65339517D01*
X75519517Y-65418734D01*
X75519513Y-65418740D01*
X75463498Y-65515760D01*
X75463497Y-65515763D01*
X75434500Y-65623982D01*
X38400500Y-65623982D01*
X38400500Y-65615191D01*
X38370312Y-65347268D01*
X38310316Y-65084409D01*
X38310315Y-65084405D01*
X38310314Y-65084401D01*
X38307657Y-65076808D01*
X38307656Y-65076806D01*
X38296170Y-65043982D01*
X66754500Y-65043982D01*
X66754500Y-65156018D01*
X66783497Y-65264237D01*
X66839515Y-65361263D01*
X66918737Y-65440485D01*
X67015763Y-65496503D01*
X67123982Y-65525500D01*
X67123984Y-65525500D01*
X67236016Y-65525500D01*
X67236018Y-65525500D01*
X67344237Y-65496503D01*
X67441263Y-65440485D01*
X67520485Y-65361263D01*
X67576503Y-65264237D01*
X67605500Y-65156018D01*
X67605500Y-65043982D01*
X67576503Y-64935763D01*
X67520485Y-64838737D01*
X67441263Y-64759515D01*
X67344237Y-64703497D01*
X67236018Y-64674500D01*
X67123982Y-64674500D01*
X67015763Y-64703497D01*
X67015760Y-64703498D01*
X66918740Y-64759513D01*
X66918734Y-64759517D01*
X66839517Y-64838734D01*
X66839513Y-64838740D01*
X66783498Y-64935760D01*
X66783497Y-64935763D01*
X66754500Y-65043982D01*
X38296170Y-65043982D01*
X38273178Y-64978275D01*
X38221267Y-64829921D01*
X38104284Y-64587003D01*
X37960838Y-64358711D01*
X37792734Y-64147915D01*
X37602085Y-63957266D01*
X37391289Y-63789162D01*
X37162997Y-63645716D01*
X37162994Y-63645714D01*
X36920082Y-63528734D01*
X36665602Y-63439687D01*
X36665594Y-63439684D01*
X36468446Y-63394687D01*
X36402732Y-63379688D01*
X36402728Y-63379687D01*
X36402719Y-63379686D01*
X36134813Y-63349500D01*
X36134809Y-63349500D01*
X35865191Y-63349500D01*
X35865186Y-63349500D01*
X35597280Y-63379686D01*
X35597268Y-63379688D01*
X35334405Y-63439684D01*
X35334397Y-63439687D01*
X35079917Y-63528734D01*
X34837005Y-63645714D01*
X34608712Y-63789161D01*
X34397915Y-63957265D01*
X34207265Y-64147915D01*
X34039161Y-64358712D01*
X33895714Y-64587005D01*
X33778734Y-64829917D01*
X33689687Y-65084397D01*
X33689684Y-65084405D01*
X33629688Y-65347268D01*
X33629686Y-65347280D01*
X33599500Y-65615186D01*
X31995142Y-65615186D01*
X32081058Y-65515145D01*
X32083780Y-65512082D01*
X32874058Y-64652381D01*
X32876873Y-64649421D01*
X33695665Y-63816939D01*
X33698605Y-63814048D01*
X34545064Y-63009647D01*
X34548095Y-63006862D01*
X35421227Y-62231487D01*
X35424298Y-62228850D01*
X36323098Y-61483393D01*
X36326332Y-61480802D01*
X37249775Y-60766112D01*
X37253031Y-60763679D01*
X38200087Y-60080556D01*
X38203486Y-60078190D01*
X39173001Y-59427464D01*
X39176509Y-59425195D01*
X40167461Y-58807547D01*
X40170936Y-58805461D01*
X41182235Y-58221578D01*
X41185822Y-58219588D01*
X42216200Y-57670201D01*
X42219858Y-57668329D01*
X43268204Y-57154028D01*
X43271914Y-57152285D01*
X44336985Y-56673681D01*
X44340827Y-56672032D01*
X45421426Y-56229658D01*
X45425279Y-56228155D01*
X46520258Y-55822485D01*
X46524146Y-55821119D01*
X47632176Y-55452646D01*
X47636052Y-55451429D01*
X48755936Y-55120551D01*
X48759884Y-55119457D01*
X49890222Y-54826588D01*
X49894250Y-54825616D01*
X51033881Y-54571056D01*
X51037906Y-54570228D01*
X52185460Y-54354284D01*
X52189478Y-54353598D01*
X53343674Y-54176510D01*
X53347779Y-54175950D01*
X54488682Y-54040137D01*
X54503513Y-54039269D01*
X61664378Y-54050459D01*
G37*
G04 #@! TD.AperFunction*
M02*
